<?xml version="1.0" encoding="utf-8" standalone="no"?>
<!DOCTYPE svg PUBLIC "-//W3C//DTD SVG 1.1//EN"
  "http://www.w3.org/Graphics/SVG/1.1/DTD/svg11.dtd">
<svg xmlns:xlink="http://www.w3.org/1999/xlink" width="216pt" height="360pt" viewBox="0 0 216 360" xmlns="http://www.w3.org/2000/svg" version="1.1">
 <metadata>
  <rdf:RDF xmlns:dc="http://purl.org/dc/elements/1.1/" xmlns:cc="http://creativecommons.org/ns#" xmlns:rdf="http://www.w3.org/1999/02/22-rdf-syntax-ns#">
   <cc:Work>
    <dc:type rdf:resource="http://purl.org/dc/dcmitype/StillImage"/>
    <dc:date>2025-03-04T21:46:31.386605</dc:date>
    <dc:format>image/svg+xml</dc:format>
    <dc:creator>
     <cc:Agent>
      <dc:title>Matplotlib v3.9.2, https://matplotlib.org/</dc:title>
     </cc:Agent>
    </dc:creator>
   </cc:Work>
  </rdf:RDF>
 </metadata>
 <defs>
  <style type="text/css">*{stroke-linejoin: round; stroke-linecap: butt}</style>
 </defs>
 <g id="figure_1">
  <g id="patch_1">
   <path d="M 0 360 
L 216 360 
L 216 0 
L 0 0 
z
" style="fill: #ffffff"/>
  </g>
  <g id="axes_1">
   <g id="patch_2">
    <path d="M 52.92 311.94 
L 203.04 311.94 
L 203.04 27.6 
L 52.92 27.6 
z
" style="fill: #ffffff"/>
   </g>
   <g id="matplotlib.axis_1">
    <g id="xtick_1">
     <g id="text_1">
      <!-- 5 -->
      <g style="fill: #262626" transform="translate(76.181225 329.313594) scale(0.11 -0.11)">
       <defs>
        <path id="ArialMT-35" d="M 266 1200 
L 856 1250 
Q 922 819 1161 601 
Q 1400 384 1738 384 
Q 2144 384 2425 690 
Q 2706 997 2706 1503 
Q 2706 1984 2436 2262 
Q 2166 2541 1728 2541 
Q 1456 2541 1237 2417 
Q 1019 2294 894 2097 
L 366 2166 
L 809 4519 
L 3088 4519 
L 3088 3981 
L 1259 3981 
L 1013 2750 
Q 1425 3038 1878 3038 
Q 2478 3038 2890 2622 
Q 3303 2206 3303 1553 
Q 3303 931 2941 478 
Q 2500 -78 1738 -78 
Q 1113 -78 717 272 
Q 322 622 266 1200 
z
" transform="scale(0.015625)"/>
       </defs>
       <use xlink:href="#ArialMT-35"/>
      </g>
     </g>
    </g>
    <g id="xtick_2">
     <g id="text_2">
      <!-- 7 -->
      <g style="fill: #262626" transform="translate(124.921484 329.313594) scale(0.11 -0.11)">
       <defs>
        <path id="ArialMT-37" d="M 303 3981 
L 303 4522 
L 3269 4522 
L 3269 4084 
Q 2831 3619 2401 2847 
Q 1972 2075 1738 1259 
Q 1569 684 1522 0 
L 944 0 
Q 953 541 1156 1306 
Q 1359 2072 1739 2783 
Q 2119 3494 2547 3981 
L 303 3981 
z
" transform="scale(0.015625)"/>
       </defs>
       <use xlink:href="#ArialMT-37"/>
      </g>
     </g>
    </g>
    <g id="xtick_3">
     <g id="text_3">
      <!-- 20 -->
      <g style="fill: #262626" transform="translate(170.603228 329.313594) scale(0.11 -0.11)">
       <defs>
        <path id="ArialMT-32" d="M 3222 541 
L 3222 0 
L 194 0 
Q 188 203 259 391 
Q 375 700 629 1000 
Q 884 1300 1366 1694 
Q 2113 2306 2375 2664 
Q 2638 3022 2638 3341 
Q 2638 3675 2398 3904 
Q 2159 4134 1775 4134 
Q 1369 4134 1125 3890 
Q 881 3647 878 3216 
L 300 3275 
Q 359 3922 746 4261 
Q 1134 4600 1788 4600 
Q 2447 4600 2831 4234 
Q 3216 3869 3216 3328 
Q 3216 3053 3103 2787 
Q 2991 2522 2730 2228 
Q 2469 1934 1863 1422 
Q 1356 997 1212 845 
Q 1069 694 975 541 
L 3222 541 
z
" transform="scale(0.015625)"/>
        <path id="ArialMT-30" d="M 266 2259 
Q 266 3072 433 3567 
Q 600 4063 929 4331 
Q 1259 4600 1759 4600 
Q 2128 4600 2406 4451 
Q 2684 4303 2865 4023 
Q 3047 3744 3150 3342 
Q 3253 2941 3253 2259 
Q 3253 1453 3087 958 
Q 2922 463 2592 192 
Q 2263 -78 1759 -78 
Q 1097 -78 719 397 
Q 266 969 266 2259 
z
M 844 2259 
Q 844 1131 1108 757 
Q 1372 384 1759 384 
Q 2147 384 2411 759 
Q 2675 1134 2675 2259 
Q 2675 3391 2411 3762 
Q 2147 4134 1753 4134 
Q 1366 4134 1134 3806 
Q 844 3388 844 2259 
z
" transform="scale(0.015625)"/>
       </defs>
       <use xlink:href="#ArialMT-32"/>
       <use xlink:href="#ArialMT-30" x="55.615234"/>
      </g>
     </g>
    </g>
    <g id="text_4">
     <!-- Time (hours) -->
     <g style="fill: #262626" transform="translate(94.202813 344.235469) scale(0.12 -0.12)">
      <defs>
       <path id="ArialMT-54" d="M 1659 0 
L 1659 4041 
L 150 4041 
L 150 4581 
L 3781 4581 
L 3781 4041 
L 2266 4041 
L 2266 0 
L 1659 0 
z
" transform="scale(0.015625)"/>
       <path id="ArialMT-69" d="M 425 3934 
L 425 4581 
L 988 4581 
L 988 3934 
L 425 3934 
z
M 425 0 
L 425 3319 
L 988 3319 
L 988 0 
L 425 0 
z
" transform="scale(0.015625)"/>
       <path id="ArialMT-6d" d="M 422 0 
L 422 3319 
L 925 3319 
L 925 2853 
Q 1081 3097 1340 3245 
Q 1600 3394 1931 3394 
Q 2300 3394 2536 3241 
Q 2772 3088 2869 2813 
Q 3263 3394 3894 3394 
Q 4388 3394 4653 3120 
Q 4919 2847 4919 2278 
L 4919 0 
L 4359 0 
L 4359 2091 
Q 4359 2428 4304 2576 
Q 4250 2725 4106 2815 
Q 3963 2906 3769 2906 
Q 3419 2906 3187 2673 
Q 2956 2441 2956 1928 
L 2956 0 
L 2394 0 
L 2394 2156 
Q 2394 2531 2256 2718 
Q 2119 2906 1806 2906 
Q 1569 2906 1367 2781 
Q 1166 2656 1075 2415 
Q 984 2175 984 1722 
L 984 0 
L 422 0 
z
" transform="scale(0.015625)"/>
       <path id="ArialMT-65" d="M 2694 1069 
L 3275 997 
Q 3138 488 2766 206 
Q 2394 -75 1816 -75 
Q 1088 -75 661 373 
Q 234 822 234 1631 
Q 234 2469 665 2931 
Q 1097 3394 1784 3394 
Q 2450 3394 2872 2941 
Q 3294 2488 3294 1666 
Q 3294 1616 3291 1516 
L 816 1516 
Q 847 969 1125 678 
Q 1403 388 1819 388 
Q 2128 388 2347 550 
Q 2566 713 2694 1069 
z
M 847 1978 
L 2700 1978 
Q 2663 2397 2488 2606 
Q 2219 2931 1791 2931 
Q 1403 2931 1139 2672 
Q 875 2413 847 1978 
z
" transform="scale(0.015625)"/>
       <path id="ArialMT-20" transform="scale(0.015625)"/>
       <path id="ArialMT-28" d="M 1497 -1347 
Q 1031 -759 709 28 
Q 388 816 388 1659 
Q 388 2403 628 3084 
Q 909 3875 1497 4659 
L 1900 4659 
Q 1522 4009 1400 3731 
Q 1209 3300 1100 2831 
Q 966 2247 966 1656 
Q 966 153 1900 -1347 
L 1497 -1347 
z
" transform="scale(0.015625)"/>
       <path id="ArialMT-68" d="M 422 0 
L 422 4581 
L 984 4581 
L 984 2938 
Q 1378 3394 1978 3394 
Q 2347 3394 2619 3248 
Q 2891 3103 3008 2847 
Q 3125 2591 3125 2103 
L 3125 0 
L 2563 0 
L 2563 2103 
Q 2563 2525 2380 2717 
Q 2197 2909 1863 2909 
Q 1613 2909 1392 2779 
Q 1172 2650 1078 2428 
Q 984 2206 984 1816 
L 984 0 
L 422 0 
z
" transform="scale(0.015625)"/>
       <path id="ArialMT-6f" d="M 213 1659 
Q 213 2581 725 3025 
Q 1153 3394 1769 3394 
Q 2453 3394 2887 2945 
Q 3322 2497 3322 1706 
Q 3322 1066 3130 698 
Q 2938 331 2570 128 
Q 2203 -75 1769 -75 
Q 1072 -75 642 372 
Q 213 819 213 1659 
z
M 791 1659 
Q 791 1022 1069 705 
Q 1347 388 1769 388 
Q 2188 388 2466 706 
Q 2744 1025 2744 1678 
Q 2744 2294 2464 2611 
Q 2184 2928 1769 2928 
Q 1347 2928 1069 2612 
Q 791 2297 791 1659 
z
" transform="scale(0.015625)"/>
       <path id="ArialMT-75" d="M 2597 0 
L 2597 488 
Q 2209 -75 1544 -75 
Q 1250 -75 995 37 
Q 741 150 617 320 
Q 494 491 444 738 
Q 409 903 409 1263 
L 409 3319 
L 972 3319 
L 972 1478 
Q 972 1038 1006 884 
Q 1059 663 1231 536 
Q 1403 409 1656 409 
Q 1909 409 2131 539 
Q 2353 669 2445 892 
Q 2538 1116 2538 1541 
L 2538 3319 
L 3100 3319 
L 3100 0 
L 2597 0 
z
" transform="scale(0.015625)"/>
       <path id="ArialMT-72" d="M 416 0 
L 416 3319 
L 922 3319 
L 922 2816 
Q 1116 3169 1280 3281 
Q 1444 3394 1641 3394 
Q 1925 3394 2219 3213 
L 2025 2691 
Q 1819 2813 1613 2813 
Q 1428 2813 1281 2702 
Q 1134 2591 1072 2394 
Q 978 2094 978 1738 
L 978 0 
L 416 0 
z
" transform="scale(0.015625)"/>
       <path id="ArialMT-73" d="M 197 991 
L 753 1078 
Q 800 744 1014 566 
Q 1228 388 1613 388 
Q 2000 388 2187 545 
Q 2375 703 2375 916 
Q 2375 1106 2209 1216 
Q 2094 1291 1634 1406 
Q 1016 1563 777 1677 
Q 538 1791 414 1992 
Q 291 2194 291 2438 
Q 291 2659 392 2848 
Q 494 3038 669 3163 
Q 800 3259 1026 3326 
Q 1253 3394 1513 3394 
Q 1903 3394 2198 3281 
Q 2494 3169 2634 2976 
Q 2775 2784 2828 2463 
L 2278 2388 
Q 2241 2644 2061 2787 
Q 1881 2931 1553 2931 
Q 1166 2931 1000 2803 
Q 834 2675 834 2503 
Q 834 2394 903 2306 
Q 972 2216 1119 2156 
Q 1203 2125 1616 2013 
Q 2213 1853 2448 1751 
Q 2684 1650 2818 1456 
Q 2953 1263 2953 975 
Q 2953 694 2789 445 
Q 2625 197 2315 61 
Q 2006 -75 1616 -75 
Q 969 -75 630 194 
Q 291 463 197 991 
z
" transform="scale(0.015625)"/>
       <path id="ArialMT-29" d="M 791 -1347 
L 388 -1347 
Q 1322 153 1322 1656 
Q 1322 2244 1188 2822 
Q 1081 3291 891 3722 
Q 769 4003 388 4659 
L 791 4659 
Q 1378 3875 1659 3084 
Q 1900 2403 1900 1659 
Q 1900 816 1576 28 
Q 1253 -759 791 -1347 
z
" transform="scale(0.015625)"/>
      </defs>
      <use xlink:href="#ArialMT-54"/>
      <use xlink:href="#ArialMT-69" x="57.333984"/>
      <use xlink:href="#ArialMT-6d" x="79.550781"/>
      <use xlink:href="#ArialMT-65" x="162.851562"/>
      <use xlink:href="#ArialMT-20" x="218.466797"/>
      <use xlink:href="#ArialMT-28" x="246.25"/>
      <use xlink:href="#ArialMT-68" x="279.550781"/>
      <use xlink:href="#ArialMT-6f" x="335.166016"/>
      <use xlink:href="#ArialMT-75" x="390.78125"/>
      <use xlink:href="#ArialMT-72" x="446.396484"/>
      <use xlink:href="#ArialMT-73" x="479.697266"/>
      <use xlink:href="#ArialMT-29" x="529.697266"/>
     </g>
    </g>
   </g>
   <g id="matplotlib.axis_2">
    <g id="ytick_1">
     <g id="text_5">
      <!-- 0.0 -->
      <g style="fill: #262626" transform="translate(28.13 315.876797) scale(0.11 -0.11)">
       <defs>
        <path id="ArialMT-2e" d="M 581 0 
L 581 641 
L 1222 641 
L 1222 0 
L 581 0 
z
" transform="scale(0.015625)"/>
       </defs>
       <use xlink:href="#ArialMT-30"/>
       <use xlink:href="#ArialMT-2e" x="55.615234"/>
       <use xlink:href="#ArialMT-30" x="83.398438"/>
      </g>
     </g>
    </g>
    <g id="ytick_2">
     <g id="text_6">
      <!-- 0.1 -->
      <g style="fill: #262626" transform="translate(28.13 274.572582) scale(0.11 -0.11)">
       <defs>
        <path id="ArialMT-31" d="M 2384 0 
L 1822 0 
L 1822 3584 
Q 1619 3391 1289 3197 
Q 959 3003 697 2906 
L 697 3450 
Q 1169 3672 1522 3987 
Q 1875 4303 2022 4600 
L 2384 4600 
L 2384 0 
z
" transform="scale(0.015625)"/>
       </defs>
       <use xlink:href="#ArialMT-30"/>
       <use xlink:href="#ArialMT-2e" x="55.615234"/>
       <use xlink:href="#ArialMT-31" x="83.398438"/>
      </g>
     </g>
    </g>
    <g id="ytick_3">
     <g id="text_7">
      <!-- 0.2 -->
      <g style="fill: #262626" transform="translate(28.13 233.268366) scale(0.11 -0.11)">
       <use xlink:href="#ArialMT-30"/>
       <use xlink:href="#ArialMT-2e" x="55.615234"/>
       <use xlink:href="#ArialMT-32" x="83.398438"/>
      </g>
     </g>
    </g>
    <g id="ytick_4">
     <g id="text_8">
      <!-- 0.3 -->
      <g style="fill: #262626" transform="translate(28.13 191.964151) scale(0.11 -0.11)">
       <defs>
        <path id="ArialMT-33" d="M 269 1209 
L 831 1284 
Q 928 806 1161 595 
Q 1394 384 1728 384 
Q 2125 384 2398 659 
Q 2672 934 2672 1341 
Q 2672 1728 2419 1979 
Q 2166 2231 1775 2231 
Q 1616 2231 1378 2169 
L 1441 2663 
Q 1497 2656 1531 2656 
Q 1891 2656 2178 2843 
Q 2466 3031 2466 3422 
Q 2466 3731 2256 3934 
Q 2047 4138 1716 4138 
Q 1388 4138 1169 3931 
Q 950 3725 888 3313 
L 325 3413 
Q 428 3978 793 4289 
Q 1159 4600 1703 4600 
Q 2078 4600 2393 4439 
Q 2709 4278 2876 4000 
Q 3044 3722 3044 3409 
Q 3044 3113 2884 2869 
Q 2725 2625 2413 2481 
Q 2819 2388 3044 2092 
Q 3269 1797 3269 1353 
Q 3269 753 2831 336 
Q 2394 -81 1725 -81 
Q 1122 -81 723 278 
Q 325 638 269 1209 
z
" transform="scale(0.015625)"/>
       </defs>
       <use xlink:href="#ArialMT-30"/>
       <use xlink:href="#ArialMT-2e" x="55.615234"/>
       <use xlink:href="#ArialMT-33" x="83.398438"/>
      </g>
     </g>
    </g>
    <g id="ytick_5">
     <g id="text_9">
      <!-- 0.4 -->
      <g style="fill: #262626" transform="translate(28.13 150.659936) scale(0.11 -0.11)">
       <defs>
        <path id="ArialMT-34" d="M 2069 0 
L 2069 1097 
L 81 1097 
L 81 1613 
L 2172 4581 
L 2631 4581 
L 2631 1613 
L 3250 1613 
L 3250 1097 
L 2631 1097 
L 2631 0 
L 2069 0 
z
M 2069 1613 
L 2069 3678 
L 634 1613 
L 2069 1613 
z
" transform="scale(0.015625)"/>
       </defs>
       <use xlink:href="#ArialMT-30"/>
       <use xlink:href="#ArialMT-2e" x="55.615234"/>
       <use xlink:href="#ArialMT-34" x="83.398438"/>
      </g>
     </g>
    </g>
    <g id="ytick_6">
     <g id="text_10">
      <!-- 0.5 -->
      <g style="fill: #262626" transform="translate(28.13 109.355721) scale(0.11 -0.11)">
       <use xlink:href="#ArialMT-30"/>
       <use xlink:href="#ArialMT-2e" x="55.615234"/>
       <use xlink:href="#ArialMT-35" x="83.398438"/>
      </g>
     </g>
    </g>
    <g id="ytick_7">
     <g id="text_11">
      <!-- 0.6 -->
      <g style="fill: #262626" transform="translate(28.13 68.051505) scale(0.11 -0.11)">
       <defs>
        <path id="ArialMT-36" d="M 3184 3459 
L 2625 3416 
Q 2550 3747 2413 3897 
Q 2184 4138 1850 4138 
Q 1581 4138 1378 3988 
Q 1113 3794 959 3422 
Q 806 3050 800 2363 
Q 1003 2672 1297 2822 
Q 1591 2972 1913 2972 
Q 2475 2972 2870 2558 
Q 3266 2144 3266 1488 
Q 3266 1056 3080 686 
Q 2894 316 2569 119 
Q 2244 -78 1831 -78 
Q 1128 -78 684 439 
Q 241 956 241 2144 
Q 241 3472 731 4075 
Q 1159 4600 1884 4600 
Q 2425 4600 2770 4297 
Q 3116 3994 3184 3459 
z
M 888 1484 
Q 888 1194 1011 928 
Q 1134 663 1356 523 
Q 1578 384 1822 384 
Q 2178 384 2434 671 
Q 2691 959 2691 1453 
Q 2691 1928 2437 2201 
Q 2184 2475 1800 2475 
Q 1419 2475 1153 2201 
Q 888 1928 888 1484 
z
" transform="scale(0.015625)"/>
       </defs>
       <use xlink:href="#ArialMT-30"/>
       <use xlink:href="#ArialMT-2e" x="55.615234"/>
       <use xlink:href="#ArialMT-36" x="83.398438"/>
      </g>
     </g>
    </g>
    <g id="text_12">
     <!-- OD Value -->
     <g style="fill: #262626" transform="translate(21.745 195.339375) rotate(-90) scale(0.12 -0.12)">
      <defs>
       <path id="ArialMT-4f" d="M 309 2231 
Q 309 3372 921 4017 
Q 1534 4663 2503 4663 
Q 3138 4663 3647 4359 
Q 4156 4056 4423 3514 
Q 4691 2972 4691 2284 
Q 4691 1588 4409 1038 
Q 4128 488 3612 205 
Q 3097 -78 2500 -78 
Q 1853 -78 1343 234 
Q 834 547 571 1087 
Q 309 1628 309 2231 
z
M 934 2222 
Q 934 1394 1379 917 
Q 1825 441 2497 441 
Q 3181 441 3623 922 
Q 4066 1403 4066 2288 
Q 4066 2847 3877 3264 
Q 3688 3681 3323 3911 
Q 2959 4141 2506 4141 
Q 1863 4141 1398 3698 
Q 934 3256 934 2222 
z
" transform="scale(0.015625)"/>
       <path id="ArialMT-44" d="M 494 0 
L 494 4581 
L 2072 4581 
Q 2606 4581 2888 4516 
Q 3281 4425 3559 4188 
Q 3922 3881 4101 3404 
Q 4281 2928 4281 2316 
Q 4281 1794 4159 1391 
Q 4038 988 3847 723 
Q 3656 459 3429 307 
Q 3203 156 2883 78 
Q 2563 0 2147 0 
L 494 0 
z
M 1100 541 
L 2078 541 
Q 2531 541 2789 625 
Q 3047 709 3200 863 
Q 3416 1078 3536 1442 
Q 3656 1806 3656 2325 
Q 3656 3044 3420 3430 
Q 3184 3816 2847 3947 
Q 2603 4041 2063 4041 
L 1100 4041 
L 1100 541 
z
" transform="scale(0.015625)"/>
       <path id="ArialMT-56" d="M 1803 0 
L 28 4581 
L 684 4581 
L 1875 1253 
Q 2019 853 2116 503 
Q 2222 878 2363 1253 
L 3600 4581 
L 4219 4581 
L 2425 0 
L 1803 0 
z
" transform="scale(0.015625)"/>
       <path id="ArialMT-61" d="M 2588 409 
Q 2275 144 1986 34 
Q 1697 -75 1366 -75 
Q 819 -75 525 192 
Q 231 459 231 875 
Q 231 1119 342 1320 
Q 453 1522 633 1644 
Q 813 1766 1038 1828 
Q 1203 1872 1538 1913 
Q 2219 1994 2541 2106 
Q 2544 2222 2544 2253 
Q 2544 2597 2384 2738 
Q 2169 2928 1744 2928 
Q 1347 2928 1158 2789 
Q 969 2650 878 2297 
L 328 2372 
Q 403 2725 575 2942 
Q 747 3159 1072 3276 
Q 1397 3394 1825 3394 
Q 2250 3394 2515 3294 
Q 2781 3194 2906 3042 
Q 3031 2891 3081 2659 
Q 3109 2516 3109 2141 
L 3109 1391 
Q 3109 606 3145 398 
Q 3181 191 3288 0 
L 2700 0 
Q 2613 175 2588 409 
z
M 2541 1666 
Q 2234 1541 1622 1453 
Q 1275 1403 1131 1340 
Q 988 1278 909 1158 
Q 831 1038 831 891 
Q 831 666 1001 516 
Q 1172 366 1500 366 
Q 1825 366 2078 508 
Q 2331 650 2450 897 
Q 2541 1088 2541 1459 
L 2541 1666 
z
" transform="scale(0.015625)"/>
       <path id="ArialMT-6c" d="M 409 0 
L 409 4581 
L 972 4581 
L 972 0 
L 409 0 
z
" transform="scale(0.015625)"/>
      </defs>
      <use xlink:href="#ArialMT-4f"/>
      <use xlink:href="#ArialMT-44" x="77.783203"/>
      <use xlink:href="#ArialMT-20" x="150"/>
      <use xlink:href="#ArialMT-56" x="177.783203"/>
      <use xlink:href="#ArialMT-61" x="237.107422"/>
      <use xlink:href="#ArialMT-6c" x="292.722656"/>
      <use xlink:href="#ArialMT-75" x="314.939453"/>
      <use xlink:href="#ArialMT-65" x="370.554688"/>
     </g>
    </g>
   </g>
   <g id="patch_3">
    <path d="M 59.743636 311.94 
L 72.741039 311.94 
L 72.741039 240.621388 
L 59.743636 240.621388 
z
" clip-path="url(#pbf929f6674)" style="fill: #9bb5f0; stroke: #ffffff; stroke-linejoin: miter"/>
   </g>
   <g id="patch_4">
    <path d="M 108.483896 311.94 
L 121.481299 311.94 
L 121.481299 219.90044 
L 108.483896 219.90044 
z
" clip-path="url(#pbf929f6674)" style="fill: #9bb5f0; stroke: #ffffff; stroke-linejoin: miter"/>
   </g>
   <g id="patch_5">
    <path d="M 157.224156 311.94 
L 170.221558 311.94 
L 170.221558 96.194316 
L 157.224156 96.194316 
z
" clip-path="url(#pbf929f6674)" style="fill: #9bb5f0; stroke: #ffffff; stroke-linejoin: miter"/>
   </g>
   <g id="patch_6">
    <path d="M 72.741039 311.94 
L 85.738442 311.94 
L 85.738442 263.338707 
L 72.741039 263.338707 
z
" clip-path="url(#pbf929f6674)" style="fill: #dddcdc; stroke: #ffffff; stroke-linejoin: miter"/>
   </g>
   <g id="patch_7">
    <path d="M 121.481299 311.94 
L 134.478701 311.94 
L 134.478701 247.643105 
L 121.481299 247.643105 
z
" clip-path="url(#pbf929f6674)" style="fill: #dddcdc; stroke: #ffffff; stroke-linejoin: miter"/>
   </g>
   <g id="patch_8">
    <path d="M 170.221558 311.94 
L 183.218961 311.94 
L 183.218961 144.657928 
L 170.221558 144.657928 
z
" clip-path="url(#pbf929f6674)" style="fill: #dddcdc; stroke: #ffffff; stroke-linejoin: miter"/>
   </g>
   <g id="patch_9">
    <path d="M 85.738442 311.94 
L 98.735844 311.94 
L 98.735844 253.838737 
L 85.738442 253.838737 
z
" clip-path="url(#pbf929f6674)" style="fill: #e5a089; stroke: #ffffff; stroke-linejoin: miter"/>
   </g>
   <g id="patch_10">
    <path d="M 134.478701 311.94 
L 147.476104 311.94 
L 147.476104 234.425756 
L 134.478701 234.425756 
z
" clip-path="url(#pbf929f6674)" style="fill: #e5a089; stroke: #ffffff; stroke-linejoin: miter"/>
   </g>
   <g id="patch_11">
    <path d="M 183.218961 311.94 
L 196.216364 311.94 
L 196.216364 128.686965 
L 183.218961 128.686965 
z
" clip-path="url(#pbf929f6674)" style="fill: #e5a089; stroke: #ffffff; stroke-linejoin: miter"/>
   </g>
   <g id="patch_12">
    <path d="M 79.23974 311.94 
L 79.23974 311.94 
L 79.23974 311.94 
L 79.23974 311.94 
z
" clip-path="url(#pbf929f6674)" style="fill: #9bb5f0; stroke: #ffffff; stroke-linejoin: miter"/>
   </g>
   <g id="patch_13">
    <path d="M 79.23974 311.94 
L 79.23974 311.94 
L 79.23974 311.94 
L 79.23974 311.94 
z
" clip-path="url(#pbf929f6674)" style="fill: #dddcdc; stroke: #ffffff; stroke-linejoin: miter"/>
   </g>
   <g id="patch_14">
    <path d="M 79.23974 311.94 
L 79.23974 311.94 
L 79.23974 311.94 
L 79.23974 311.94 
z
" clip-path="url(#pbf929f6674)" style="fill: #e5a089; stroke: #ffffff; stroke-linejoin: miter"/>
   </g>
   <g id="line2d_1">
    <path d="M 66.242338 243.664101 
L 66.242338 237.578676 
" clip-path="url(#pbf929f6674)" style="fill: none; stroke: #424242; stroke-width: 2.25; stroke-linecap: round"/>
   </g>
   <g id="line2d_2">
    <path d="M 114.982597 224.259291 
L 114.982597 215.54159 
" clip-path="url(#pbf929f6674)" style="fill: none; stroke: #424242; stroke-width: 2.25; stroke-linecap: round"/>
   </g>
   <g id="line2d_3">
    <path d="M 163.722857 100.371286 
L 163.722857 92.017345 
" clip-path="url(#pbf929f6674)" style="fill: none; stroke: #424242; stroke-width: 2.25; stroke-linecap: round"/>
   </g>
   <g id="line2d_4">
    <path d="M 79.23974 263.815647 
L 79.23974 262.861767 
" clip-path="url(#pbf929f6674)" style="fill: none; stroke: #424242; stroke-width: 2.25; stroke-linecap: round"/>
   </g>
   <g id="line2d_5">
    <path d="M 127.98 247.881575 
L 127.98 247.404635 
" clip-path="url(#pbf929f6674)" style="fill: none; stroke: #424242; stroke-width: 2.25; stroke-linecap: round"/>
   </g>
   <g id="line2d_6">
    <path d="M 176.72026 153.400383 
L 176.72026 135.915474 
" clip-path="url(#pbf929f6674)" style="fill: none; stroke: #424242; stroke-width: 2.25; stroke-linecap: round"/>
   </g>
   <g id="line2d_7">
    <path d="M 92.237143 258.625989 
L 92.237143 249.051485 
" clip-path="url(#pbf929f6674)" style="fill: none; stroke: #424242; stroke-width: 2.25; stroke-linecap: round"/>
   </g>
   <g id="line2d_8">
    <path d="M 140.977403 238.263567 
L 140.977403 230.587945 
" clip-path="url(#pbf929f6674)" style="fill: none; stroke: #424242; stroke-width: 2.25; stroke-linecap: round"/>
   </g>
   <g id="line2d_9">
    <path d="M 189.717662 130.250717 
L 189.717662 127.123213 
" clip-path="url(#pbf929f6674)" style="fill: none; stroke: #424242; stroke-width: 2.25; stroke-linecap: round"/>
   </g>
   <g id="line2d_10">
    <path d="M 114.982597 201.686462 
L 114.982597 197.068087 
L 127.98 197.068087 
L 127.98 201.686462 
" style="fill: none; stroke: #333333; stroke-width: 1.5; stroke-linecap: round"/>
   </g>
   <g id="line2d_11">
    <path d="M 163.722857 78.162218 
L 163.722857 73.543842 
L 176.72026 73.543842 
L 176.72026 78.162218 
" style="fill: none; stroke: #333333; stroke-width: 1.5; stroke-linecap: round"/>
   </g>
   <g id="line2d_12">
    <path d="M 66.242338 223.723548 
L 66.242338 219.105173 
L 79.23974 219.105173 
L 79.23974 223.723548 
" style="fill: none; stroke: #333333; stroke-width: 1.5; stroke-linecap: round"/>
   </g>
   <g id="line2d_13">
    <path d="M 114.982597 176.808545 
L 114.982597 172.190169 
L 140.977403 172.190169 
L 140.977403 176.808545 
" style="fill: none; stroke: #333333; stroke-width: 1.5; stroke-linecap: round"/>
   </g>
   <g id="line2d_14">
    <path d="M 163.722857 53.2843 
L 163.722857 48.665925 
L 189.717662 48.665925 
L 189.717662 53.2843 
" style="fill: none; stroke: #333333; stroke-width: 1.5; stroke-linecap: round"/>
   </g>
   <g id="line2d_15">
    <path d="M 66.242338 198.845631 
L 66.242338 194.227255 
L 92.237143 194.227255 
L 92.237143 198.845631 
" style="fill: none; stroke: #333333; stroke-width: 1.5; stroke-linecap: round"/>
   </g>
   <g id="patch_15">
    <path d="M 52.92 311.94 
L 52.92 27.6 
" style="fill: none; stroke: #262626; stroke-width: 1.25; stroke-linejoin: miter; stroke-linecap: square"/>
   </g>
   <g id="patch_16">
    <path d="M 203.04 311.94 
L 203.04 27.6 
" style="fill: none; stroke: #262626; stroke-width: 1.25; stroke-linejoin: miter; stroke-linecap: square"/>
   </g>
   <g id="patch_17">
    <path d="M 52.92 311.94 
L 203.04 311.94 
" style="fill: none; stroke: #262626; stroke-width: 1.25; stroke-linejoin: miter; stroke-linecap: square"/>
   </g>
   <g id="patch_18">
    <path d="M 52.92 27.6 
L 203.04 27.6 
" style="fill: none; stroke: #262626; stroke-width: 1.25; stroke-linejoin: miter; stroke-linecap: square"/>
   </g>
   <g id="text_13">
    <!-- **** -->
    <g style="fill: #262626" transform="translate(112.140049 193.683087) scale(0.12 -0.12)">
     <defs>
      <path id="ArialMT-2a" d="M 200 3741 
L 344 4184 
Q 841 4009 1066 3881 
Q 1006 4447 1003 4659 
L 1456 4659 
Q 1447 4350 1384 3884 
Q 1706 4047 2122 4184 
L 2266 3741 
Q 1869 3609 1488 3566 
Q 1678 3400 2025 2975 
L 1650 2709 
Q 1469 2956 1222 3381 
Q 991 2941 816 2709 
L 447 2975 
Q 809 3422 966 3566 
Q 563 3644 200 3741 
z
" transform="scale(0.015625)"/>
     </defs>
     <use xlink:href="#ArialMT-2a"/>
     <use xlink:href="#ArialMT-2a" x="38.916016"/>
     <use xlink:href="#ArialMT-2a" x="77.832031"/>
     <use xlink:href="#ArialMT-2a" x="116.748047"/>
    </g>
   </g>
   <g id="text_14">
    <!-- **** -->
    <g style="fill: #262626" transform="translate(160.880308 70.158842) scale(0.12 -0.12)">
     <use xlink:href="#ArialMT-2a"/>
     <use xlink:href="#ArialMT-2a" x="38.916016"/>
     <use xlink:href="#ArialMT-2a" x="77.832031"/>
     <use xlink:href="#ArialMT-2a" x="116.748047"/>
    </g>
   </g>
   <g id="text_15">
    <!-- **** -->
    <g style="fill: #262626" transform="translate(63.399789 215.720173) scale(0.12 -0.12)">
     <use xlink:href="#ArialMT-2a"/>
     <use xlink:href="#ArialMT-2a" x="38.916016"/>
     <use xlink:href="#ArialMT-2a" x="77.832031"/>
     <use xlink:href="#ArialMT-2a" x="116.748047"/>
    </g>
   </g>
   <g id="text_16">
    <!-- ** -->
    <g style="fill: #262626" transform="translate(123.309375 168.805169) scale(0.12 -0.12)">
     <use xlink:href="#ArialMT-2a"/>
     <use xlink:href="#ArialMT-2a" x="38.916016"/>
    </g>
   </g>
   <g id="text_17">
    <!-- **** -->
    <g style="fill: #262626" transform="translate(167.37901 45.280925) scale(0.12 -0.12)">
     <use xlink:href="#ArialMT-2a"/>
     <use xlink:href="#ArialMT-2a" x="38.916016"/>
     <use xlink:href="#ArialMT-2a" x="77.832031"/>
     <use xlink:href="#ArialMT-2a" x="116.748047"/>
    </g>
   </g>
   <g id="text_18">
    <!-- ** -->
    <g style="fill: #262626" transform="translate(74.569115 190.842255) scale(0.12 -0.12)">
     <use xlink:href="#ArialMT-2a"/>
     <use xlink:href="#ArialMT-2a" x="38.916016"/>
    </g>
   </g>
   <g id="text_19">
    <!-- Klebsiella pneumoniae -->
    <g style="fill: #262626" transform="translate(67.60875 21.6) scale(0.12 -0.12)">
     <defs>
      <path id="Arial-ItalicMT-4b" d="M 284 0 
L 1241 4581 
L 1853 4581 
L 1394 2375 
L 3881 4581 
L 4744 4581 
L 2616 2716 
L 4175 0 
L 3491 0 
L 2169 2322 
L 1209 1488 
L 897 0 
L 284 0 
z
" transform="scale(0.015625)"/>
      <path id="Arial-ItalicMT-6c" d="M 169 0 
L 1125 4581 
L 1691 4581 
L 734 0 
L 169 0 
z
" transform="scale(0.015625)"/>
      <path id="Arial-ItalicMT-65" d="M 2650 1128 
L 3200 1072 
Q 3081 663 2654 294 
Q 2228 -75 1638 -75 
Q 1269 -75 961 95 
Q 653 266 492 591 
Q 331 916 331 1331 
Q 331 1875 582 2386 
Q 834 2897 1234 3145 
Q 1634 3394 2100 3394 
Q 2694 3394 3048 3025 
Q 3403 2656 3403 2019 
Q 3403 1775 3359 1519 
L 916 1519 
Q 903 1422 903 1344 
Q 903 878 1117 633 
Q 1331 388 1641 388 
Q 1931 388 2212 578 
Q 2494 769 2650 1128 
z
M 1006 1950 
L 2869 1950 
Q 2872 2038 2872 2075 
Q 2872 2500 2659 2726 
Q 2447 2953 2113 2953 
Q 1750 2953 1451 2703 
Q 1153 2453 1006 1950 
z
" transform="scale(0.015625)"/>
      <path id="Arial-ItalicMT-62" d="M 213 0 
L 1169 4581 
L 1734 4581 
L 1394 2944 
Q 1663 3191 1881 3292 
Q 2100 3394 2338 3394 
Q 2803 3394 3114 3047 
Q 3425 2700 3425 2038 
Q 3425 1597 3300 1231 
Q 3175 866 2990 617 
Q 2806 369 2609 220 
Q 2413 72 2206 -1 
Q 2000 -75 1809 -75 
Q 1481 -75 1231 98 
Q 981 272 841 628 
L 709 0 
L 213 0 
z
M 1050 1363 
L 1047 1256 
Q 1047 831 1250 609 
Q 1453 388 1756 388 
Q 2053 388 2301 595 
Q 2550 803 2709 1243 
Q 2869 1684 2869 2056 
Q 2869 2475 2667 2706 
Q 2466 2938 2169 2938 
Q 1863 2938 1606 2702 
Q 1350 2466 1178 1975 
Q 1050 1609 1050 1363 
z
" transform="scale(0.015625)"/>
      <path id="Arial-ItalicMT-73" d="M 266 1134 
L 831 1169 
Q 831 925 906 753 
Q 981 581 1182 472 
Q 1384 363 1653 363 
Q 2028 363 2215 513 
Q 2403 663 2403 866 
Q 2403 1013 2291 1144 
Q 2175 1275 1726 1467 
Q 1278 1659 1153 1738 
Q 944 1866 837 2039 
Q 731 2213 731 2438 
Q 731 2831 1043 3112 
Q 1356 3394 1919 3394 
Q 2544 3394 2870 3105 
Q 3197 2816 3209 2344 
L 2656 2306 
Q 2644 2606 2444 2781 
Q 2244 2956 1878 2956 
Q 1584 2956 1421 2822 
Q 1259 2688 1259 2531 
Q 1259 2375 1400 2256 
Q 1494 2175 1884 2006 
Q 2534 1725 2703 1563 
Q 2972 1303 2972 931 
Q 2972 684 2820 446 
Q 2669 209 2358 67 
Q 2047 -75 1625 -75 
Q 1050 -75 647 209 
Q 244 494 266 1134 
z
" transform="scale(0.015625)"/>
      <path id="Arial-ItalicMT-69" d="M 1016 3941 
L 1150 4581 
L 1713 4581 
L 1578 3941 
L 1016 3941 
z
M 191 0 
L 884 3319 
L 1450 3319 
L 756 0 
L 191 0 
z
" transform="scale(0.015625)"/>
      <path id="Arial-ItalicMT-61" d="M 2450 413 
Q 2156 159 1884 42 
Q 1613 -75 1303 -75 
Q 844 -75 562 195 
Q 281 466 281 888 
Q 281 1166 407 1380 
Q 534 1594 743 1723 
Q 953 1853 1256 1909 
Q 1447 1947 1980 1969 
Q 2513 1991 2744 2081 
Q 2809 2313 2809 2466 
Q 2809 2663 2666 2775 
Q 2469 2931 2091 2931 
Q 1734 2931 1507 2773 
Q 1281 2616 1178 2325 
L 606 2375 
Q 781 2869 1161 3131 
Q 1541 3394 2119 3394 
Q 2734 3394 3094 3100 
Q 3369 2881 3369 2531 
Q 3369 2266 3291 1916 
L 3106 1091 
Q 3019 697 3019 450 
Q 3019 294 3088 0 
L 2516 0 
Q 2469 163 2450 413 
z
M 2659 1681 
Q 2541 1634 2405 1609 
Q 2269 1584 1950 1556 
Q 1456 1513 1253 1445 
Q 1050 1378 947 1231 
Q 844 1084 844 906 
Q 844 669 1008 516 
Q 1172 363 1475 363 
Q 1756 363 2015 511 
Q 2275 659 2425 925 
Q 2575 1191 2659 1681 
z
" transform="scale(0.015625)"/>
      <path id="Arial-ItalicMT-20" transform="scale(0.015625)"/>
      <path id="Arial-ItalicMT-70" d="M -66 -1272 
L 894 3319 
L 1416 3319 
L 1319 2856 
Q 1609 3159 1839 3276 
Q 2069 3394 2325 3394 
Q 2800 3394 3112 3048 
Q 3425 2703 3425 2059 
Q 3425 1541 3253 1114 
Q 3081 688 2831 428 
Q 2581 169 2325 47 
Q 2069 -75 1800 -75 
Q 1203 -75 875 531 
L 500 -1272 
L -66 -1272 
z
M 1053 1356 
Q 1053 984 1106 841 
Q 1184 638 1362 513 
Q 1541 388 1775 388 
Q 2263 388 2563 936 
Q 2863 1484 2863 2056 
Q 2863 2478 2661 2708 
Q 2459 2938 2159 2938 
Q 1944 2938 1759 2823 
Q 1575 2709 1417 2482 
Q 1259 2256 1156 1928 
Q 1053 1600 1053 1356 
z
" transform="scale(0.015625)"/>
      <path id="Arial-ItalicMT-6e" d="M 213 0 
L 906 3319 
L 1419 3319 
L 1297 2741 
Q 1631 3081 1922 3237 
Q 2213 3394 2516 3394 
Q 2919 3394 3148 3175 
Q 3378 2956 3378 2591 
Q 3378 2406 3297 2009 
L 2875 0 
L 2309 0 
L 2750 2103 
Q 2816 2409 2816 2556 
Q 2816 2722 2702 2825 
Q 2588 2928 2372 2928 
Q 1938 2928 1598 2615 
Q 1259 2303 1100 1544 
L 778 0 
L 213 0 
z
" transform="scale(0.015625)"/>
      <path id="Arial-ItalicMT-75" d="M 2478 600 
Q 1881 -75 1256 -75 
Q 872 -75 636 145 
Q 400 366 400 684 
Q 400 894 506 1403 
L 906 3319 
L 1472 3319 
L 1028 1197 
Q 972 931 972 784 
Q 972 597 1086 492 
Q 1200 388 1422 388 
Q 1659 388 1886 503 
Q 2113 619 2277 816 
Q 2441 1013 2544 1281 
Q 2613 1453 2703 1884 
L 3003 3319 
L 3569 3319 
L 2875 0 
L 2353 0 
L 2478 600 
z
" transform="scale(0.015625)"/>
      <path id="Arial-ItalicMT-6d" d="M 209 0 
L 903 3319 
L 1469 3319 
L 1353 2772 
Q 1669 3125 1917 3259 
Q 2166 3394 2456 3394 
Q 2766 3394 2973 3230 
Q 3181 3066 3247 2772 
Q 3500 3084 3779 3239 
Q 4059 3394 4369 3394 
Q 4784 3394 4992 3197 
Q 5200 3000 5200 2644 
Q 5200 2491 5128 2138 
L 4681 0 
L 4116 0 
L 4572 2194 
Q 4631 2463 4631 2578 
Q 4631 2741 4528 2834 
Q 4425 2928 4238 2928 
Q 3984 2928 3721 2775 
Q 3459 2622 3314 2373 
Q 3169 2125 3059 1609 
L 2722 0 
L 2156 0 
L 2625 2241 
Q 2675 2469 2675 2566 
Q 2675 2728 2573 2828 
Q 2472 2928 2309 2928 
Q 2069 2928 1805 2775 
Q 1541 2622 1375 2348 
Q 1209 2075 1103 1569 
L 775 0 
L 209 0 
z
" transform="scale(0.015625)"/>
      <path id="Arial-ItalicMT-6f" d="M 313 1259 
Q 313 2231 884 2869 
Q 1356 3394 2122 3394 
Q 2722 3394 3089 3019 
Q 3456 2644 3456 2006 
Q 3456 1434 3225 942 
Q 2994 450 2567 187 
Q 2141 -75 1669 -75 
Q 1281 -75 964 90 
Q 647 256 480 559 
Q 313 863 313 1259 
z
M 878 1316 
Q 878 847 1103 605 
Q 1328 363 1675 363 
Q 1856 363 2034 436 
Q 2213 509 2366 659 
Q 2519 809 2626 1001 
Q 2734 1194 2800 1416 
Q 2897 1725 2897 2009 
Q 2897 2459 2670 2707 
Q 2444 2956 2100 2956 
Q 1834 2956 1615 2829 
Q 1397 2703 1220 2459 
Q 1044 2216 961 1892 
Q 878 1569 878 1316 
z
" transform="scale(0.015625)"/>
     </defs>
     <use xlink:href="#Arial-ItalicMT-4b"/>
     <use xlink:href="#Arial-ItalicMT-6c" x="66.699219"/>
     <use xlink:href="#Arial-ItalicMT-65" x="88.916016"/>
     <use xlink:href="#Arial-ItalicMT-62" x="144.53125"/>
     <use xlink:href="#Arial-ItalicMT-73" x="200.146484"/>
     <use xlink:href="#Arial-ItalicMT-69" x="250.146484"/>
     <use xlink:href="#Arial-ItalicMT-65" x="272.363281"/>
     <use xlink:href="#Arial-ItalicMT-6c" x="327.978516"/>
     <use xlink:href="#Arial-ItalicMT-6c" x="350.195312"/>
     <use xlink:href="#Arial-ItalicMT-61" x="372.412109"/>
     <use xlink:href="#Arial-ItalicMT-20" x="428.027344"/>
     <use xlink:href="#Arial-ItalicMT-70" x="455.810547"/>
     <use xlink:href="#Arial-ItalicMT-6e" x="511.425781"/>
     <use xlink:href="#Arial-ItalicMT-65" x="567.041016"/>
     <use xlink:href="#Arial-ItalicMT-75" x="622.65625"/>
     <use xlink:href="#Arial-ItalicMT-6d" x="678.271484"/>
     <use xlink:href="#Arial-ItalicMT-6f" x="761.572266"/>
     <use xlink:href="#Arial-ItalicMT-6e" x="817.1875"/>
     <use xlink:href="#Arial-ItalicMT-69" x="872.802734"/>
     <use xlink:href="#Arial-ItalicMT-61" x="895.019531"/>
     <use xlink:href="#Arial-ItalicMT-65" x="950.634766"/>
    </g>
   </g>
   <g id="legend_1">
    <g id="patch_19">
     <path d="M 57.7836 62.642889 
L 102.413644 62.642889 
Q 103.803244 62.642889 103.803244 61.253289 
L 103.803244 32.4636 
Q 103.803244 31.074 102.413644 31.074 
L 57.7836 31.074 
Q 56.394 31.074 56.394 32.4636 
L 56.394 61.253289 
Q 56.394 62.642889 57.7836 62.642889 
z
" style="fill: #ffffff; opacity: 0.8; stroke: #cccccc; stroke-linejoin: miter"/>
    </g>
    <g id="patch_20">
     <path d="M 59.1732 38.826448 
L 73.0692 38.826448 
L 73.0692 33.962848 
L 59.1732 33.962848 
z
" style="fill: #9bb5f0; stroke: #ffffff; stroke-linejoin: miter"/>
    </g>
    <g id="text_20">
     <!-- Control -->
     <g style="fill: #262626" transform="translate(78.6276 38.826448) scale(0.06948 -0.06948)">
      <defs>
       <path id="ArialMT-43" d="M 3763 1606 
L 4369 1453 
Q 4178 706 3683 314 
Q 3188 -78 2472 -78 
Q 1731 -78 1267 223 
Q 803 525 561 1097 
Q 319 1669 319 2325 
Q 319 3041 592 3573 
Q 866 4106 1370 4382 
Q 1875 4659 2481 4659 
Q 3169 4659 3637 4309 
Q 4106 3959 4291 3325 
L 3694 3184 
Q 3534 3684 3231 3912 
Q 2928 4141 2469 4141 
Q 1941 4141 1586 3887 
Q 1231 3634 1087 3207 
Q 944 2781 944 2328 
Q 944 1744 1114 1308 
Q 1284 872 1643 656 
Q 2003 441 2422 441 
Q 2931 441 3284 734 
Q 3638 1028 3763 1606 
z
" transform="scale(0.015625)"/>
       <path id="ArialMT-6e" d="M 422 0 
L 422 3319 
L 928 3319 
L 928 2847 
Q 1294 3394 1984 3394 
Q 2284 3394 2536 3286 
Q 2788 3178 2913 3003 
Q 3038 2828 3088 2588 
Q 3119 2431 3119 2041 
L 3119 0 
L 2556 0 
L 2556 2019 
Q 2556 2363 2490 2533 
Q 2425 2703 2258 2804 
Q 2091 2906 1866 2906 
Q 1506 2906 1245 2678 
Q 984 2450 984 1813 
L 984 0 
L 422 0 
z
" transform="scale(0.015625)"/>
       <path id="ArialMT-74" d="M 1650 503 
L 1731 6 
Q 1494 -44 1306 -44 
Q 1000 -44 831 53 
Q 663 150 594 308 
Q 525 466 525 972 
L 525 2881 
L 113 2881 
L 113 3319 
L 525 3319 
L 525 4141 
L 1084 4478 
L 1084 3319 
L 1650 3319 
L 1650 2881 
L 1084 2881 
L 1084 941 
Q 1084 700 1114 631 
Q 1144 563 1211 522 
Q 1278 481 1403 481 
Q 1497 481 1650 503 
z
" transform="scale(0.015625)"/>
      </defs>
      <use xlink:href="#ArialMT-43"/>
      <use xlink:href="#ArialMT-6f" x="72.216797"/>
      <use xlink:href="#ArialMT-6e" x="127.832031"/>
      <use xlink:href="#ArialMT-74" x="183.447266"/>
      <use xlink:href="#ArialMT-72" x="211.230469"/>
      <use xlink:href="#ArialMT-6f" x="244.53125"/>
      <use xlink:href="#ArialMT-6c" x="300.146484"/>
     </g>
    </g>
    <g id="patch_21">
     <path d="M 59.1732 48.654611 
L 73.0692 48.654611 
L 73.0692 43.791011 
L 59.1732 43.791011 
z
" style="fill: #dddcdc; stroke: #ffffff; stroke-linejoin: miter"/>
    </g>
    <g id="text_21">
     <!-- ADR1 -->
     <g style="fill: #262626" transform="translate(78.6276 48.654611) scale(0.06948 -0.06948)">
      <defs>
       <path id="ArialMT-41" d="M -9 0 
L 1750 4581 
L 2403 4581 
L 4278 0 
L 3588 0 
L 3053 1388 
L 1138 1388 
L 634 0 
L -9 0 
z
M 1313 1881 
L 2866 1881 
L 2388 3150 
Q 2169 3728 2063 4100 
Q 1975 3659 1816 3225 
L 1313 1881 
z
" transform="scale(0.015625)"/>
       <path id="ArialMT-52" d="M 503 0 
L 503 4581 
L 2534 4581 
Q 3147 4581 3465 4457 
Q 3784 4334 3975 4021 
Q 4166 3709 4166 3331 
Q 4166 2844 3850 2509 
Q 3534 2175 2875 2084 
Q 3116 1969 3241 1856 
Q 3506 1613 3744 1247 
L 4541 0 
L 3778 0 
L 3172 953 
Q 2906 1366 2734 1584 
Q 2563 1803 2427 1890 
Q 2291 1978 2150 2013 
Q 2047 2034 1813 2034 
L 1109 2034 
L 1109 0 
L 503 0 
z
M 1109 2559 
L 2413 2559 
Q 2828 2559 3062 2645 
Q 3297 2731 3419 2920 
Q 3541 3109 3541 3331 
Q 3541 3656 3305 3865 
Q 3069 4075 2559 4075 
L 1109 4075 
L 1109 2559 
z
" transform="scale(0.015625)"/>
      </defs>
      <use xlink:href="#ArialMT-41"/>
      <use xlink:href="#ArialMT-44" x="66.699219"/>
      <use xlink:href="#ArialMT-52" x="138.916016"/>
      <use xlink:href="#ArialMT-31" x="211.132812"/>
     </g>
    </g>
    <g id="patch_22">
     <path d="M 59.1732 58.482774 
L 73.0692 58.482774 
L 73.0692 53.619174 
L 59.1732 53.619174 
z
" style="fill: #e5a089; stroke: #ffffff; stroke-linejoin: miter"/>
    </g>
    <g id="text_22">
     <!-- ADR2 -->
     <g style="fill: #262626" transform="translate(78.6276 58.482774) scale(0.06948 -0.06948)">
      <use xlink:href="#ArialMT-41"/>
      <use xlink:href="#ArialMT-44" x="66.699219"/>
      <use xlink:href="#ArialMT-52" x="138.916016"/>
      <use xlink:href="#ArialMT-32" x="211.132812"/>
     </g>
    </g>
   </g>
  </g>
 </g>
 <defs>
  <clipPath id="pbf929f6674">
   <rect x="52.92" y="27.6" width="150.12" height="284.34"/>
  </clipPath>
 </defs>
</svg>
