<?xml version="1.0" encoding="utf-8" standalone="no"?>
<!DOCTYPE svg PUBLIC "-//W3C//DTD SVG 1.1//EN"
  "http://www.w3.org/Graphics/SVG/1.1/DTD/svg11.dtd">
<svg xmlns:xlink="http://www.w3.org/1999/xlink" width="360pt" height="360pt" viewBox="0 0 360 360" xmlns="http://www.w3.org/2000/svg" version="1.1">
 <metadata>
  <rdf:RDF xmlns:dc="http://purl.org/dc/elements/1.1/" xmlns:cc="http://creativecommons.org/ns#" xmlns:rdf="http://www.w3.org/1999/02/22-rdf-syntax-ns#">
   <cc:Work>
    <dc:type rdf:resource="http://purl.org/dc/dcmitype/StillImage"/>
    <dc:date>2025-05-13T22:25:13.838567</dc:date>
    <dc:format>image/svg+xml</dc:format>
    <dc:creator>
     <cc:Agent>
      <dc:title>Matplotlib v3.10.0, https://matplotlib.org/</dc:title>
     </cc:Agent>
    </dc:creator>
   </cc:Work>
  </rdf:RDF>
 </metadata>
 <defs>
  <style type="text/css">*{stroke-linejoin: round; stroke-linecap: butt}</style>
 </defs>
 <g id="figure_1">
  <g id="patch_1">
   <path d="M 0 360 
L 360 360 
L 360 0 
L 0 0 
z
" style="fill: #ffffff"/>
  </g>
  <g id="axes_1">
   <g id="patch_2">
    <path d="M 48.2375 332.84 
L 349.2 332.84 
L 349.2 25.51875 
L 48.2375 25.51875 
z
" style="fill: #ffffff"/>
   </g>
   <g id="matplotlib.axis_1">
    <g id="xtick_1">
     <g id="text_1">
      <!-- Our AMPs -->
      <g style="fill: #262626" transform="translate(98.736087 346.997813) scale(0.1 -0.1)">
       <defs>
        <path id="Arial-BoldMT-4f" d="M 278 2263 
Q 278 2963 488 3438 
Q 644 3788 914 4066 
Q 1184 4344 1506 4478 
Q 1934 4659 2494 4659 
Q 3506 4659 4114 4031 
Q 4722 3403 4722 2284 
Q 4722 1175 4119 548 
Q 3516 -78 2506 -78 
Q 1484 -78 881 545 
Q 278 1169 278 2263 
z
M 1231 2294 
Q 1231 1516 1590 1114 
Q 1950 713 2503 713 
Q 3056 713 3411 1111 
Q 3766 1509 3766 2306 
Q 3766 3094 3420 3481 
Q 3075 3869 2503 3869 
Q 1931 3869 1581 3476 
Q 1231 3084 1231 2294 
z
" transform="scale(0.015625)"/>
        <path id="Arial-BoldMT-75" d="M 2644 0 
L 2644 497 
Q 2463 231 2167 78 
Q 1872 -75 1544 -75 
Q 1209 -75 943 72 
Q 678 219 559 484 
Q 441 750 441 1219 
L 441 3319 
L 1319 3319 
L 1319 1794 
Q 1319 1094 1367 936 
Q 1416 778 1544 686 
Q 1672 594 1869 594 
Q 2094 594 2272 717 
Q 2450 841 2515 1023 
Q 2581 1206 2581 1919 
L 2581 3319 
L 3459 3319 
L 3459 0 
L 2644 0 
z
" transform="scale(0.015625)"/>
        <path id="Arial-BoldMT-72" d="M 1300 0 
L 422 0 
L 422 3319 
L 1238 3319 
L 1238 2847 
Q 1447 3181 1614 3287 
Q 1781 3394 1994 3394 
Q 2294 3394 2572 3228 
L 2300 2463 
Q 2078 2606 1888 2606 
Q 1703 2606 1575 2504 
Q 1447 2403 1373 2137 
Q 1300 1872 1300 1025 
L 1300 0 
z
" transform="scale(0.015625)"/>
        <path id="Arial-BoldMT-20" transform="scale(0.015625)"/>
        <path id="Arial-BoldMT-41" d="M 4597 0 
L 3591 0 
L 3191 1041 
L 1359 1041 
L 981 0 
L 0 0 
L 1784 4581 
L 2763 4581 
L 4597 0 
z
M 2894 1813 
L 2263 3513 
L 1644 1813 
L 2894 1813 
z
" transform="scale(0.015625)"/>
        <path id="Arial-BoldMT-4d" d="M 453 0 
L 453 4581 
L 1838 4581 
L 2669 1456 
L 3491 4581 
L 4878 4581 
L 4878 0 
L 4019 0 
L 4019 3606 
L 3109 0 
L 2219 0 
L 1313 3606 
L 1313 0 
L 453 0 
z
" transform="scale(0.015625)"/>
        <path id="Arial-BoldMT-50" d="M 466 0 
L 466 4581 
L 1950 4581 
Q 2794 4581 3050 4513 
Q 3444 4409 3709 4064 
Q 3975 3719 3975 3172 
Q 3975 2750 3822 2462 
Q 3669 2175 3433 2011 
Q 3197 1847 2953 1794 
Q 2622 1728 1994 1728 
L 1391 1728 
L 1391 0 
L 466 0 
z
M 1391 3806 
L 1391 2506 
L 1897 2506 
Q 2444 2506 2628 2578 
Q 2813 2650 2917 2803 
Q 3022 2956 3022 3159 
Q 3022 3409 2875 3571 
Q 2728 3734 2503 3775 
Q 2338 3806 1838 3806 
L 1391 3806 
z
" transform="scale(0.015625)"/>
        <path id="Arial-BoldMT-73" d="M 150 947 
L 1031 1081 
Q 1088 825 1259 692 
Q 1431 559 1741 559 
Q 2081 559 2253 684 
Q 2369 772 2369 919 
Q 2369 1019 2306 1084 
Q 2241 1147 2013 1200 
Q 950 1434 666 1628 
Q 272 1897 272 2375 
Q 272 2806 612 3100 
Q 953 3394 1669 3394 
Q 2350 3394 2681 3172 
Q 3013 2950 3138 2516 
L 2309 2363 
Q 2256 2556 2107 2659 
Q 1959 2763 1684 2763 
Q 1338 2763 1188 2666 
Q 1088 2597 1088 2488 
Q 1088 2394 1175 2328 
Q 1294 2241 1995 2081 
Q 2697 1922 2975 1691 
Q 3250 1456 3250 1038 
Q 3250 581 2869 253 
Q 2488 -75 1741 -75 
Q 1063 -75 667 200 
Q 272 475 150 947 
z
" transform="scale(0.015625)"/>
       </defs>
       <use xlink:href="#Arial-BoldMT-4f"/>
       <use xlink:href="#Arial-BoldMT-75" transform="translate(77.783203 0)"/>
       <use xlink:href="#Arial-BoldMT-72" transform="translate(138.867188 0)"/>
       <use xlink:href="#Arial-BoldMT-20" transform="translate(177.783203 0)"/>
       <use xlink:href="#Arial-BoldMT-41" transform="translate(201.816406 0)"/>
       <use xlink:href="#Arial-BoldMT-4d" transform="translate(274.033203 0)"/>
       <use xlink:href="#Arial-BoldMT-50" transform="translate(357.333984 0)"/>
       <use xlink:href="#Arial-BoldMT-73" transform="translate(424.033203 0)"/>
      </g>
     </g>
    </g>
    <g id="xtick_2">
     <g id="text_2">
      <!-- Microbial AMPs -->
      <g style="fill: #262626" transform="translate(237.679538 346.997813) scale(0.1 -0.1)">
       <defs>
        <path id="Arial-BoldMT-69" d="M 459 3769 
L 459 4581 
L 1338 4581 
L 1338 3769 
L 459 3769 
z
M 459 0 
L 459 3319 
L 1338 3319 
L 1338 0 
L 459 0 
z
" transform="scale(0.015625)"/>
        <path id="Arial-BoldMT-63" d="M 3353 2338 
L 2488 2181 
Q 2444 2441 2289 2572 
Q 2134 2703 1888 2703 
Q 1559 2703 1364 2476 
Q 1169 2250 1169 1719 
Q 1169 1128 1367 884 
Q 1566 641 1900 641 
Q 2150 641 2309 783 
Q 2469 925 2534 1272 
L 3397 1125 
Q 3263 531 2881 228 
Q 2500 -75 1859 -75 
Q 1131 -75 698 384 
Q 266 844 266 1656 
Q 266 2478 700 2936 
Q 1134 3394 1875 3394 
Q 2481 3394 2839 3133 
Q 3197 2872 3353 2338 
z
" transform="scale(0.015625)"/>
        <path id="Arial-BoldMT-6f" d="M 256 1706 
Q 256 2144 472 2553 
Q 688 2963 1083 3178 
Q 1478 3394 1966 3394 
Q 2719 3394 3200 2905 
Q 3681 2416 3681 1669 
Q 3681 916 3195 420 
Q 2709 -75 1972 -75 
Q 1516 -75 1102 131 
Q 688 338 472 736 
Q 256 1134 256 1706 
z
M 1156 1659 
Q 1156 1166 1390 903 
Q 1625 641 1969 641 
Q 2313 641 2545 903 
Q 2778 1166 2778 1666 
Q 2778 2153 2545 2415 
Q 2313 2678 1969 2678 
Q 1625 2678 1390 2415 
Q 1156 2153 1156 1659 
z
" transform="scale(0.015625)"/>
        <path id="Arial-BoldMT-62" d="M 422 0 
L 422 4581 
L 1300 4581 
L 1300 2931 
Q 1706 3394 2263 3394 
Q 2869 3394 3266 2955 
Q 3663 2516 3663 1694 
Q 3663 844 3258 384 
Q 2853 -75 2275 -75 
Q 1991 -75 1714 67 
Q 1438 209 1238 488 
L 1238 0 
L 422 0 
z
M 1294 1731 
Q 1294 1216 1456 969 
Q 1684 619 2063 619 
Q 2353 619 2558 867 
Q 2763 1116 2763 1650 
Q 2763 2219 2556 2470 
Q 2350 2722 2028 2722 
Q 1713 2722 1503 2476 
Q 1294 2231 1294 1731 
z
" transform="scale(0.015625)"/>
        <path id="Arial-BoldMT-61" d="M 1116 2306 
L 319 2450 
Q 453 2931 781 3162 
Q 1109 3394 1756 3394 
Q 2344 3394 2631 3255 
Q 2919 3116 3036 2902 
Q 3153 2688 3153 2116 
L 3144 1091 
Q 3144 653 3186 445 
Q 3228 238 3344 0 
L 2475 0 
Q 2441 88 2391 259 
Q 2369 338 2359 363 
Q 2134 144 1878 34 
Q 1622 -75 1331 -75 
Q 819 -75 523 203 
Q 228 481 228 906 
Q 228 1188 362 1408 
Q 497 1628 739 1745 
Q 981 1863 1438 1950 
Q 2053 2066 2291 2166 
L 2291 2253 
Q 2291 2506 2166 2614 
Q 2041 2722 1694 2722 
Q 1459 2722 1328 2630 
Q 1197 2538 1116 2306 
z
M 2291 1594 
Q 2122 1538 1756 1459 
Q 1391 1381 1278 1306 
Q 1106 1184 1106 997 
Q 1106 813 1243 678 
Q 1381 544 1594 544 
Q 1831 544 2047 700 
Q 2206 819 2256 991 
Q 2291 1103 2291 1419 
L 2291 1594 
z
" transform="scale(0.015625)"/>
        <path id="Arial-BoldMT-6c" d="M 459 0 
L 459 4581 
L 1338 4581 
L 1338 0 
L 459 0 
z
" transform="scale(0.015625)"/>
       </defs>
       <use xlink:href="#Arial-BoldMT-4d"/>
       <use xlink:href="#Arial-BoldMT-69" transform="translate(83.300781 0)"/>
       <use xlink:href="#Arial-BoldMT-63" transform="translate(111.083984 0)"/>
       <use xlink:href="#Arial-BoldMT-72" transform="translate(166.699219 0)"/>
       <use xlink:href="#Arial-BoldMT-6f" transform="translate(205.615234 0)"/>
       <use xlink:href="#Arial-BoldMT-62" transform="translate(266.699219 0)"/>
       <use xlink:href="#Arial-BoldMT-69" transform="translate(327.783203 0)"/>
       <use xlink:href="#Arial-BoldMT-61" transform="translate(355.566406 0)"/>
       <use xlink:href="#Arial-BoldMT-6c" transform="translate(411.181641 0)"/>
       <use xlink:href="#Arial-BoldMT-20" transform="translate(438.964844 0)"/>
       <use xlink:href="#Arial-BoldMT-41" transform="translate(462.998047 0)"/>
       <use xlink:href="#Arial-BoldMT-4d" transform="translate(535.214844 0)"/>
       <use xlink:href="#Arial-BoldMT-50" transform="translate(618.515625 0)"/>
       <use xlink:href="#Arial-BoldMT-73" transform="translate(685.214844 0)"/>
      </g>
     </g>
    </g>
   </g>
   <g id="matplotlib.axis_2">
    <g id="ytick_1">
     <g id="text_3">
      <!-- −30 -->
      <g style="fill: #262626" transform="translate(24.275 327.32794) scale(0.1 -0.1)">
       <defs>
        <path id="ArialMT-2212" d="M 3381 1997 
L 356 1997 
L 356 2522 
L 3381 2522 
L 3381 1997 
z
" transform="scale(0.015625)"/>
        <path id="ArialMT-33" d="M 269 1209 
L 831 1284 
Q 928 806 1161 595 
Q 1394 384 1728 384 
Q 2125 384 2398 659 
Q 2672 934 2672 1341 
Q 2672 1728 2419 1979 
Q 2166 2231 1775 2231 
Q 1616 2231 1378 2169 
L 1441 2663 
Q 1497 2656 1531 2656 
Q 1891 2656 2178 2843 
Q 2466 3031 2466 3422 
Q 2466 3731 2256 3934 
Q 2047 4138 1716 4138 
Q 1388 4138 1169 3931 
Q 950 3725 888 3313 
L 325 3413 
Q 428 3978 793 4289 
Q 1159 4600 1703 4600 
Q 2078 4600 2393 4439 
Q 2709 4278 2876 4000 
Q 3044 3722 3044 3409 
Q 3044 3113 2884 2869 
Q 2725 2625 2413 2481 
Q 2819 2388 3044 2092 
Q 3269 1797 3269 1353 
Q 3269 753 2831 336 
Q 2394 -81 1725 -81 
Q 1122 -81 723 278 
Q 325 638 269 1209 
z
" transform="scale(0.015625)"/>
        <path id="ArialMT-30" d="M 266 2259 
Q 266 3072 433 3567 
Q 600 4063 929 4331 
Q 1259 4600 1759 4600 
Q 2128 4600 2406 4451 
Q 2684 4303 2865 4023 
Q 3047 3744 3150 3342 
Q 3253 2941 3253 2259 
Q 3253 1453 3087 958 
Q 2922 463 2592 192 
Q 2263 -78 1759 -78 
Q 1097 -78 719 397 
Q 266 969 266 2259 
z
M 844 2259 
Q 844 1131 1108 757 
Q 1372 384 1759 384 
Q 2147 384 2411 759 
Q 2675 1134 2675 2259 
Q 2675 3391 2411 3762 
Q 2147 4134 1753 4134 
Q 1366 4134 1134 3806 
Q 844 3388 844 2259 
z
" transform="scale(0.015625)"/>
       </defs>
       <use xlink:href="#ArialMT-2212"/>
       <use xlink:href="#ArialMT-33" transform="translate(58.398438 0)"/>
       <use xlink:href="#ArialMT-30" transform="translate(114.013672 0)"/>
      </g>
     </g>
    </g>
    <g id="ytick_2">
     <g id="text_4">
      <!-- −20 -->
      <g style="fill: #262626" transform="translate(24.275 270.302994) scale(0.1 -0.1)">
       <defs>
        <path id="ArialMT-32" d="M 3222 541 
L 3222 0 
L 194 0 
Q 188 203 259 391 
Q 375 700 629 1000 
Q 884 1300 1366 1694 
Q 2113 2306 2375 2664 
Q 2638 3022 2638 3341 
Q 2638 3675 2398 3904 
Q 2159 4134 1775 4134 
Q 1369 4134 1125 3890 
Q 881 3647 878 3216 
L 300 3275 
Q 359 3922 746 4261 
Q 1134 4600 1788 4600 
Q 2447 4600 2831 4234 
Q 3216 3869 3216 3328 
Q 3216 3053 3103 2787 
Q 2991 2522 2730 2228 
Q 2469 1934 1863 1422 
Q 1356 997 1212 845 
Q 1069 694 975 541 
L 3222 541 
z
" transform="scale(0.015625)"/>
       </defs>
       <use xlink:href="#ArialMT-2212"/>
       <use xlink:href="#ArialMT-32" transform="translate(58.398438 0)"/>
       <use xlink:href="#ArialMT-30" transform="translate(114.013672 0)"/>
      </g>
     </g>
    </g>
    <g id="ytick_3">
     <g id="text_5">
      <!-- −10 -->
      <g style="fill: #262626" transform="translate(24.275 213.278048) scale(0.1 -0.1)">
       <defs>
        <path id="ArialMT-31" d="M 2384 0 
L 1822 0 
L 1822 3584 
Q 1619 3391 1289 3197 
Q 959 3003 697 2906 
L 697 3450 
Q 1169 3672 1522 3987 
Q 1875 4303 2022 4600 
L 2384 4600 
L 2384 0 
z
" transform="scale(0.015625)"/>
       </defs>
       <use xlink:href="#ArialMT-2212"/>
       <use xlink:href="#ArialMT-31" transform="translate(58.398438 0)"/>
       <use xlink:href="#ArialMT-30" transform="translate(114.013672 0)"/>
      </g>
     </g>
    </g>
    <g id="ytick_4">
     <g id="text_6">
      <!-- 0 -->
      <g style="fill: #262626" transform="translate(35.676563 156.253103) scale(0.1 -0.1)">
       <use xlink:href="#ArialMT-30"/>
      </g>
     </g>
    </g>
    <g id="ytick_5">
     <g id="text_7">
      <!-- 10 -->
      <g style="fill: #262626" transform="translate(30.115625 99.228157) scale(0.1 -0.1)">
       <use xlink:href="#ArialMT-31"/>
       <use xlink:href="#ArialMT-30" transform="translate(55.615234 0)"/>
      </g>
     </g>
    </g>
    <g id="ytick_6">
     <g id="text_8">
      <!-- 20 -->
      <g style="fill: #262626" transform="translate(30.115625 42.203212) scale(0.1 -0.1)">
       <use xlink:href="#ArialMT-32"/>
       <use xlink:href="#ArialMT-30" transform="translate(55.615234 0)"/>
      </g>
     </g>
    </g>
    <g id="text_9">
     <!-- Net Charge -->
     <g style="fill: #262626" transform="translate(18.170313 205.850469) rotate(-90) scale(0.1 -0.1)">
      <defs>
       <path id="Arial-BoldMT-4e" d="M 475 0 
L 475 4581 
L 1375 4581 
L 3250 1522 
L 3250 4581 
L 4109 4581 
L 4109 0 
L 3181 0 
L 1334 2988 
L 1334 0 
L 475 0 
z
" transform="scale(0.015625)"/>
       <path id="Arial-BoldMT-65" d="M 2381 1056 
L 3256 909 
Q 3088 428 2723 176 
Q 2359 -75 1813 -75 
Q 947 -75 531 491 
Q 203 944 203 1634 
Q 203 2459 634 2926 
Q 1066 3394 1725 3394 
Q 2466 3394 2894 2905 
Q 3322 2416 3303 1406 
L 1103 1406 
Q 1113 1016 1316 798 
Q 1519 581 1822 581 
Q 2028 581 2168 693 
Q 2309 806 2381 1056 
z
M 2431 1944 
Q 2422 2325 2234 2523 
Q 2047 2722 1778 2722 
Q 1491 2722 1303 2513 
Q 1116 2303 1119 1944 
L 2431 1944 
z
" transform="scale(0.015625)"/>
       <path id="Arial-BoldMT-74" d="M 1981 3319 
L 1981 2619 
L 1381 2619 
L 1381 1281 
Q 1381 875 1398 808 
Q 1416 741 1477 697 
Q 1538 653 1625 653 
Q 1747 653 1978 738 
L 2053 56 
Q 1747 -75 1359 -75 
Q 1122 -75 931 4 
Q 741 84 652 211 
Q 563 338 528 553 
Q 500 706 500 1172 
L 500 2619 
L 97 2619 
L 97 3319 
L 500 3319 
L 500 3978 
L 1381 4491 
L 1381 3319 
L 1981 3319 
z
" transform="scale(0.015625)"/>
       <path id="Arial-BoldMT-43" d="M 3397 1684 
L 4294 1400 
Q 4088 650 3608 286 
Q 3128 -78 2391 -78 
Q 1478 -78 890 545 
Q 303 1169 303 2250 
Q 303 3394 893 4026 
Q 1484 4659 2447 4659 
Q 3288 4659 3813 4163 
Q 4125 3869 4281 3319 
L 3366 3100 
Q 3284 3456 3026 3662 
Q 2769 3869 2400 3869 
Q 1891 3869 1573 3503 
Q 1256 3138 1256 2319 
Q 1256 1450 1568 1081 
Q 1881 713 2381 713 
Q 2750 713 3015 947 
Q 3281 1181 3397 1684 
z
" transform="scale(0.015625)"/>
       <path id="Arial-BoldMT-68" d="M 1334 4581 
L 1334 2897 
Q 1759 3394 2350 3394 
Q 2653 3394 2897 3281 
Q 3141 3169 3264 2994 
Q 3388 2819 3433 2606 
Q 3478 2394 3478 1947 
L 3478 0 
L 2600 0 
L 2600 1753 
Q 2600 2275 2550 2415 
Q 2500 2556 2373 2639 
Q 2247 2722 2056 2722 
Q 1838 2722 1666 2615 
Q 1494 2509 1414 2295 
Q 1334 2081 1334 1663 
L 1334 0 
L 456 0 
L 456 4581 
L 1334 4581 
z
" transform="scale(0.015625)"/>
       <path id="Arial-BoldMT-67" d="M 378 -219 
L 1381 -341 
Q 1406 -516 1497 -581 
Q 1622 -675 1891 -675 
Q 2234 -675 2406 -572 
Q 2522 -503 2581 -350 
Q 2622 -241 2622 53 
L 2622 538 
Q 2228 0 1628 0 
Q 959 0 569 566 
Q 263 1013 263 1678 
Q 263 2513 664 2953 
Q 1066 3394 1663 3394 
Q 2278 3394 2678 2853 
L 2678 3319 
L 3500 3319 
L 3500 341 
Q 3500 -247 3403 -537 
Q 3306 -828 3131 -993 
Q 2956 -1159 2664 -1253 
Q 2372 -1347 1925 -1347 
Q 1081 -1347 728 -1058 
Q 375 -769 375 -325 
Q 375 -281 378 -219 
z
M 1163 1728 
Q 1163 1200 1367 954 
Q 1572 709 1872 709 
Q 2194 709 2416 961 
Q 2638 1213 2638 1706 
Q 2638 2222 2425 2472 
Q 2213 2722 1888 2722 
Q 1572 2722 1367 2476 
Q 1163 2231 1163 1728 
z
" transform="scale(0.015625)"/>
      </defs>
      <use xlink:href="#Arial-BoldMT-4e"/>
      <use xlink:href="#Arial-BoldMT-65" transform="translate(72.216797 0)"/>
      <use xlink:href="#Arial-BoldMT-74" transform="translate(127.832031 0)"/>
      <use xlink:href="#Arial-BoldMT-20" transform="translate(161.132812 0)"/>
      <use xlink:href="#Arial-BoldMT-43" transform="translate(188.916016 0)"/>
      <use xlink:href="#Arial-BoldMT-68" transform="translate(261.132812 0)"/>
      <use xlink:href="#Arial-BoldMT-61" transform="translate(322.216797 0)"/>
      <use xlink:href="#Arial-BoldMT-72" transform="translate(377.832031 0)"/>
      <use xlink:href="#Arial-BoldMT-67" transform="translate(416.748047 0)"/>
      <use xlink:href="#Arial-BoldMT-65" transform="translate(477.832031 0)"/>
     </g>
    </g>
   </g>
   <g id="patch_3">
    <path d="M 61.917614 154.155684 
L 183.518624 154.155684 
L 183.518624 136.924461 
L 61.917614 136.924461 
L 61.917614 154.155684 
z
" clip-path="url(#pcf0c7e6e46)" style="fill: #117a7a; stroke: #2a2a2a; stroke-linejoin: miter"/>
   </g>
   <g id="line2d_1">
    <path d="M 122.718119 154.155684 
L 122.718119 178.401643 
" clip-path="url(#pcf0c7e6e46)" style="fill: none; stroke: #2a2a2a"/>
   </g>
   <g id="line2d_2">
    <path d="M 122.718119 136.924461 
L 122.718119 113.651666 
" clip-path="url(#pcf0c7e6e46)" style="fill: none; stroke: #2a2a2a"/>
   </g>
   <g id="line2d_3">
    <path d="M 92.317866 178.401643 
L 153.118371 178.401643 
" clip-path="url(#pcf0c7e6e46)" style="fill: none; stroke: #2a2a2a; stroke-linecap: round"/>
   </g>
   <g id="line2d_4">
    <path d="M 92.317866 113.651666 
L 153.118371 113.651666 
" clip-path="url(#pcf0c7e6e46)" style="fill: none; stroke: #2a2a2a; stroke-linecap: round"/>
   </g>
   <g id="line2d_5">
    <defs>
     <path id="mb71eff3d4e" d="M 0 3 
C 0.795609 3 1.55874 2.683901 2.12132 2.12132 
C 2.683901 1.55874 3 0.795609 3 0 
C 3 -0.795609 2.683901 -1.55874 2.12132 -2.12132 
C 1.55874 -2.683901 0.795609 -3 0 -3 
C -0.795609 -3 -1.55874 -2.683901 -2.12132 -2.12132 
C -2.683901 -1.55874 -3 -0.795609 -3 0 
C -3 0.795609 -2.683901 1.55874 -2.12132 2.12132 
C -1.55874 2.683901 -0.795609 3 0 3 
z
" style="stroke: #2a2a2a"/>
    </defs>
    <g clip-path="url(#pcf0c7e6e46)">
     <use xlink:href="#mb71eff3d4e" x="122.718119" y="198.76361" style="fill-opacity: 0; stroke: #2a2a2a"/>
     <use xlink:href="#mb71eff3d4e" x="122.718119" y="182.045387" style="fill-opacity: 0; stroke: #2a2a2a"/>
     <use xlink:href="#mb71eff3d4e" x="122.718119" y="110.027093" style="fill-opacity: 0; stroke: #2a2a2a"/>
     <use xlink:href="#mb71eff3d4e" x="122.718119" y="110.027093" style="fill-opacity: 0; stroke: #2a2a2a"/>
     <use xlink:href="#mb71eff3d4e" x="122.718119" y="87.227555" style="fill-opacity: 0; stroke: #2a2a2a"/>
    </g>
   </g>
   <g id="patch_4">
    <path d="M 213.918876 154.678519 
L 335.519886 154.678519 
L 335.519886 132.725465 
L 213.918876 132.725465 
L 213.918876 154.678519 
z
" clip-path="url(#pcf0c7e6e46)" style="fill: #df8920; stroke: #2a2a2a; stroke-linejoin: miter"/>
   </g>
   <g id="line2d_6">
    <path d="M 274.719381 154.678519 
L 274.719381 186.522815 
" clip-path="url(#pcf0c7e6e46)" style="fill: none; stroke: #2a2a2a"/>
   </g>
   <g id="line2d_7">
    <path d="M 274.719381 132.725465 
L 274.719381 101.233116 
" clip-path="url(#pcf0c7e6e46)" style="fill: none; stroke: #2a2a2a"/>
   </g>
   <g id="line2d_8">
    <path d="M 244.319129 186.522815 
L 305.119634 186.522815 
" clip-path="url(#pcf0c7e6e46)" style="fill: none; stroke: #2a2a2a; stroke-linecap: round"/>
   </g>
   <g id="line2d_9">
    <path d="M 244.319129 101.233116 
L 305.119634 101.233116 
" clip-path="url(#pcf0c7e6e46)" style="fill: none; stroke: #2a2a2a; stroke-linecap: round"/>
   </g>
   <g id="line2d_10">
    <g clip-path="url(#pcf0c7e6e46)">
     <use xlink:href="#mb71eff3d4e" x="274.719381" y="199.464125" style="fill-opacity: 0; stroke: #2a2a2a"/>
     <use xlink:href="#mb71eff3d4e" x="274.719381" y="188.207412" style="fill-opacity: 0; stroke: #2a2a2a"/>
     <use xlink:href="#mb71eff3d4e" x="274.719381" y="312.982082" style="fill-opacity: 0; stroke: #2a2a2a"/>
     <use xlink:href="#mb71eff3d4e" x="274.719381" y="303.438019" style="fill-opacity: 0; stroke: #2a2a2a"/>
     <use xlink:href="#mb71eff3d4e" x="274.719381" y="303.442709" style="fill-opacity: 0; stroke: #2a2a2a"/>
     <use xlink:href="#mb71eff3d4e" x="274.719381" y="227.03734" style="fill-opacity: 0; stroke: #2a2a2a"/>
     <use xlink:href="#mb71eff3d4e" x="274.719381" y="221.9302" style="fill-opacity: 0; stroke: #2a2a2a"/>
     <use xlink:href="#mb71eff3d4e" x="274.719381" y="203.577471" style="fill-opacity: 0; stroke: #2a2a2a"/>
     <use xlink:href="#mb71eff3d4e" x="274.719381" y="226.240461" style="fill-opacity: 0; stroke: #2a2a2a"/>
     <use xlink:href="#mb71eff3d4e" x="274.719381" y="214.479283" style="fill-opacity: 0; stroke: #2a2a2a"/>
     <use xlink:href="#mb71eff3d4e" x="274.719381" y="228.327988" style="fill-opacity: 0; stroke: #2a2a2a"/>
     <use xlink:href="#mb71eff3d4e" x="274.719381" y="228.327988" style="fill-opacity: 0; stroke: #2a2a2a"/>
     <use xlink:href="#mb71eff3d4e" x="274.719381" y="228.327988" style="fill-opacity: 0; stroke: #2a2a2a"/>
     <use xlink:href="#mb71eff3d4e" x="274.719381" y="202.696928" style="fill-opacity: 0; stroke: #2a2a2a"/>
     <use xlink:href="#mb71eff3d4e" x="274.719381" y="216.640591" style="fill-opacity: 0; stroke: #2a2a2a"/>
     <use xlink:href="#mb71eff3d4e" x="274.719381" y="211.383112" style="fill-opacity: 0; stroke: #2a2a2a"/>
     <use xlink:href="#mb71eff3d4e" x="274.719381" y="229.087284" style="fill-opacity: 0; stroke: #2a2a2a"/>
     <use xlink:href="#mb71eff3d4e" x="274.719381" y="223.851046" style="fill-opacity: 0; stroke: #2a2a2a"/>
     <use xlink:href="#mb71eff3d4e" x="274.719381" y="218.154942" style="fill-opacity: 0; stroke: #2a2a2a"/>
     <use xlink:href="#mb71eff3d4e" x="274.719381" y="194.034959" style="fill-opacity: 0; stroke: #2a2a2a"/>
     <use xlink:href="#mb71eff3d4e" x="274.719381" y="194.502468" style="fill-opacity: 0; stroke: #2a2a2a"/>
     <use xlink:href="#mb71eff3d4e" x="274.719381" y="189.120094" style="fill-opacity: 0; stroke: #2a2a2a"/>
     <use xlink:href="#mb71eff3d4e" x="274.719381" y="214.970992" style="fill-opacity: 0; stroke: #2a2a2a"/>
     <use xlink:href="#mb71eff3d4e" x="274.719381" y="209.784677" style="fill-opacity: 0; stroke: #2a2a2a"/>
     <use xlink:href="#mb71eff3d4e" x="274.719381" y="221.657452" style="fill-opacity: 0; stroke: #2a2a2a"/>
     <use xlink:href="#mb71eff3d4e" x="274.719381" y="204.072031" style="fill-opacity: 0; stroke: #2a2a2a"/>
     <use xlink:href="#mb71eff3d4e" x="274.719381" y="220.190125" style="fill-opacity: 0; stroke: #2a2a2a"/>
     <use xlink:href="#mb71eff3d4e" x="274.719381" y="232.552853" style="fill-opacity: 0; stroke: #2a2a2a"/>
     <use xlink:href="#mb71eff3d4e" x="274.719381" y="231.998275" style="fill-opacity: 0; stroke: #2a2a2a"/>
     <use xlink:href="#mb71eff3d4e" x="274.719381" y="209.847472" style="fill-opacity: 0; stroke: #2a2a2a"/>
     <use xlink:href="#mb71eff3d4e" x="274.719381" y="216.025418" style="fill-opacity: 0; stroke: #2a2a2a"/>
     <use xlink:href="#mb71eff3d4e" x="274.719381" y="249.128955" style="fill-opacity: 0; stroke: #2a2a2a"/>
     <use xlink:href="#mb71eff3d4e" x="274.719381" y="231.593256" style="fill-opacity: 0; stroke: #2a2a2a"/>
     <use xlink:href="#mb71eff3d4e" x="274.719381" y="187.686185" style="fill-opacity: 0; stroke: #2a2a2a"/>
     <use xlink:href="#mb71eff3d4e" x="274.719381" y="187.629725" style="fill-opacity: 0; stroke: #2a2a2a"/>
     <use xlink:href="#mb71eff3d4e" x="274.719381" y="187.629725" style="fill-opacity: 0; stroke: #2a2a2a"/>
     <use xlink:href="#mb71eff3d4e" x="274.719381" y="193.316193" style="fill-opacity: 0; stroke: #2a2a2a"/>
     <use xlink:href="#mb71eff3d4e" x="274.719381" y="188.857689" style="fill-opacity: 0; stroke: #2a2a2a"/>
     <use xlink:href="#mb71eff3d4e" x="274.719381" y="303.12163" style="fill-opacity: 0; stroke: #2a2a2a"/>
     <use xlink:href="#mb71eff3d4e" x="274.719381" y="255.571573" style="fill-opacity: 0; stroke: #2a2a2a"/>
     <use xlink:href="#mb71eff3d4e" x="274.719381" y="318.690056" style="fill-opacity: 0; stroke: #2a2a2a"/>
     <use xlink:href="#mb71eff3d4e" x="274.719381" y="313.003589" style="fill-opacity: 0; stroke: #2a2a2a"/>
     <use xlink:href="#mb71eff3d4e" x="274.719381" y="313.003589" style="fill-opacity: 0; stroke: #2a2a2a"/>
     <use xlink:href="#mb71eff3d4e" x="274.719381" y="222.487882" style="fill-opacity: 0; stroke: #2a2a2a"/>
     <use xlink:href="#mb71eff3d4e" x="274.719381" y="190.193232" style="fill-opacity: 0; stroke: #2a2a2a"/>
     <use xlink:href="#mb71eff3d4e" x="274.719381" y="78.372518" style="fill-opacity: 0; stroke: #2a2a2a"/>
     <use xlink:href="#mb71eff3d4e" x="274.719381" y="91.446586" style="fill-opacity: 0; stroke: #2a2a2a"/>
     <use xlink:href="#mb71eff3d4e" x="274.719381" y="91.352745" style="fill-opacity: 0; stroke: #2a2a2a"/>
     <use xlink:href="#mb71eff3d4e" x="274.719381" y="50.949839" style="fill-opacity: 0; stroke: #2a2a2a"/>
     <use xlink:href="#mb71eff3d4e" x="274.719381" y="96.192358" style="fill-opacity: 0; stroke: #2a2a2a"/>
     <use xlink:href="#mb71eff3d4e" x="274.719381" y="71.173942" style="fill-opacity: 0; stroke: #2a2a2a"/>
     <use xlink:href="#mb71eff3d4e" x="274.719381" y="97.165429" style="fill-opacity: 0; stroke: #2a2a2a"/>
     <use xlink:href="#mb71eff3d4e" x="274.719381" y="75.304119" style="fill-opacity: 0; stroke: #2a2a2a"/>
     <use xlink:href="#mb71eff3d4e" x="274.719381" y="80.666392" style="fill-opacity: 0; stroke: #2a2a2a"/>
     <use xlink:href="#mb71eff3d4e" x="274.719381" y="68.192678" style="fill-opacity: 0; stroke: #2a2a2a"/>
     <use xlink:href="#mb71eff3d4e" x="274.719381" y="89.361368" style="fill-opacity: 0; stroke: #2a2a2a"/>
     <use xlink:href="#mb71eff3d4e" x="274.719381" y="96.192358" style="fill-opacity: 0; stroke: #2a2a2a"/>
     <use xlink:href="#mb71eff3d4e" x="274.719381" y="91.446586" style="fill-opacity: 0; stroke: #2a2a2a"/>
     <use xlink:href="#mb71eff3d4e" x="274.719381" y="91.446586" style="fill-opacity: 0; stroke: #2a2a2a"/>
     <use xlink:href="#mb71eff3d4e" x="274.719381" y="96.192358" style="fill-opacity: 0; stroke: #2a2a2a"/>
    </g>
   </g>
   <g id="line2d_11">
    <path d="M 122.718119 35.691186 
L 274.719381 35.691186 
" clip-path="url(#pcf0c7e6e46)" style="fill: none; stroke: #000000; stroke-width: 1.5; stroke-linecap: round"/>
   </g>
   <g id="line2d_12">
    <path d="M 61.917614 147.799326 
L 183.518624 147.799326 
" clip-path="url(#pcf0c7e6e46)" style="fill: none; stroke: #2a2a2a"/>
   </g>
   <g id="line2d_13">
    <path d="M 213.918876 143.187114 
L 335.519886 143.187114 
" clip-path="url(#pcf0c7e6e46)" style="fill: none; stroke: #2a2a2a"/>
   </g>
   <g id="patch_5">
    <path d="M 48.2375 332.84 
L 48.2375 25.51875 
" style="fill: none; stroke: #262626; stroke-width: 0.8; stroke-linejoin: miter; stroke-linecap: square"/>
   </g>
   <g id="patch_6">
    <path d="M 349.2 332.84 
L 349.2 25.51875 
" style="fill: none; stroke: #262626; stroke-width: 0.8; stroke-linejoin: miter; stroke-linecap: square"/>
   </g>
   <g id="patch_7">
    <path d="M 48.2375 332.84 
L 349.2 332.84 
" style="fill: none; stroke: #262626; stroke-width: 0.8; stroke-linejoin: miter; stroke-linecap: square"/>
   </g>
   <g id="patch_8">
    <path d="M 48.2375 25.51875 
L 349.2 25.51875 
" style="fill: none; stroke: #262626; stroke-width: 0.8; stroke-linejoin: miter; stroke-linecap: square"/>
   </g>
   <g id="text_10">
    <!-- ns -->
    <g transform="translate(192.382187 33.306186) scale(0.12 -0.12)">
     <defs>
      <path id="ArialMT-6e" d="M 422 0 
L 422 3319 
L 928 3319 
L 928 2847 
Q 1294 3394 1984 3394 
Q 2284 3394 2536 3286 
Q 2788 3178 2913 3003 
Q 3038 2828 3088 2588 
Q 3119 2431 3119 2041 
L 3119 0 
L 2556 0 
L 2556 2019 
Q 2556 2363 2490 2533 
Q 2425 2703 2258 2804 
Q 2091 2906 1866 2906 
Q 1506 2906 1245 2678 
Q 984 2450 984 1813 
L 984 0 
L 422 0 
z
" transform="scale(0.015625)"/>
      <path id="ArialMT-73" d="M 197 991 
L 753 1078 
Q 800 744 1014 566 
Q 1228 388 1613 388 
Q 2000 388 2187 545 
Q 2375 703 2375 916 
Q 2375 1106 2209 1216 
Q 2094 1291 1634 1406 
Q 1016 1563 777 1677 
Q 538 1791 414 1992 
Q 291 2194 291 2438 
Q 291 2659 392 2848 
Q 494 3038 669 3163 
Q 800 3259 1026 3326 
Q 1253 3394 1513 3394 
Q 1903 3394 2198 3281 
Q 2494 3169 2634 2976 
Q 2775 2784 2828 2463 
L 2278 2388 
Q 2241 2644 2061 2787 
Q 1881 2931 1553 2931 
Q 1166 2931 1000 2803 
Q 834 2675 834 2503 
Q 834 2394 903 2306 
Q 972 2216 1119 2156 
Q 1203 2125 1616 2013 
Q 2213 1853 2448 1751 
Q 2684 1650 2818 1456 
Q 2953 1263 2953 975 
Q 2953 694 2789 445 
Q 2625 197 2315 61 
Q 2006 -75 1616 -75 
Q 969 -75 630 194 
Q 291 463 197 991 
z
" transform="scale(0.015625)"/>
     </defs>
     <use xlink:href="#ArialMT-6e"/>
     <use xlink:href="#ArialMT-73" transform="translate(55.615234 0)"/>
    </g>
   </g>
   <g id="text_11">
    <!-- Net Charge Distribution -->
    <g style="fill: #262626" transform="translate(131.386562 19.51875) scale(0.12 -0.12)">
     <defs>
      <path id="Arial-BoldMT-44" d="M 463 4581 
L 2153 4581 
Q 2725 4581 3025 4494 
Q 3428 4375 3715 4072 
Q 4003 3769 4153 3330 
Q 4303 2891 4303 2247 
Q 4303 1681 4163 1272 
Q 3991 772 3672 463 
Q 3431 228 3022 97 
Q 2716 0 2203 0 
L 463 0 
L 463 4581 
z
M 1388 3806 
L 1388 772 
L 2078 772 
Q 2466 772 2638 816 
Q 2863 872 3011 1006 
Q 3159 1141 3253 1448 
Q 3347 1756 3347 2288 
Q 3347 2819 3253 3103 
Q 3159 3388 2990 3547 
Q 2822 3706 2563 3763 
Q 2369 3806 1803 3806 
L 1388 3806 
z
" transform="scale(0.015625)"/>
      <path id="Arial-BoldMT-6e" d="M 3478 0 
L 2600 0 
L 2600 1694 
Q 2600 2231 2544 2389 
Q 2488 2547 2361 2634 
Q 2234 2722 2056 2722 
Q 1828 2722 1647 2597 
Q 1466 2472 1398 2265 
Q 1331 2059 1331 1503 
L 1331 0 
L 453 0 
L 453 3319 
L 1269 3319 
L 1269 2831 
Q 1703 3394 2363 3394 
Q 2653 3394 2893 3289 
Q 3134 3184 3257 3021 
Q 3381 2859 3429 2653 
Q 3478 2447 3478 2063 
L 3478 0 
z
" transform="scale(0.015625)"/>
     </defs>
     <use xlink:href="#Arial-BoldMT-4e"/>
     <use xlink:href="#Arial-BoldMT-65" transform="translate(72.216797 0)"/>
     <use xlink:href="#Arial-BoldMT-74" transform="translate(127.832031 0)"/>
     <use xlink:href="#Arial-BoldMT-20" transform="translate(161.132812 0)"/>
     <use xlink:href="#Arial-BoldMT-43" transform="translate(188.916016 0)"/>
     <use xlink:href="#Arial-BoldMT-68" transform="translate(261.132812 0)"/>
     <use xlink:href="#Arial-BoldMT-61" transform="translate(322.216797 0)"/>
     <use xlink:href="#Arial-BoldMT-72" transform="translate(377.832031 0)"/>
     <use xlink:href="#Arial-BoldMT-67" transform="translate(416.748047 0)"/>
     <use xlink:href="#Arial-BoldMT-65" transform="translate(477.832031 0)"/>
     <use xlink:href="#Arial-BoldMT-20" transform="translate(533.447266 0)"/>
     <use xlink:href="#Arial-BoldMT-44" transform="translate(561.230469 0)"/>
     <use xlink:href="#Arial-BoldMT-69" transform="translate(633.447266 0)"/>
     <use xlink:href="#Arial-BoldMT-73" transform="translate(661.230469 0)"/>
     <use xlink:href="#Arial-BoldMT-74" transform="translate(716.845703 0)"/>
     <use xlink:href="#Arial-BoldMT-72" transform="translate(750.146484 0)"/>
     <use xlink:href="#Arial-BoldMT-69" transform="translate(789.0625 0)"/>
     <use xlink:href="#Arial-BoldMT-62" transform="translate(816.845703 0)"/>
     <use xlink:href="#Arial-BoldMT-75" transform="translate(877.929688 0)"/>
     <use xlink:href="#Arial-BoldMT-74" transform="translate(939.013672 0)"/>
     <use xlink:href="#Arial-BoldMT-69" transform="translate(972.314453 0)"/>
     <use xlink:href="#Arial-BoldMT-6f" transform="translate(1000.097656 0)"/>
     <use xlink:href="#Arial-BoldMT-6e" transform="translate(1061.181641 0)"/>
    </g>
   </g>
  </g>
 </g>
 <defs>
  <clipPath id="pcf0c7e6e46">
   <rect x="48.2375" y="25.51875" width="300.9625" height="307.32125"/>
  </clipPath>
 </defs>
</svg>
