<?xml version="1.0" encoding="utf-8" standalone="no"?>
<!DOCTYPE svg PUBLIC "-//W3C//DTD SVG 1.1//EN"
  "http://www.w3.org/Graphics/SVG/1.1/DTD/svg11.dtd">
<svg xmlns:xlink="http://www.w3.org/1999/xlink" width="360pt" height="360pt" viewBox="0 0 360 360" xmlns="http://www.w3.org/2000/svg" version="1.1">
 <metadata>
  <rdf:RDF xmlns:dc="http://purl.org/dc/elements/1.1/" xmlns:cc="http://creativecommons.org/ns#" xmlns:rdf="http://www.w3.org/1999/02/22-rdf-syntax-ns#">
   <cc:Work>
    <dc:type rdf:resource="http://purl.org/dc/dcmitype/StillImage"/>
    <dc:date>2025-05-13T17:28:48.401861</dc:date>
    <dc:format>image/svg+xml</dc:format>
    <dc:creator>
     <cc:Agent>
      <dc:title>Matplotlib v3.10.0, https://matplotlib.org/</dc:title>
     </cc:Agent>
    </dc:creator>
   </cc:Work>
  </rdf:RDF>
 </metadata>
 <defs>
  <style type="text/css">*{stroke-linejoin: round; stroke-linecap: butt}</style>
 </defs>
 <g id="figure_1">
  <g id="patch_1">
   <path d="M 0 360 
L 360 360 
L 360 0 
L 0 0 
z
" style="fill: #ffffff"/>
  </g>
  <g id="axes_1">
   <g id="patch_2">
    <path d="M 42.6575 332.84 
L 349.2 332.84 
L 349.2 25.51875 
L 42.6575 25.51875 
z
" style="fill: #ffffff"/>
   </g>
   <g id="matplotlib.axis_1">
    <g id="xtick_1">
     <g id="text_1">
      <!-- Our AMPs -->
      <g style="fill: #262626" transform="translate(94.536997 346.997813) scale(0.1 -0.1)">
       <defs>
        <path id="Arial-BoldMT-4f" d="M 278 2263 
Q 278 2963 488 3438 
Q 644 3788 914 4066 
Q 1184 4344 1506 4478 
Q 1934 4659 2494 4659 
Q 3506 4659 4114 4031 
Q 4722 3403 4722 2284 
Q 4722 1175 4119 548 
Q 3516 -78 2506 -78 
Q 1484 -78 881 545 
Q 278 1169 278 2263 
z
M 1231 2294 
Q 1231 1516 1590 1114 
Q 1950 713 2503 713 
Q 3056 713 3411 1111 
Q 3766 1509 3766 2306 
Q 3766 3094 3420 3481 
Q 3075 3869 2503 3869 
Q 1931 3869 1581 3476 
Q 1231 3084 1231 2294 
z
" transform="scale(0.015625)"/>
        <path id="Arial-BoldMT-75" d="M 2644 0 
L 2644 497 
Q 2463 231 2167 78 
Q 1872 -75 1544 -75 
Q 1209 -75 943 72 
Q 678 219 559 484 
Q 441 750 441 1219 
L 441 3319 
L 1319 3319 
L 1319 1794 
Q 1319 1094 1367 936 
Q 1416 778 1544 686 
Q 1672 594 1869 594 
Q 2094 594 2272 717 
Q 2450 841 2515 1023 
Q 2581 1206 2581 1919 
L 2581 3319 
L 3459 3319 
L 3459 0 
L 2644 0 
z
" transform="scale(0.015625)"/>
        <path id="Arial-BoldMT-72" d="M 1300 0 
L 422 0 
L 422 3319 
L 1238 3319 
L 1238 2847 
Q 1447 3181 1614 3287 
Q 1781 3394 1994 3394 
Q 2294 3394 2572 3228 
L 2300 2463 
Q 2078 2606 1888 2606 
Q 1703 2606 1575 2504 
Q 1447 2403 1373 2137 
Q 1300 1872 1300 1025 
L 1300 0 
z
" transform="scale(0.015625)"/>
        <path id="Arial-BoldMT-20" transform="scale(0.015625)"/>
        <path id="Arial-BoldMT-41" d="M 4597 0 
L 3591 0 
L 3191 1041 
L 1359 1041 
L 981 0 
L 0 0 
L 1784 4581 
L 2763 4581 
L 4597 0 
z
M 2894 1813 
L 2263 3513 
L 1644 1813 
L 2894 1813 
z
" transform="scale(0.015625)"/>
        <path id="Arial-BoldMT-4d" d="M 453 0 
L 453 4581 
L 1838 4581 
L 2669 1456 
L 3491 4581 
L 4878 4581 
L 4878 0 
L 4019 0 
L 4019 3606 
L 3109 0 
L 2219 0 
L 1313 3606 
L 1313 0 
L 453 0 
z
" transform="scale(0.015625)"/>
        <path id="Arial-BoldMT-50" d="M 466 0 
L 466 4581 
L 1950 4581 
Q 2794 4581 3050 4513 
Q 3444 4409 3709 4064 
Q 3975 3719 3975 3172 
Q 3975 2750 3822 2462 
Q 3669 2175 3433 2011 
Q 3197 1847 2953 1794 
Q 2622 1728 1994 1728 
L 1391 1728 
L 1391 0 
L 466 0 
z
M 1391 3806 
L 1391 2506 
L 1897 2506 
Q 2444 2506 2628 2578 
Q 2813 2650 2917 2803 
Q 3022 2956 3022 3159 
Q 3022 3409 2875 3571 
Q 2728 3734 2503 3775 
Q 2338 3806 1838 3806 
L 1391 3806 
z
" transform="scale(0.015625)"/>
        <path id="Arial-BoldMT-73" d="M 150 947 
L 1031 1081 
Q 1088 825 1259 692 
Q 1431 559 1741 559 
Q 2081 559 2253 684 
Q 2369 772 2369 919 
Q 2369 1019 2306 1084 
Q 2241 1147 2013 1200 
Q 950 1434 666 1628 
Q 272 1897 272 2375 
Q 272 2806 612 3100 
Q 953 3394 1669 3394 
Q 2350 3394 2681 3172 
Q 3013 2950 3138 2516 
L 2309 2363 
Q 2256 2556 2107 2659 
Q 1959 2763 1684 2763 
Q 1338 2763 1188 2666 
Q 1088 2597 1088 2488 
Q 1088 2394 1175 2328 
Q 1294 2241 1995 2081 
Q 2697 1922 2975 1691 
Q 3250 1456 3250 1038 
Q 3250 581 2869 253 
Q 2488 -75 1741 -75 
Q 1063 -75 667 200 
Q 272 475 150 947 
z
" transform="scale(0.015625)"/>
       </defs>
       <use xlink:href="#Arial-BoldMT-4f"/>
       <use xlink:href="#Arial-BoldMT-75" transform="translate(77.783203 0)"/>
       <use xlink:href="#Arial-BoldMT-72" transform="translate(138.867188 0)"/>
       <use xlink:href="#Arial-BoldMT-20" transform="translate(177.783203 0)"/>
       <use xlink:href="#Arial-BoldMT-41" transform="translate(201.816406 0)"/>
       <use xlink:href="#Arial-BoldMT-4d" transform="translate(274.033203 0)"/>
       <use xlink:href="#Arial-BoldMT-50" transform="translate(357.333984 0)"/>
       <use xlink:href="#Arial-BoldMT-73" transform="translate(424.033203 0)"/>
      </g>
     </g>
    </g>
    <g id="xtick_2">
     <g id="text_2">
      <!-- Microbial AMPs -->
      <g style="fill: #262626" transform="translate(236.298628 346.997813) scale(0.1 -0.1)">
       <defs>
        <path id="Arial-BoldMT-69" d="M 459 3769 
L 459 4581 
L 1338 4581 
L 1338 3769 
L 459 3769 
z
M 459 0 
L 459 3319 
L 1338 3319 
L 1338 0 
L 459 0 
z
" transform="scale(0.015625)"/>
        <path id="Arial-BoldMT-63" d="M 3353 2338 
L 2488 2181 
Q 2444 2441 2289 2572 
Q 2134 2703 1888 2703 
Q 1559 2703 1364 2476 
Q 1169 2250 1169 1719 
Q 1169 1128 1367 884 
Q 1566 641 1900 641 
Q 2150 641 2309 783 
Q 2469 925 2534 1272 
L 3397 1125 
Q 3263 531 2881 228 
Q 2500 -75 1859 -75 
Q 1131 -75 698 384 
Q 266 844 266 1656 
Q 266 2478 700 2936 
Q 1134 3394 1875 3394 
Q 2481 3394 2839 3133 
Q 3197 2872 3353 2338 
z
" transform="scale(0.015625)"/>
        <path id="Arial-BoldMT-6f" d="M 256 1706 
Q 256 2144 472 2553 
Q 688 2963 1083 3178 
Q 1478 3394 1966 3394 
Q 2719 3394 3200 2905 
Q 3681 2416 3681 1669 
Q 3681 916 3195 420 
Q 2709 -75 1972 -75 
Q 1516 -75 1102 131 
Q 688 338 472 736 
Q 256 1134 256 1706 
z
M 1156 1659 
Q 1156 1166 1390 903 
Q 1625 641 1969 641 
Q 2313 641 2545 903 
Q 2778 1166 2778 1666 
Q 2778 2153 2545 2415 
Q 2313 2678 1969 2678 
Q 1625 2678 1390 2415 
Q 1156 2153 1156 1659 
z
" transform="scale(0.015625)"/>
        <path id="Arial-BoldMT-62" d="M 422 0 
L 422 4581 
L 1300 4581 
L 1300 2931 
Q 1706 3394 2263 3394 
Q 2869 3394 3266 2955 
Q 3663 2516 3663 1694 
Q 3663 844 3258 384 
Q 2853 -75 2275 -75 
Q 1991 -75 1714 67 
Q 1438 209 1238 488 
L 1238 0 
L 422 0 
z
M 1294 1731 
Q 1294 1216 1456 969 
Q 1684 619 2063 619 
Q 2353 619 2558 867 
Q 2763 1116 2763 1650 
Q 2763 2219 2556 2470 
Q 2350 2722 2028 2722 
Q 1713 2722 1503 2476 
Q 1294 2231 1294 1731 
z
" transform="scale(0.015625)"/>
        <path id="Arial-BoldMT-61" d="M 1116 2306 
L 319 2450 
Q 453 2931 781 3162 
Q 1109 3394 1756 3394 
Q 2344 3394 2631 3255 
Q 2919 3116 3036 2902 
Q 3153 2688 3153 2116 
L 3144 1091 
Q 3144 653 3186 445 
Q 3228 238 3344 0 
L 2475 0 
Q 2441 88 2391 259 
Q 2369 338 2359 363 
Q 2134 144 1878 34 
Q 1622 -75 1331 -75 
Q 819 -75 523 203 
Q 228 481 228 906 
Q 228 1188 362 1408 
Q 497 1628 739 1745 
Q 981 1863 1438 1950 
Q 2053 2066 2291 2166 
L 2291 2253 
Q 2291 2506 2166 2614 
Q 2041 2722 1694 2722 
Q 1459 2722 1328 2630 
Q 1197 2538 1116 2306 
z
M 2291 1594 
Q 2122 1538 1756 1459 
Q 1391 1381 1278 1306 
Q 1106 1184 1106 997 
Q 1106 813 1243 678 
Q 1381 544 1594 544 
Q 1831 544 2047 700 
Q 2206 819 2256 991 
Q 2291 1103 2291 1419 
L 2291 1594 
z
" transform="scale(0.015625)"/>
        <path id="Arial-BoldMT-6c" d="M 459 0 
L 459 4581 
L 1338 4581 
L 1338 0 
L 459 0 
z
" transform="scale(0.015625)"/>
       </defs>
       <use xlink:href="#Arial-BoldMT-4d"/>
       <use xlink:href="#Arial-BoldMT-69" transform="translate(83.300781 0)"/>
       <use xlink:href="#Arial-BoldMT-63" transform="translate(111.083984 0)"/>
       <use xlink:href="#Arial-BoldMT-72" transform="translate(166.699219 0)"/>
       <use xlink:href="#Arial-BoldMT-6f" transform="translate(205.615234 0)"/>
       <use xlink:href="#Arial-BoldMT-62" transform="translate(266.699219 0)"/>
       <use xlink:href="#Arial-BoldMT-69" transform="translate(327.783203 0)"/>
       <use xlink:href="#Arial-BoldMT-61" transform="translate(355.566406 0)"/>
       <use xlink:href="#Arial-BoldMT-6c" transform="translate(411.181641 0)"/>
       <use xlink:href="#Arial-BoldMT-20" transform="translate(438.964844 0)"/>
       <use xlink:href="#Arial-BoldMT-41" transform="translate(462.998047 0)"/>
       <use xlink:href="#Arial-BoldMT-4d" transform="translate(535.214844 0)"/>
       <use xlink:href="#Arial-BoldMT-50" transform="translate(618.515625 0)"/>
       <use xlink:href="#Arial-BoldMT-73" transform="translate(685.214844 0)"/>
      </g>
     </g>
    </g>
   </g>
   <g id="matplotlib.axis_2">
    <g id="ytick_1">
     <g id="text_3">
      <!-- −3 -->
      <g style="fill: #262626" transform="translate(24.255937 325.840221) scale(0.1 -0.1)">
       <defs>
        <path id="ArialMT-2212" d="M 3381 1997 
L 356 1997 
L 356 2522 
L 3381 2522 
L 3381 1997 
z
" transform="scale(0.015625)"/>
        <path id="ArialMT-33" d="M 269 1209 
L 831 1284 
Q 928 806 1161 595 
Q 1394 384 1728 384 
Q 2125 384 2398 659 
Q 2672 934 2672 1341 
Q 2672 1728 2419 1979 
Q 2166 2231 1775 2231 
Q 1616 2231 1378 2169 
L 1441 2663 
Q 1497 2656 1531 2656 
Q 1891 2656 2178 2843 
Q 2466 3031 2466 3422 
Q 2466 3731 2256 3934 
Q 2047 4138 1716 4138 
Q 1388 4138 1169 3931 
Q 950 3725 888 3313 
L 325 3413 
Q 428 3978 793 4289 
Q 1159 4600 1703 4600 
Q 2078 4600 2393 4439 
Q 2709 4278 2876 4000 
Q 3044 3722 3044 3409 
Q 3044 3113 2884 2869 
Q 2725 2625 2413 2481 
Q 2819 2388 3044 2092 
Q 3269 1797 3269 1353 
Q 3269 753 2831 336 
Q 2394 -81 1725 -81 
Q 1122 -81 723 278 
Q 325 638 269 1209 
z
" transform="scale(0.015625)"/>
       </defs>
       <use xlink:href="#ArialMT-2212"/>
       <use xlink:href="#ArialMT-33" transform="translate(58.398438 0)"/>
      </g>
     </g>
    </g>
    <g id="ytick_2">
     <g id="text_4">
      <!-- −2 -->
      <g style="fill: #262626" transform="translate(24.255937 275.897573) scale(0.1 -0.1)">
       <defs>
        <path id="ArialMT-32" d="M 3222 541 
L 3222 0 
L 194 0 
Q 188 203 259 391 
Q 375 700 629 1000 
Q 884 1300 1366 1694 
Q 2113 2306 2375 2664 
Q 2638 3022 2638 3341 
Q 2638 3675 2398 3904 
Q 2159 4134 1775 4134 
Q 1369 4134 1125 3890 
Q 881 3647 878 3216 
L 300 3275 
Q 359 3922 746 4261 
Q 1134 4600 1788 4600 
Q 2447 4600 2831 4234 
Q 3216 3869 3216 3328 
Q 3216 3053 3103 2787 
Q 2991 2522 2730 2228 
Q 2469 1934 1863 1422 
Q 1356 997 1212 845 
Q 1069 694 975 541 
L 3222 541 
z
" transform="scale(0.015625)"/>
       </defs>
       <use xlink:href="#ArialMT-2212"/>
       <use xlink:href="#ArialMT-32" transform="translate(58.398438 0)"/>
      </g>
     </g>
    </g>
    <g id="ytick_3">
     <g id="text_5">
      <!-- −1 -->
      <g style="fill: #262626" transform="translate(24.255937 225.954926) scale(0.1 -0.1)">
       <defs>
        <path id="ArialMT-31" d="M 2384 0 
L 1822 0 
L 1822 3584 
Q 1619 3391 1289 3197 
Q 959 3003 697 2906 
L 697 3450 
Q 1169 3672 1522 3987 
Q 1875 4303 2022 4600 
L 2384 4600 
L 2384 0 
z
" transform="scale(0.015625)"/>
       </defs>
       <use xlink:href="#ArialMT-2212"/>
       <use xlink:href="#ArialMT-31" transform="translate(58.398438 0)"/>
      </g>
     </g>
    </g>
    <g id="ytick_4">
     <g id="text_6">
      <!-- 0 -->
      <g style="fill: #262626" transform="translate(30.096562 176.012278) scale(0.1 -0.1)">
       <defs>
        <path id="ArialMT-30" d="M 266 2259 
Q 266 3072 433 3567 
Q 600 4063 929 4331 
Q 1259 4600 1759 4600 
Q 2128 4600 2406 4451 
Q 2684 4303 2865 4023 
Q 3047 3744 3150 3342 
Q 3253 2941 3253 2259 
Q 3253 1453 3087 958 
Q 2922 463 2592 192 
Q 2263 -78 1759 -78 
Q 1097 -78 719 397 
Q 266 969 266 2259 
z
M 844 2259 
Q 844 1131 1108 757 
Q 1372 384 1759 384 
Q 2147 384 2411 759 
Q 2675 1134 2675 2259 
Q 2675 3391 2411 3762 
Q 2147 4134 1753 4134 
Q 1366 4134 1134 3806 
Q 844 3388 844 2259 
z
" transform="scale(0.015625)"/>
       </defs>
       <use xlink:href="#ArialMT-30"/>
      </g>
     </g>
    </g>
    <g id="ytick_5">
     <g id="text_7">
      <!-- 1 -->
      <g style="fill: #262626" transform="translate(30.096562 126.06963) scale(0.1 -0.1)">
       <use xlink:href="#ArialMT-31"/>
      </g>
     </g>
    </g>
    <g id="ytick_6">
     <g id="text_8">
      <!-- 2 -->
      <g style="fill: #262626" transform="translate(30.096562 76.126983) scale(0.1 -0.1)">
       <use xlink:href="#ArialMT-32"/>
      </g>
     </g>
    </g>
    <g id="text_9">
     <!-- Hydrophobicity -->
     <g style="fill: #262626" transform="translate(18.15125 215.844219) rotate(-90) scale(0.1 -0.1)">
      <defs>
       <path id="Arial-BoldMT-48" d="M 469 0 
L 469 4581 
L 1394 4581 
L 1394 2778 
L 3206 2778 
L 3206 4581 
L 4131 4581 
L 4131 0 
L 3206 0 
L 3206 2003 
L 1394 2003 
L 1394 0 
L 469 0 
z
" transform="scale(0.015625)"/>
       <path id="Arial-BoldMT-79" d="M 44 3319 
L 978 3319 
L 1772 963 
L 2547 3319 
L 3456 3319 
L 2284 125 
L 2075 -453 
Q 1959 -744 1854 -897 
Q 1750 -1050 1614 -1145 
Q 1478 -1241 1279 -1294 
Q 1081 -1347 831 -1347 
Q 578 -1347 334 -1294 
L 256 -606 
Q 463 -647 628 -647 
Q 934 -647 1081 -467 
Q 1228 -288 1306 -9 
L 44 3319 
z
" transform="scale(0.015625)"/>
       <path id="Arial-BoldMT-64" d="M 3503 0 
L 2688 0 
L 2688 488 
Q 2484 203 2207 64 
Q 1931 -75 1650 -75 
Q 1078 -75 670 386 
Q 263 847 263 1672 
Q 263 2516 659 2955 
Q 1056 3394 1663 3394 
Q 2219 3394 2625 2931 
L 2625 4581 
L 3503 4581 
L 3503 0 
z
M 1159 1731 
Q 1159 1200 1306 963 
Q 1519 619 1900 619 
Q 2203 619 2415 876 
Q 2628 1134 2628 1647 
Q 2628 2219 2422 2470 
Q 2216 2722 1894 2722 
Q 1581 2722 1370 2473 
Q 1159 2225 1159 1731 
z
" transform="scale(0.015625)"/>
       <path id="Arial-BoldMT-70" d="M 434 3319 
L 1253 3319 
L 1253 2831 
Q 1413 3081 1684 3237 
Q 1956 3394 2288 3394 
Q 2866 3394 3269 2941 
Q 3672 2488 3672 1678 
Q 3672 847 3265 386 
Q 2859 -75 2281 -75 
Q 2006 -75 1782 34 
Q 1559 144 1313 409 
L 1313 -1263 
L 434 -1263 
L 434 3319 
z
M 1303 1716 
Q 1303 1156 1525 889 
Q 1747 622 2066 622 
Q 2372 622 2575 867 
Q 2778 1113 2778 1672 
Q 2778 2194 2568 2447 
Q 2359 2700 2050 2700 
Q 1728 2700 1515 2451 
Q 1303 2203 1303 1716 
z
" transform="scale(0.015625)"/>
       <path id="Arial-BoldMT-68" d="M 1334 4581 
L 1334 2897 
Q 1759 3394 2350 3394 
Q 2653 3394 2897 3281 
Q 3141 3169 3264 2994 
Q 3388 2819 3433 2606 
Q 3478 2394 3478 1947 
L 3478 0 
L 2600 0 
L 2600 1753 
Q 2600 2275 2550 2415 
Q 2500 2556 2373 2639 
Q 2247 2722 2056 2722 
Q 1838 2722 1666 2615 
Q 1494 2509 1414 2295 
Q 1334 2081 1334 1663 
L 1334 0 
L 456 0 
L 456 4581 
L 1334 4581 
z
" transform="scale(0.015625)"/>
       <path id="Arial-BoldMT-74" d="M 1981 3319 
L 1981 2619 
L 1381 2619 
L 1381 1281 
Q 1381 875 1398 808 
Q 1416 741 1477 697 
Q 1538 653 1625 653 
Q 1747 653 1978 738 
L 2053 56 
Q 1747 -75 1359 -75 
Q 1122 -75 931 4 
Q 741 84 652 211 
Q 563 338 528 553 
Q 500 706 500 1172 
L 500 2619 
L 97 2619 
L 97 3319 
L 500 3319 
L 500 3978 
L 1381 4491 
L 1381 3319 
L 1981 3319 
z
" transform="scale(0.015625)"/>
      </defs>
      <use xlink:href="#Arial-BoldMT-48"/>
      <use xlink:href="#Arial-BoldMT-79" transform="translate(72.216797 0)"/>
      <use xlink:href="#Arial-BoldMT-64" transform="translate(127.832031 0)"/>
      <use xlink:href="#Arial-BoldMT-72" transform="translate(188.916016 0)"/>
      <use xlink:href="#Arial-BoldMT-6f" transform="translate(227.832031 0)"/>
      <use xlink:href="#Arial-BoldMT-70" transform="translate(288.916016 0)"/>
      <use xlink:href="#Arial-BoldMT-68" transform="translate(350 0)"/>
      <use xlink:href="#Arial-BoldMT-6f" transform="translate(411.083984 0)"/>
      <use xlink:href="#Arial-BoldMT-62" transform="translate(472.167969 0)"/>
      <use xlink:href="#Arial-BoldMT-69" transform="translate(533.251953 0)"/>
      <use xlink:href="#Arial-BoldMT-63" transform="translate(561.035156 0)"/>
      <use xlink:href="#Arial-BoldMT-69" transform="translate(616.650391 0)"/>
      <use xlink:href="#Arial-BoldMT-74" transform="translate(644.433594 0)"/>
      <use xlink:href="#Arial-BoldMT-79" transform="translate(677.734375 0)"/>
     </g>
    </g>
   </g>
   <g id="patch_3">
    <path d="M 56.59125 220.351559 
L 180.446806 220.351559 
L 180.446806 165.41643 
L 56.59125 165.41643 
L 56.59125 220.351559 
z
" clip-path="url(#p7735f51723)" style="fill: #117a7a; stroke: #2a2a2a; stroke-linejoin: miter"/>
   </g>
   <g id="line2d_1">
    <path d="M 118.519028 220.351559 
L 118.519028 299.287697 
" clip-path="url(#p7735f51723)" style="fill: none; stroke: #2a2a2a"/>
   </g>
   <g id="line2d_2">
    <path d="M 118.519028 165.41643 
L 118.519028 86.395811 
" clip-path="url(#p7735f51723)" style="fill: none; stroke: #2a2a2a"/>
   </g>
   <g id="line2d_3">
    <path d="M 87.555139 299.287697 
L 149.482917 299.287697 
" clip-path="url(#p7735f51723)" style="fill: none; stroke: #2a2a2a; stroke-linecap: round"/>
   </g>
   <g id="line2d_4">
    <path d="M 87.555139 86.395811 
L 149.482917 86.395811 
" clip-path="url(#p7735f51723)" style="fill: none; stroke: #2a2a2a; stroke-linecap: round"/>
   </g>
   <g id="line2d_5">
    <defs>
     <path id="mf0a4cd61df" d="M 0 3 
C 0.795609 3 1.55874 2.683901 2.12132 2.12132 
C 2.683901 1.55874 3 0.795609 3 0 
C 3 -0.795609 2.683901 -1.55874 2.12132 -2.12132 
C 1.55874 -2.683901 0.795609 -3 0 -3 
C -0.795609 -3 -1.55874 -2.683901 -2.12132 -2.12132 
C -2.683901 -1.55874 -3 -0.795609 -3 0 
C -3 0.795609 -2.683901 1.55874 -2.12132 2.12132 
C -1.55874 2.683901 -0.795609 3 0 3 
z
" style="stroke: #2a2a2a"/>
    </defs>
    <g clip-path="url(#p7735f51723)">
     <use xlink:href="#mf0a4cd61df" x="118.519028" y="318.265903" style="fill-opacity: 0; stroke: #2a2a2a"/>
     <use xlink:href="#mf0a4cd61df" x="118.519028" y="318.76533" style="fill-opacity: 0; stroke: #2a2a2a"/>
     <use xlink:href="#mf0a4cd61df" x="118.519028" y="70.050944" style="fill-opacity: 0; stroke: #2a2a2a"/>
     <use xlink:href="#mf0a4cd61df" x="118.519028" y="58.47333" style="fill-opacity: 0; stroke: #2a2a2a"/>
    </g>
   </g>
   <g id="patch_4">
    <path d="M 211.410694 190.661663 
L 335.26625 190.661663 
L 335.26625 146.556838 
L 211.410694 146.556838 
L 211.410694 190.661663 
z
" clip-path="url(#p7735f51723)" style="fill: #df8920; stroke: #2a2a2a; stroke-linejoin: miter"/>
   </g>
   <g id="line2d_6">
    <path d="M 273.338472 190.661663 
L 273.338472 256.586733 
" clip-path="url(#p7735f51723)" style="fill: none; stroke: #2a2a2a"/>
   </g>
   <g id="line2d_7">
    <path d="M 273.338472 146.556838 
L 273.338472 81.768258 
" clip-path="url(#p7735f51723)" style="fill: none; stroke: #2a2a2a"/>
   </g>
   <g id="line2d_8">
    <path d="M 242.374583 256.586733 
L 304.302361 256.586733 
" clip-path="url(#p7735f51723)" style="fill: none; stroke: #2a2a2a; stroke-linecap: round"/>
   </g>
   <g id="line2d_9">
    <path d="M 242.374583 81.768258 
L 304.302361 81.768258 
" clip-path="url(#p7735f51723)" style="fill: none; stroke: #2a2a2a; stroke-linecap: round"/>
   </g>
   <g id="line2d_10">
    <g clip-path="url(#p7735f51723)">
     <use xlink:href="#mf0a4cd61df" x="273.338472" y="277.050076" style="fill-opacity: 0; stroke: #2a2a2a"/>
     <use xlink:href="#mf0a4cd61df" x="273.338472" y="258.124441" style="fill-opacity: 0; stroke: #2a2a2a"/>
     <use xlink:href="#mf0a4cd61df" x="273.338472" y="265.019357" style="fill-opacity: 0; stroke: #2a2a2a"/>
     <use xlink:href="#mf0a4cd61df" x="273.338472" y="265.019357" style="fill-opacity: 0; stroke: #2a2a2a"/>
     <use xlink:href="#mf0a4cd61df" x="273.338472" y="265.019357" style="fill-opacity: 0; stroke: #2a2a2a"/>
     <use xlink:href="#mf0a4cd61df" x="273.338472" y="258.334726" style="fill-opacity: 0; stroke: #2a2a2a"/>
     <use xlink:href="#mf0a4cd61df" x="273.338472" y="263.328991" style="fill-opacity: 0; stroke: #2a2a2a"/>
     <use xlink:href="#mf0a4cd61df" x="273.338472" y="77.542341" style="fill-opacity: 0; stroke: #2a2a2a"/>
     <use xlink:href="#mf0a4cd61df" x="273.338472" y="77.542341" style="fill-opacity: 0; stroke: #2a2a2a"/>
     <use xlink:href="#mf0a4cd61df" x="273.338472" y="71.395554" style="fill-opacity: 0; stroke: #2a2a2a"/>
     <use xlink:href="#mf0a4cd61df" x="273.338472" y="78.31069" style="fill-opacity: 0; stroke: #2a2a2a"/>
     <use xlink:href="#mf0a4cd61df" x="273.338472" y="72.932251" style="fill-opacity: 0; stroke: #2a2a2a"/>
     <use xlink:href="#mf0a4cd61df" x="273.338472" y="79.847387" style="fill-opacity: 0; stroke: #2a2a2a"/>
     <use xlink:href="#mf0a4cd61df" x="273.338472" y="54.901674" style="fill-opacity: 0; stroke: #2a2a2a"/>
     <use xlink:href="#mf0a4cd61df" x="273.338472" y="67.220861" style="fill-opacity: 0; stroke: #2a2a2a"/>
     <use xlink:href="#mf0a4cd61df" x="273.338472" y="68.552665" style="fill-opacity: 0; stroke: #2a2a2a"/>
     <use xlink:href="#mf0a4cd61df" x="273.338472" y="67.220861" style="fill-opacity: 0; stroke: #2a2a2a"/>
     <use xlink:href="#mf0a4cd61df" x="273.338472" y="54.901674" style="fill-opacity: 0; stroke: #2a2a2a"/>
     <use xlink:href="#mf0a4cd61df" x="273.338472" y="68.552665" style="fill-opacity: 0; stroke: #2a2a2a"/>
     <use xlink:href="#mf0a4cd61df" x="273.338472" y="67.220861" style="fill-opacity: 0; stroke: #2a2a2a"/>
     <use xlink:href="#mf0a4cd61df" x="273.338472" y="54.901674" style="fill-opacity: 0; stroke: #2a2a2a"/>
     <use xlink:href="#mf0a4cd61df" x="273.338472" y="68.552665" style="fill-opacity: 0; stroke: #2a2a2a"/>
    </g>
   </g>
   <g id="line2d_11">
    <path d="M 118.519028 37.27192 
L 273.338472 37.27192 
" clip-path="url(#p7735f51723)" style="fill: none; stroke: #000000; stroke-width: 1.5; stroke-linecap: round"/>
   </g>
   <g id="line2d_12">
    <path d="M 56.59125 195.251743 
L 180.446806 195.251743 
" clip-path="url(#p7735f51723)" style="fill: none; stroke: #2a2a2a"/>
   </g>
   <g id="line2d_13">
    <path d="M 211.410694 172.132581 
L 335.26625 172.132581 
" clip-path="url(#p7735f51723)" style="fill: none; stroke: #2a2a2a"/>
   </g>
   <g id="patch_5">
    <path d="M 42.6575 332.84 
L 42.6575 25.51875 
" style="fill: none; stroke: #262626; stroke-width: 0.8; stroke-linejoin: miter; stroke-linecap: square"/>
   </g>
   <g id="patch_6">
    <path d="M 349.2 332.84 
L 349.2 25.51875 
" style="fill: none; stroke: #262626; stroke-width: 0.8; stroke-linejoin: miter; stroke-linecap: square"/>
   </g>
   <g id="patch_7">
    <path d="M 42.6575 332.84 
L 349.2 332.84 
" style="fill: none; stroke: #262626; stroke-width: 0.8; stroke-linejoin: miter; stroke-linecap: square"/>
   </g>
   <g id="patch_8">
    <path d="M 42.6575 25.51875 
L 349.2 25.51875 
" style="fill: none; stroke: #262626; stroke-width: 0.8; stroke-linejoin: miter; stroke-linecap: square"/>
   </g>
   <g id="text_10">
    <!-- **** -->
    <g transform="translate(186.5875 34.88692) scale(0.12 -0.12)">
     <defs>
      <path id="ArialMT-2a" d="M 200 3741 
L 344 4184 
Q 841 4009 1066 3881 
Q 1006 4447 1003 4659 
L 1456 4659 
Q 1447 4350 1384 3884 
Q 1706 4047 2122 4184 
L 2266 3741 
Q 1869 3609 1488 3566 
Q 1678 3400 2025 2975 
L 1650 2709 
Q 1469 2956 1222 3381 
Q 991 2941 816 2709 
L 447 2975 
Q 809 3422 966 3566 
Q 563 3644 200 3741 
z
" transform="scale(0.015625)"/>
     </defs>
     <use xlink:href="#ArialMT-2a"/>
     <use xlink:href="#ArialMT-2a" transform="translate(38.916016 0)"/>
     <use xlink:href="#ArialMT-2a" transform="translate(77.832031 0)"/>
     <use xlink:href="#ArialMT-2a" transform="translate(116.748047 0)"/>
    </g>
   </g>
   <g id="text_11">
    <!-- Hydrophobicity Distribution -->
    <g style="fill: #262626" transform="translate(116.604063 19.51875) scale(0.12 -0.12)">
     <defs>
      <path id="Arial-BoldMT-44" d="M 463 4581 
L 2153 4581 
Q 2725 4581 3025 4494 
Q 3428 4375 3715 4072 
Q 4003 3769 4153 3330 
Q 4303 2891 4303 2247 
Q 4303 1681 4163 1272 
Q 3991 772 3672 463 
Q 3431 228 3022 97 
Q 2716 0 2203 0 
L 463 0 
L 463 4581 
z
M 1388 3806 
L 1388 772 
L 2078 772 
Q 2466 772 2638 816 
Q 2863 872 3011 1006 
Q 3159 1141 3253 1448 
Q 3347 1756 3347 2288 
Q 3347 2819 3253 3103 
Q 3159 3388 2990 3547 
Q 2822 3706 2563 3763 
Q 2369 3806 1803 3806 
L 1388 3806 
z
" transform="scale(0.015625)"/>
      <path id="Arial-BoldMT-6e" d="M 3478 0 
L 2600 0 
L 2600 1694 
Q 2600 2231 2544 2389 
Q 2488 2547 2361 2634 
Q 2234 2722 2056 2722 
Q 1828 2722 1647 2597 
Q 1466 2472 1398 2265 
Q 1331 2059 1331 1503 
L 1331 0 
L 453 0 
L 453 3319 
L 1269 3319 
L 1269 2831 
Q 1703 3394 2363 3394 
Q 2653 3394 2893 3289 
Q 3134 3184 3257 3021 
Q 3381 2859 3429 2653 
Q 3478 2447 3478 2063 
L 3478 0 
z
" transform="scale(0.015625)"/>
     </defs>
     <use xlink:href="#Arial-BoldMT-48"/>
     <use xlink:href="#Arial-BoldMT-79" transform="translate(72.216797 0)"/>
     <use xlink:href="#Arial-BoldMT-64" transform="translate(127.832031 0)"/>
     <use xlink:href="#Arial-BoldMT-72" transform="translate(188.916016 0)"/>
     <use xlink:href="#Arial-BoldMT-6f" transform="translate(227.832031 0)"/>
     <use xlink:href="#Arial-BoldMT-70" transform="translate(288.916016 0)"/>
     <use xlink:href="#Arial-BoldMT-68" transform="translate(350 0)"/>
     <use xlink:href="#Arial-BoldMT-6f" transform="translate(411.083984 0)"/>
     <use xlink:href="#Arial-BoldMT-62" transform="translate(472.167969 0)"/>
     <use xlink:href="#Arial-BoldMT-69" transform="translate(533.251953 0)"/>
     <use xlink:href="#Arial-BoldMT-63" transform="translate(561.035156 0)"/>
     <use xlink:href="#Arial-BoldMT-69" transform="translate(616.650391 0)"/>
     <use xlink:href="#Arial-BoldMT-74" transform="translate(644.433594 0)"/>
     <use xlink:href="#Arial-BoldMT-79" transform="translate(677.734375 0)"/>
     <use xlink:href="#Arial-BoldMT-20" transform="translate(733.349609 0)"/>
     <use xlink:href="#Arial-BoldMT-44" transform="translate(761.132812 0)"/>
     <use xlink:href="#Arial-BoldMT-69" transform="translate(833.349609 0)"/>
     <use xlink:href="#Arial-BoldMT-73" transform="translate(861.132812 0)"/>
     <use xlink:href="#Arial-BoldMT-74" transform="translate(916.748047 0)"/>
     <use xlink:href="#Arial-BoldMT-72" transform="translate(950.048828 0)"/>
     <use xlink:href="#Arial-BoldMT-69" transform="translate(988.964844 0)"/>
     <use xlink:href="#Arial-BoldMT-62" transform="translate(1016.748047 0)"/>
     <use xlink:href="#Arial-BoldMT-75" transform="translate(1077.832031 0)"/>
     <use xlink:href="#Arial-BoldMT-74" transform="translate(1138.916016 0)"/>
     <use xlink:href="#Arial-BoldMT-69" transform="translate(1172.216797 0)"/>
     <use xlink:href="#Arial-BoldMT-6f" transform="translate(1200 0)"/>
     <use xlink:href="#Arial-BoldMT-6e" transform="translate(1261.083984 0)"/>
    </g>
   </g>
  </g>
 </g>
 <defs>
  <clipPath id="p7735f51723">
   <rect x="42.6575" y="25.51875" width="306.5425" height="307.32125"/>
  </clipPath>
 </defs>
</svg>
