<?xml version="1.0" encoding="utf-8" standalone="no"?>
<!DOCTYPE svg PUBLIC "-//W3C//DTD SVG 1.1//EN"
  "http://www.w3.org/Graphics/SVG/1.1/DTD/svg11.dtd">
<svg xmlns:xlink="http://www.w3.org/1999/xlink" width="496.841875pt" height="352.441688pt" viewBox="0 0 496.841875 352.441688" xmlns="http://www.w3.org/2000/svg" version="1.1">
 <metadata>
  <rdf:RDF xmlns:dc="http://purl.org/dc/elements/1.1/" xmlns:cc="http://creativecommons.org/ns#" xmlns:rdf="http://www.w3.org/1999/02/22-rdf-syntax-ns#">
   <cc:Work>
    <dc:type rdf:resource="http://purl.org/dc/dcmitype/StillImage"/>
    <dc:date>2025-06-26T11:51:28.591439</dc:date>
    <dc:format>image/svg+xml</dc:format>
    <dc:creator>
     <cc:Agent>
      <dc:title>Matplotlib v3.10.0, https://matplotlib.org/</dc:title>
     </cc:Agent>
    </dc:creator>
   </cc:Work>
  </rdf:RDF>
 </metadata>
 <defs>
  <style type="text/css">*{stroke-linejoin: round; stroke-linecap: butt}</style>
 </defs>
 <g id="figure_1">
  <g id="patch_1">
   <path d="M 0 352.441688 
L 496.841875 352.441688 
L 496.841875 0 
L 0 0 
z
" style="fill: #ffffff"/>
  </g>
  <g id="axes_1">
   <g id="patch_2">
    <path d="M 51.418125 313.97575 
L 489.641875 313.97575 
L 489.641875 52.568 
L 51.418125 52.568 
z
" style="fill: #ffffff"/>
   </g>
   <g id="matplotlib.axis_1">
    <g id="xtick_1">
     <g id="text_1">
      <!-- 0 -->
      <g style="fill: #262626" transform="translate(68.544825 328.133562) scale(0.1 -0.1)">
       <defs>
        <path id="ArialMT-30" d="M 266 2259 
Q 266 3072 433 3567 
Q 600 4063 929 4331 
Q 1259 4600 1759 4600 
Q 2128 4600 2406 4451 
Q 2684 4303 2865 4023 
Q 3047 3744 3150 3342 
Q 3253 2941 3253 2259 
Q 3253 1453 3087 958 
Q 2922 463 2592 192 
Q 2263 -78 1759 -78 
Q 1097 -78 719 397 
Q 266 969 266 2259 
z
M 844 2259 
Q 844 1131 1108 757 
Q 1372 384 1759 384 
Q 2147 384 2411 759 
Q 2675 1134 2675 2259 
Q 2675 3391 2411 3762 
Q 2147 4134 1753 4134 
Q 1366 4134 1134 3806 
Q 844 3388 844 2259 
z
" transform="scale(0.015625)"/>
       </defs>
       <use xlink:href="#ArialMT-30"/>
      </g>
     </g>
    </g>
    <g id="xtick_2">
     <g id="text_2">
      <!-- 5000 -->
      <g style="fill: #262626" transform="translate(120.667422 328.133562) scale(0.1 -0.1)">
       <defs>
        <path id="ArialMT-35" d="M 266 1200 
L 856 1250 
Q 922 819 1161 601 
Q 1400 384 1738 384 
Q 2144 384 2425 690 
Q 2706 997 2706 1503 
Q 2706 1984 2436 2262 
Q 2166 2541 1728 2541 
Q 1456 2541 1237 2417 
Q 1019 2294 894 2097 
L 366 2166 
L 809 4519 
L 3088 4519 
L 3088 3981 
L 1259 3981 
L 1013 2750 
Q 1425 3038 1878 3038 
Q 2478 3038 2890 2622 
Q 3303 2206 3303 1553 
Q 3303 931 2941 478 
Q 2500 -78 1738 -78 
Q 1113 -78 717 272 
Q 322 622 266 1200 
z
" transform="scale(0.015625)"/>
       </defs>
       <use xlink:href="#ArialMT-35"/>
       <use xlink:href="#ArialMT-30" transform="translate(55.615234 0)"/>
       <use xlink:href="#ArialMT-30" transform="translate(111.230469 0)"/>
       <use xlink:href="#ArialMT-30" transform="translate(166.845703 0)"/>
      </g>
     </g>
    </g>
    <g id="xtick_3">
     <g id="text_3">
      <!-- 10000 -->
      <g style="fill: #262626" transform="translate(178.350957 328.133562) scale(0.1 -0.1)">
       <defs>
        <path id="ArialMT-31" d="M 2384 0 
L 1822 0 
L 1822 3584 
Q 1619 3391 1289 3197 
Q 959 3003 697 2906 
L 697 3450 
Q 1169 3672 1522 3987 
Q 1875 4303 2022 4600 
L 2384 4600 
L 2384 0 
z
" transform="scale(0.015625)"/>
       </defs>
       <use xlink:href="#ArialMT-31"/>
       <use xlink:href="#ArialMT-30" transform="translate(55.615234 0)"/>
       <use xlink:href="#ArialMT-30" transform="translate(111.230469 0)"/>
       <use xlink:href="#ArialMT-30" transform="translate(166.845703 0)"/>
       <use xlink:href="#ArialMT-30" transform="translate(222.460938 0)"/>
      </g>
     </g>
    </g>
    <g id="xtick_4">
     <g id="text_4">
      <!-- 15000 -->
      <g style="fill: #262626" transform="translate(238.814961 328.133562) scale(0.1 -0.1)">
       <use xlink:href="#ArialMT-31"/>
       <use xlink:href="#ArialMT-35" transform="translate(55.615234 0)"/>
       <use xlink:href="#ArialMT-30" transform="translate(111.230469 0)"/>
       <use xlink:href="#ArialMT-30" transform="translate(166.845703 0)"/>
       <use xlink:href="#ArialMT-30" transform="translate(222.460938 0)"/>
      </g>
     </g>
    </g>
    <g id="xtick_5">
     <g id="text_5">
      <!-- 20000 -->
      <g style="fill: #262626" transform="translate(299.278964 328.133562) scale(0.1 -0.1)">
       <defs>
        <path id="ArialMT-32" d="M 3222 541 
L 3222 0 
L 194 0 
Q 188 203 259 391 
Q 375 700 629 1000 
Q 884 1300 1366 1694 
Q 2113 2306 2375 2664 
Q 2638 3022 2638 3341 
Q 2638 3675 2398 3904 
Q 2159 4134 1775 4134 
Q 1369 4134 1125 3890 
Q 881 3647 878 3216 
L 300 3275 
Q 359 3922 746 4261 
Q 1134 4600 1788 4600 
Q 2447 4600 2831 4234 
Q 3216 3869 3216 3328 
Q 3216 3053 3103 2787 
Q 2991 2522 2730 2228 
Q 2469 1934 1863 1422 
Q 1356 997 1212 845 
Q 1069 694 975 541 
L 3222 541 
z
" transform="scale(0.015625)"/>
       </defs>
       <use xlink:href="#ArialMT-32"/>
       <use xlink:href="#ArialMT-30" transform="translate(55.615234 0)"/>
       <use xlink:href="#ArialMT-30" transform="translate(111.230469 0)"/>
       <use xlink:href="#ArialMT-30" transform="translate(166.845703 0)"/>
       <use xlink:href="#ArialMT-30" transform="translate(222.460938 0)"/>
      </g>
     </g>
    </g>
    <g id="xtick_6">
     <g id="text_6">
      <!-- 25000 -->
      <g style="fill: #262626" transform="translate(359.742968 328.133562) scale(0.1 -0.1)">
       <use xlink:href="#ArialMT-32"/>
       <use xlink:href="#ArialMT-35" transform="translate(55.615234 0)"/>
       <use xlink:href="#ArialMT-30" transform="translate(111.230469 0)"/>
       <use xlink:href="#ArialMT-30" transform="translate(166.845703 0)"/>
       <use xlink:href="#ArialMT-30" transform="translate(222.460938 0)"/>
      </g>
     </g>
    </g>
    <g id="xtick_7">
     <g id="text_7">
      <!-- 30000 -->
      <g style="fill: #262626" transform="translate(420.206972 328.133562) scale(0.1 -0.1)">
       <defs>
        <path id="ArialMT-33" d="M 269 1209 
L 831 1284 
Q 928 806 1161 595 
Q 1394 384 1728 384 
Q 2125 384 2398 659 
Q 2672 934 2672 1341 
Q 2672 1728 2419 1979 
Q 2166 2231 1775 2231 
Q 1616 2231 1378 2169 
L 1441 2663 
Q 1497 2656 1531 2656 
Q 1891 2656 2178 2843 
Q 2466 3031 2466 3422 
Q 2466 3731 2256 3934 
Q 2047 4138 1716 4138 
Q 1388 4138 1169 3931 
Q 950 3725 888 3313 
L 325 3413 
Q 428 3978 793 4289 
Q 1159 4600 1703 4600 
Q 2078 4600 2393 4439 
Q 2709 4278 2876 4000 
Q 3044 3722 3044 3409 
Q 3044 3113 2884 2869 
Q 2725 2625 2413 2481 
Q 2819 2388 3044 2092 
Q 3269 1797 3269 1353 
Q 3269 753 2831 336 
Q 2394 -81 1725 -81 
Q 1122 -81 723 278 
Q 325 638 269 1209 
z
" transform="scale(0.015625)"/>
       </defs>
       <use xlink:href="#ArialMT-33"/>
       <use xlink:href="#ArialMT-30" transform="translate(55.615234 0)"/>
       <use xlink:href="#ArialMT-30" transform="translate(111.230469 0)"/>
       <use xlink:href="#ArialMT-30" transform="translate(166.845703 0)"/>
       <use xlink:href="#ArialMT-30" transform="translate(222.460938 0)"/>
      </g>
     </g>
    </g>
    <g id="text_8">
     <!-- Genome position -->
     <g style="fill: #262626" transform="translate(225.172812 342.856688) scale(0.12 -0.12)">
      <defs>
       <path id="ArialMT-47" d="M 2638 1797 
L 2638 2334 
L 4578 2338 
L 4578 638 
Q 4131 281 3656 101 
Q 3181 -78 2681 -78 
Q 2006 -78 1454 211 
Q 903 500 622 1047 
Q 341 1594 341 2269 
Q 341 2938 620 3517 
Q 900 4097 1425 4378 
Q 1950 4659 2634 4659 
Q 3131 4659 3532 4498 
Q 3934 4338 4162 4050 
Q 4391 3763 4509 3300 
L 3963 3150 
Q 3859 3500 3706 3700 
Q 3553 3900 3268 4020 
Q 2984 4141 2638 4141 
Q 2222 4141 1919 4014 
Q 1616 3888 1430 3681 
Q 1244 3475 1141 3228 
Q 966 2803 966 2306 
Q 966 1694 1177 1281 
Q 1388 869 1791 669 
Q 2194 469 2647 469 
Q 3041 469 3416 620 
Q 3791 772 3984 944 
L 3984 1797 
L 2638 1797 
z
" transform="scale(0.015625)"/>
       <path id="ArialMT-65" d="M 2694 1069 
L 3275 997 
Q 3138 488 2766 206 
Q 2394 -75 1816 -75 
Q 1088 -75 661 373 
Q 234 822 234 1631 
Q 234 2469 665 2931 
Q 1097 3394 1784 3394 
Q 2450 3394 2872 2941 
Q 3294 2488 3294 1666 
Q 3294 1616 3291 1516 
L 816 1516 
Q 847 969 1125 678 
Q 1403 388 1819 388 
Q 2128 388 2347 550 
Q 2566 713 2694 1069 
z
M 847 1978 
L 2700 1978 
Q 2663 2397 2488 2606 
Q 2219 2931 1791 2931 
Q 1403 2931 1139 2672 
Q 875 2413 847 1978 
z
" transform="scale(0.015625)"/>
       <path id="ArialMT-6e" d="M 422 0 
L 422 3319 
L 928 3319 
L 928 2847 
Q 1294 3394 1984 3394 
Q 2284 3394 2536 3286 
Q 2788 3178 2913 3003 
Q 3038 2828 3088 2588 
Q 3119 2431 3119 2041 
L 3119 0 
L 2556 0 
L 2556 2019 
Q 2556 2363 2490 2533 
Q 2425 2703 2258 2804 
Q 2091 2906 1866 2906 
Q 1506 2906 1245 2678 
Q 984 2450 984 1813 
L 984 0 
L 422 0 
z
" transform="scale(0.015625)"/>
       <path id="ArialMT-6f" d="M 213 1659 
Q 213 2581 725 3025 
Q 1153 3394 1769 3394 
Q 2453 3394 2887 2945 
Q 3322 2497 3322 1706 
Q 3322 1066 3130 698 
Q 2938 331 2570 128 
Q 2203 -75 1769 -75 
Q 1072 -75 642 372 
Q 213 819 213 1659 
z
M 791 1659 
Q 791 1022 1069 705 
Q 1347 388 1769 388 
Q 2188 388 2466 706 
Q 2744 1025 2744 1678 
Q 2744 2294 2464 2611 
Q 2184 2928 1769 2928 
Q 1347 2928 1069 2612 
Q 791 2297 791 1659 
z
" transform="scale(0.015625)"/>
       <path id="ArialMT-6d" d="M 422 0 
L 422 3319 
L 925 3319 
L 925 2853 
Q 1081 3097 1340 3245 
Q 1600 3394 1931 3394 
Q 2300 3394 2536 3241 
Q 2772 3088 2869 2813 
Q 3263 3394 3894 3394 
Q 4388 3394 4653 3120 
Q 4919 2847 4919 2278 
L 4919 0 
L 4359 0 
L 4359 2091 
Q 4359 2428 4304 2576 
Q 4250 2725 4106 2815 
Q 3963 2906 3769 2906 
Q 3419 2906 3187 2673 
Q 2956 2441 2956 1928 
L 2956 0 
L 2394 0 
L 2394 2156 
Q 2394 2531 2256 2718 
Q 2119 2906 1806 2906 
Q 1569 2906 1367 2781 
Q 1166 2656 1075 2415 
Q 984 2175 984 1722 
L 984 0 
L 422 0 
z
" transform="scale(0.015625)"/>
       <path id="ArialMT-20" transform="scale(0.015625)"/>
       <path id="ArialMT-70" d="M 422 -1272 
L 422 3319 
L 934 3319 
L 934 2888 
Q 1116 3141 1344 3267 
Q 1572 3394 1897 3394 
Q 2322 3394 2647 3175 
Q 2972 2956 3137 2557 
Q 3303 2159 3303 1684 
Q 3303 1175 3120 767 
Q 2938 359 2589 142 
Q 2241 -75 1856 -75 
Q 1575 -75 1351 44 
Q 1128 163 984 344 
L 984 -1272 
L 422 -1272 
z
M 931 1641 
Q 931 1000 1190 694 
Q 1450 388 1819 388 
Q 2194 388 2461 705 
Q 2728 1022 2728 1688 
Q 2728 2322 2467 2637 
Q 2206 2953 1844 2953 
Q 1484 2953 1207 2617 
Q 931 2281 931 1641 
z
" transform="scale(0.015625)"/>
       <path id="ArialMT-73" d="M 197 991 
L 753 1078 
Q 800 744 1014 566 
Q 1228 388 1613 388 
Q 2000 388 2187 545 
Q 2375 703 2375 916 
Q 2375 1106 2209 1216 
Q 2094 1291 1634 1406 
Q 1016 1563 777 1677 
Q 538 1791 414 1992 
Q 291 2194 291 2438 
Q 291 2659 392 2848 
Q 494 3038 669 3163 
Q 800 3259 1026 3326 
Q 1253 3394 1513 3394 
Q 1903 3394 2198 3281 
Q 2494 3169 2634 2976 
Q 2775 2784 2828 2463 
L 2278 2388 
Q 2241 2644 2061 2787 
Q 1881 2931 1553 2931 
Q 1166 2931 1000 2803 
Q 834 2675 834 2503 
Q 834 2394 903 2306 
Q 972 2216 1119 2156 
Q 1203 2125 1616 2013 
Q 2213 1853 2448 1751 
Q 2684 1650 2818 1456 
Q 2953 1263 2953 975 
Q 2953 694 2789 445 
Q 2625 197 2315 61 
Q 2006 -75 1616 -75 
Q 969 -75 630 194 
Q 291 463 197 991 
z
" transform="scale(0.015625)"/>
       <path id="ArialMT-69" d="M 425 3934 
L 425 4581 
L 988 4581 
L 988 3934 
L 425 3934 
z
M 425 0 
L 425 3319 
L 988 3319 
L 988 0 
L 425 0 
z
" transform="scale(0.015625)"/>
       <path id="ArialMT-74" d="M 1650 503 
L 1731 6 
Q 1494 -44 1306 -44 
Q 1000 -44 831 53 
Q 663 150 594 308 
Q 525 466 525 972 
L 525 2881 
L 113 2881 
L 113 3319 
L 525 3319 
L 525 4141 
L 1084 4478 
L 1084 3319 
L 1650 3319 
L 1650 2881 
L 1084 2881 
L 1084 941 
Q 1084 700 1114 631 
Q 1144 563 1211 522 
Q 1278 481 1403 481 
Q 1497 481 1650 503 
z
" transform="scale(0.015625)"/>
      </defs>
      <use xlink:href="#ArialMT-47"/>
      <use xlink:href="#ArialMT-65" transform="translate(77.783203 0)"/>
      <use xlink:href="#ArialMT-6e" transform="translate(133.398438 0)"/>
      <use xlink:href="#ArialMT-6f" transform="translate(189.013672 0)"/>
      <use xlink:href="#ArialMT-6d" transform="translate(244.628906 0)"/>
      <use xlink:href="#ArialMT-65" transform="translate(327.929688 0)"/>
      <use xlink:href="#ArialMT-20" transform="translate(383.544922 0)"/>
      <use xlink:href="#ArialMT-70" transform="translate(411.328125 0)"/>
      <use xlink:href="#ArialMT-6f" transform="translate(466.943359 0)"/>
      <use xlink:href="#ArialMT-73" transform="translate(522.558594 0)"/>
      <use xlink:href="#ArialMT-69" transform="translate(572.558594 0)"/>
      <use xlink:href="#ArialMT-74" transform="translate(594.775391 0)"/>
      <use xlink:href="#ArialMT-69" transform="translate(622.558594 0)"/>
      <use xlink:href="#ArialMT-6f" transform="translate(644.775391 0)"/>
      <use xlink:href="#ArialMT-6e" transform="translate(700.390625 0)"/>
     </g>
    </g>
   </g>
   <g id="matplotlib.axis_2">
    <g id="ytick_1">
     <g id="text_9">
      <!-- 0 -->
      <g style="fill: #262626" transform="translate(38.857188 305.672486) scale(0.1 -0.1)">
       <use xlink:href="#ArialMT-30"/>
      </g>
     </g>
    </g>
    <g id="ytick_2">
     <g id="text_10">
      <!-- 2000 -->
      <g style="fill: #262626" transform="translate(22.174375 248.291486) scale(0.1 -0.1)">
       <use xlink:href="#ArialMT-32"/>
       <use xlink:href="#ArialMT-30" transform="translate(55.615234 0)"/>
       <use xlink:href="#ArialMT-30" transform="translate(111.230469 0)"/>
       <use xlink:href="#ArialMT-30" transform="translate(166.845703 0)"/>
      </g>
     </g>
    </g>
    <g id="ytick_3">
     <g id="text_11">
      <!-- 4000 -->
      <g style="fill: #262626" transform="translate(22.174375 190.910487) scale(0.1 -0.1)">
       <defs>
        <path id="ArialMT-34" d="M 2069 0 
L 2069 1097 
L 81 1097 
L 81 1613 
L 2172 4581 
L 2631 4581 
L 2631 1613 
L 3250 1613 
L 3250 1097 
L 2631 1097 
L 2631 0 
L 2069 0 
z
M 2069 1613 
L 2069 3678 
L 634 1613 
L 2069 1613 
z
" transform="scale(0.015625)"/>
       </defs>
       <use xlink:href="#ArialMT-34"/>
       <use xlink:href="#ArialMT-30" transform="translate(55.615234 0)"/>
       <use xlink:href="#ArialMT-30" transform="translate(111.230469 0)"/>
       <use xlink:href="#ArialMT-30" transform="translate(166.845703 0)"/>
      </g>
     </g>
    </g>
    <g id="ytick_4">
     <g id="text_12">
      <!-- 6000 -->
      <g style="fill: #262626" transform="translate(22.174375 133.529488) scale(0.1 -0.1)">
       <defs>
        <path id="ArialMT-36" d="M 3184 3459 
L 2625 3416 
Q 2550 3747 2413 3897 
Q 2184 4138 1850 4138 
Q 1581 4138 1378 3988 
Q 1113 3794 959 3422 
Q 806 3050 800 2363 
Q 1003 2672 1297 2822 
Q 1591 2972 1913 2972 
Q 2475 2972 2870 2558 
Q 3266 2144 3266 1488 
Q 3266 1056 3080 686 
Q 2894 316 2569 119 
Q 2244 -78 1831 -78 
Q 1128 -78 684 439 
Q 241 956 241 2144 
Q 241 3472 731 4075 
Q 1159 4600 1884 4600 
Q 2425 4600 2770 4297 
Q 3116 3994 3184 3459 
z
M 888 1484 
Q 888 1194 1011 928 
Q 1134 663 1356 523 
Q 1578 384 1822 384 
Q 2178 384 2434 671 
Q 2691 959 2691 1453 
Q 2691 1928 2437 2201 
Q 2184 2475 1800 2475 
Q 1419 2475 1153 2201 
Q 888 1928 888 1484 
z
" transform="scale(0.015625)"/>
       </defs>
       <use xlink:href="#ArialMT-36"/>
       <use xlink:href="#ArialMT-30" transform="translate(55.615234 0)"/>
       <use xlink:href="#ArialMT-30" transform="translate(111.230469 0)"/>
       <use xlink:href="#ArialMT-30" transform="translate(166.845703 0)"/>
      </g>
     </g>
    </g>
    <g id="ytick_5">
     <g id="text_13">
      <!-- 8000 -->
      <g style="fill: #262626" transform="translate(22.174375 76.148488) scale(0.1 -0.1)">
       <defs>
        <path id="ArialMT-38" d="M 1131 2484 
Q 781 2613 612 2850 
Q 444 3088 444 3419 
Q 444 3919 803 4259 
Q 1163 4600 1759 4600 
Q 2359 4600 2725 4251 
Q 3091 3903 3091 3403 
Q 3091 3084 2923 2848 
Q 2756 2613 2416 2484 
Q 2838 2347 3058 2040 
Q 3278 1734 3278 1309 
Q 3278 722 2862 322 
Q 2447 -78 1769 -78 
Q 1091 -78 675 323 
Q 259 725 259 1325 
Q 259 1772 486 2073 
Q 713 2375 1131 2484 
z
M 1019 3438 
Q 1019 3113 1228 2906 
Q 1438 2700 1772 2700 
Q 2097 2700 2305 2904 
Q 2513 3109 2513 3406 
Q 2513 3716 2298 3927 
Q 2084 4138 1766 4138 
Q 1444 4138 1231 3931 
Q 1019 3725 1019 3438 
z
M 838 1322 
Q 838 1081 952 856 
Q 1066 631 1291 507 
Q 1516 384 1775 384 
Q 2178 384 2440 643 
Q 2703 903 2703 1303 
Q 2703 1709 2433 1975 
Q 2163 2241 1756 2241 
Q 1359 2241 1098 1978 
Q 838 1716 838 1322 
z
" transform="scale(0.015625)"/>
       </defs>
       <use xlink:href="#ArialMT-38"/>
       <use xlink:href="#ArialMT-30" transform="translate(55.615234 0)"/>
       <use xlink:href="#ArialMT-30" transform="translate(111.230469 0)"/>
       <use xlink:href="#ArialMT-30" transform="translate(166.845703 0)"/>
      </g>
     </g>
    </g>
    <g id="text_14">
     <!-- RNA-seq depth -->
     <g style="fill: #262626" transform="translate(15.789375 224.29125) rotate(-90) scale(0.12 -0.12)">
      <defs>
       <path id="ArialMT-52" d="M 503 0 
L 503 4581 
L 2534 4581 
Q 3147 4581 3465 4457 
Q 3784 4334 3975 4021 
Q 4166 3709 4166 3331 
Q 4166 2844 3850 2509 
Q 3534 2175 2875 2084 
Q 3116 1969 3241 1856 
Q 3506 1613 3744 1247 
L 4541 0 
L 3778 0 
L 3172 953 
Q 2906 1366 2734 1584 
Q 2563 1803 2427 1890 
Q 2291 1978 2150 2013 
Q 2047 2034 1813 2034 
L 1109 2034 
L 1109 0 
L 503 0 
z
M 1109 2559 
L 2413 2559 
Q 2828 2559 3062 2645 
Q 3297 2731 3419 2920 
Q 3541 3109 3541 3331 
Q 3541 3656 3305 3865 
Q 3069 4075 2559 4075 
L 1109 4075 
L 1109 2559 
z
" transform="scale(0.015625)"/>
       <path id="ArialMT-4e" d="M 488 0 
L 488 4581 
L 1109 4581 
L 3516 984 
L 3516 4581 
L 4097 4581 
L 4097 0 
L 3475 0 
L 1069 3600 
L 1069 0 
L 488 0 
z
" transform="scale(0.015625)"/>
       <path id="ArialMT-41" d="M -9 0 
L 1750 4581 
L 2403 4581 
L 4278 0 
L 3588 0 
L 3053 1388 
L 1138 1388 
L 634 0 
L -9 0 
z
M 1313 1881 
L 2866 1881 
L 2388 3150 
Q 2169 3728 2063 4100 
Q 1975 3659 1816 3225 
L 1313 1881 
z
" transform="scale(0.015625)"/>
       <path id="ArialMT-2d" d="M 203 1375 
L 203 1941 
L 1931 1941 
L 1931 1375 
L 203 1375 
z
" transform="scale(0.015625)"/>
       <path id="ArialMT-71" d="M 2538 -1272 
L 2538 353 
Q 2406 169 2170 47 
Q 1934 -75 1669 -75 
Q 1078 -75 651 397 
Q 225 869 225 1691 
Q 225 2191 398 2587 
Q 572 2984 901 3189 
Q 1231 3394 1625 3394 
Q 2241 3394 2594 2875 
L 2594 3319 
L 3100 3319 
L 3100 -1272 
L 2538 -1272 
z
M 803 1669 
Q 803 1028 1072 708 
Q 1341 388 1716 388 
Q 2075 388 2334 692 
Q 2594 997 2594 1619 
Q 2594 2281 2320 2615 
Q 2047 2950 1678 2950 
Q 1313 2950 1058 2639 
Q 803 2328 803 1669 
z
" transform="scale(0.015625)"/>
       <path id="ArialMT-64" d="M 2575 0 
L 2575 419 
Q 2259 -75 1647 -75 
Q 1250 -75 917 144 
Q 584 363 401 755 
Q 219 1147 219 1656 
Q 219 2153 384 2558 
Q 550 2963 881 3178 
Q 1213 3394 1622 3394 
Q 1922 3394 2156 3267 
Q 2391 3141 2538 2938 
L 2538 4581 
L 3097 4581 
L 3097 0 
L 2575 0 
z
M 797 1656 
Q 797 1019 1065 703 
Q 1334 388 1700 388 
Q 2069 388 2326 689 
Q 2584 991 2584 1609 
Q 2584 2291 2321 2609 
Q 2059 2928 1675 2928 
Q 1300 2928 1048 2622 
Q 797 2316 797 1656 
z
" transform="scale(0.015625)"/>
       <path id="ArialMT-68" d="M 422 0 
L 422 4581 
L 984 4581 
L 984 2938 
Q 1378 3394 1978 3394 
Q 2347 3394 2619 3248 
Q 2891 3103 3008 2847 
Q 3125 2591 3125 2103 
L 3125 0 
L 2563 0 
L 2563 2103 
Q 2563 2525 2380 2717 
Q 2197 2909 1863 2909 
Q 1613 2909 1392 2779 
Q 1172 2650 1078 2428 
Q 984 2206 984 1816 
L 984 0 
L 422 0 
z
" transform="scale(0.015625)"/>
      </defs>
      <use xlink:href="#ArialMT-52"/>
      <use xlink:href="#ArialMT-4e" transform="translate(72.216797 0)"/>
      <use xlink:href="#ArialMT-41" transform="translate(144.433594 0)"/>
      <use xlink:href="#ArialMT-2d" transform="translate(211.132812 0)"/>
      <use xlink:href="#ArialMT-73" transform="translate(244.433594 0)"/>
      <use xlink:href="#ArialMT-65" transform="translate(294.433594 0)"/>
      <use xlink:href="#ArialMT-71" transform="translate(350.048828 0)"/>
      <use xlink:href="#ArialMT-20" transform="translate(405.664062 0)"/>
      <use xlink:href="#ArialMT-64" transform="translate(433.447266 0)"/>
      <use xlink:href="#ArialMT-65" transform="translate(489.0625 0)"/>
      <use xlink:href="#ArialMT-70" transform="translate(544.677734 0)"/>
      <use xlink:href="#ArialMT-74" transform="translate(600.292969 0)"/>
      <use xlink:href="#ArialMT-68" transform="translate(628.076172 0)"/>
     </g>
    </g>
   </g>
   <g id="FillBetweenPolyCollection_1"/>
   <g id="line2d_1">
    <path d="M 71.337386 302.09358 
L 74.094545 302.036199 
L 74.191287 301.577151 
L 74.215473 301.777984 
L 74.239659 298.564648 
L 74.312215 302.007508 
L 74.324308 302.007508 
L 79.137243 301.950127 
L 79.161428 301.691913 
L 79.221892 302.09358 
L 79.233985 302.09358 
L 84.663653 302.007508 
L 84.687838 301.978818 
L 84.712024 302.09358 
L 84.73621 302.09358 
L 87.590111 302.09358 
L 87.638482 297.904767 
L 87.698946 301.921437 
L 87.844059 302.09358 
L 91.798405 302.064889 
L 91.858869 301.691913 
L 91.883055 302.09358 
L 91.90724 302.09358 
L 92.137004 302.09358 
L 92.233746 301.261555 
L 92.245839 301.978818 
L 92.270024 301.950127 
L 92.403045 302.09358 
L 92.463509 302.007508 
L 92.475602 301.978818 
L 92.523973 302.09358 
L 92.536066 302.09358 
L 93.563954 302.09358 
L 93.624418 301.835365 
L 93.672789 302.09358 
L 98.775951 302.064889 
L 98.800137 299.913102 
L 98.884786 302.036199 
L 124.702916 302.09358 
L 124.751287 301.892746 
L 124.811751 302.09358 
L 129.6005 302.064889 
L 129.660964 301.978818 
L 129.673057 302.09358 
L 129.697243 302.09358 
L 130.180955 302.09358 
L 130.241419 301.921437 
L 130.28979 302.09358 
L 142.660725 302.09358 
L 142.721189 301.978818 
L 142.76956 302.09358 
L 144.934172 302.064889 
L 144.958357 301.892746 
L 145.018821 302.09358 
L 145.043007 302.09358 
L 145.804853 302.09358 
L 145.865317 301.950127 
L 145.913688 302.09358 
L 150.315468 302.09358 
L 150.375932 301.777984 
L 150.424303 302.064889 
L 160.630627 302.09358 
L 160.691091 301.864056 
L 160.739462 302.064889 
L 160.86039 302.09358 
L 162.698496 302.09358 
L 162.746867 301.978818 
L 162.807331 302.09358 
L 163.714291 302.09358 
L 163.75057 301.777984 
L 163.823126 302.09358 
L 164.161725 302.09358 
L 164.198003 301.978818 
L 164.27056 302.09358 
L 166.834234 302.09358 
L 166.906791 301.720603 
L 166.943069 302.09358 
L 172.179252 302.09358 
L 172.191344 301.950127 
L 172.275994 299.769649 
L 172.288087 302.09358 
L 172.30018 302.09358 
L 177.899146 302.007508 
L 177.923332 301.978818 
L 177.947518 302.09358 
L 177.971703 302.09358 
L 178.34658 302.064889 
L 178.407044 301.950127 
L 178.419137 302.09358 
L 178.443322 302.09358 
L 178.878663 302.007508 
L 178.902849 301.950127 
L 178.963313 302.036199 
L 179.084241 302.09358 
L 181.768843 302.007508 
L 181.780935 301.978818 
L 181.829307 302.09358 
L 181.841399 302.09358 
L 182.192091 302.09358 
L 182.252555 301.921437 
L 182.300926 302.09358 
L 184.731579 302.064889 
L 184.792043 301.864056 
L 184.804136 302.09358 
L 184.840414 302.09358 
L 189.351029 302.007508 
L 189.411493 302.09358 
L 189.48405 301.864056 
L 189.61707 302.09358 
L 190.536123 302.036199 
L 190.584494 301.921437 
L 190.596587 302.064889 
L 190.632866 302.064889 
L 190.753794 302.09358 
L 195.469986 302.09358 
L 195.53045 301.978818 
L 195.578821 302.09358 
L 200.234549 302.09358 
L 200.307106 301.835365 
L 200.343385 302.09358 
L 200.960117 302.064889 
L 201.020581 301.864056 
L 201.032674 302.09358 
L 201.068953 302.09358 
L 204.587958 302.036199 
L 204.696793 301.978818 
L 204.817721 302.09358 
L 206.172115 302.064889 
L 206.1963 301.691913 
L 206.28095 301.777984 
L 206.401878 302.09358 
L 208.203705 302.09358 
L 208.324633 301.950127 
L 208.445561 302.09358 
L 212.665949 302.09358 
L 212.738505 301.835365 
L 212.774784 302.064889 
L 214.020342 302.007508 
L 214.044528 301.950127 
L 214.056621 302.09358 
L 214.104992 302.09358 
L 216.293789 302.09358 
L 216.414717 301.950127 
L 216.450995 301.950127 
L 216.547738 302.09358 
L 216.55983 302.064889 
L 216.596109 302.036199 
L 216.608202 302.09358 
L 216.656573 302.09358 
L 225.750359 302.064889 
L 225.822916 301.433698 
L 225.859194 301.978818 
L 225.919658 301.978818 
L 226.040586 302.09358 
L 230.091674 302.09358 
L 230.11586 301.978818 
L 230.20051 302.09358 
L 230.236788 302.09358 
L 230.297252 301.864056 
L 230.345623 302.064889 
L 231.784666 302.09358 
L 231.84513 301.892746 
L 231.893502 302.09358 
L 235.726919 302.09358 
L 235.763198 301.950127 
L 235.835755 302.09358 
L 248.50901 302.007508 
L 248.545288 301.978818 
L 248.593659 302.064889 
L 258.65487 302.09358 
L 258.775798 301.720603 
L 258.896726 302.09358 
L 261.230636 302.036199 
L 261.279007 301.950127 
L 261.303193 302.09358 
L 261.327379 302.09358 
L 262.113411 302.064889 
L 262.149689 301.892746 
L 262.19806 302.09358 
L 262.222246 302.09358 
L 263.903145 302.09358 
L 264.024073 301.605841 
L 264.145001 302.09358 
L 264.822198 302.036199 
L 264.870569 301.950127 
L 264.882662 302.064889 
L 264.91894 302.064889 
L 265.741251 302.09358 
L 265.825901 301.921437 
L 265.850086 302.036199 
L 278.77729 302.064889 
L 278.86194 299.540125 
L 278.886125 302.09358 
L 282.054439 302.09358 
L 282.139089 299.396673 
L 282.163274 302.036199 
L 290.978926 302.064889 
L 291.063576 299.654887 
L 291.087761 301.950127 
L 291.208689 302.09358 
L 291.740772 302.007508 
L 291.789144 301.950127 
L 291.801236 302.09358 
L 291.825422 302.09358 
L 292.696104 302.09358 
L 292.780753 301.921437 
L 292.804939 302.064889 
L 292.829125 302.036199 
L 292.85331 302.09358 
L 292.901681 302.09358 
L 293.276558 302.064889 
L 293.337022 301.835365 
L 293.385393 302.064889 
L 293.929569 302.09358 
L 293.953755 301.634532 
L 294.050497 301.663222 
L 294.171425 302.09358 
L 299.516443 302.007508 
L 299.601093 301.720603 
L 299.625279 301.806675 
L 299.637371 301.806675 
L 299.758299 302.09358 
L 300.737816 302.09358 
L 300.786187 301.978818 
L 300.846651 302.09358 
L 301.947096 302.007508 
L 301.995468 301.978818 
L 302.00756 302.09358 
L 302.019653 302.09358 
L 303.095912 302.09358 
L 303.144284 301.950127 
L 303.204748 302.09358 
L 303.253119 302.064889 
L 303.313583 302.09358 
L 305.018668 302.036199 
L 305.067039 301.950127 
L 305.091224 302.09358 
L 305.11541 302.09358 
L 305.284709 302.007508 
L 305.333081 290.559999 
L 305.393545 301.978818 
L 305.41773 302.007508 
L 305.538658 302.09358 
L 307.642805 302.09358 
L 307.763733 292.33881 
L 308.066053 287.547496 
L 308.150703 287.604877 
L 308.271631 287.690949 
L 308.453023 287.604877 
L 308.477209 287.576187 
L 308.501394 287.74833 
L 308.561858 287.77702 
L 308.682786 298.07691 
L 308.755343 301.462389 
L 308.91255 301.118103 
L 309.04557 271.739031 
L 309.069756 271.739031 
L 309.190684 271.165221 
L 309.202777 271.13653 
L 309.323705 267.521527 
L 309.408354 267.09117 
L 309.456726 267.234622 
L 309.468818 267.263313 
L 309.65021 262.328547 
L 309.722767 262.586761 
L 309.771138 262.586761 
L 309.807417 262.414618 
L 309.904159 262.902357 
L 309.988809 263.677 
L 310.061366 263.447476 
L 310.073458 263.447476 
L 310.194386 260.693188 
L 310.242758 260.865331 
L 310.3395 231.285426 
L 310.363686 231.658403 
L 310.387871 231.658403 
L 310.460428 231.027212 
L 310.508799 231.48626 
L 310.545078 232.519118 
L 310.617634 231.629712 
L 310.629727 231.629712 
L 310.72647 231.141974 
L 310.738562 231.658403 
L 310.786934 260.262831 
L 310.871583 259.775092 
L 310.895769 259.775092 
L 310.907862 259.975926 
L 310.919954 259.717711 
L 310.932047 259.861164 
L 311.016697 254.553422 
L 311.052975 257.852829 
L 311.101346 250.680204 
L 311.16181 242.589483 
L 311.24646 64.45017 
L 311.282738 64.823147 
L 311.306924 64.823147 
L 311.488316 68.725055 
L 311.500409 68.725055 
L 311.524594 69.442317 
L 311.585058 67.778268 
L 311.621337 67.778268 
L 311.742265 68.122554 
L 311.754358 68.122554 
L 311.790636 69.786603 
L 311.93575 77.389586 
L 311.996214 101.001867 
L 312.117142 302.09358 
L 312.54039 302.09358 
L 312.588761 301.720603 
L 312.649225 302.09358 
L 312.685503 302.09358 
L 312.745967 301.921437 
L 312.794339 302.09358 
L 314.293846 302.09358 
L 314.366403 301.634532 
L 314.402681 302.09358 
L 316.192416 302.007508 
L 316.216601 301.921437 
L 316.301251 302.007508 
L 316.422179 302.09358 
L 316.821241 302.09358 
L 316.869612 301.864056 
L 316.930076 302.09358 
L 317.583088 302.09358 
L 317.67983 301.777984 
L 317.691923 301.864056 
L 317.740294 301.864056 
L 317.861222 302.09358 
L 319.953277 302.007508 
L 319.977462 301.978818 
L 320.013741 302.007508 
L 320.025833 292.281429 
L 320.122576 301.950127 
L 320.243504 302.09358 
L 320.473267 302.036199 
L 320.521638 301.950127 
L 320.533731 302.064889 
L 320.582102 302.007508 
L 323.327168 302.007508 
L 323.387632 301.835365 
L 323.399725 302.09358 
L 323.42391 302.09358 
L 323.81088 302.09358 
L 323.871344 301.921437 
L 323.919715 302.09358 
L 325.141088 302.09358 
L 325.213645 301.605841 
L 325.249923 302.09358 
L 325.552243 302.064889 
L 325.636893 301.835365 
L 325.648986 302.09358 
L 325.661079 302.09358 
L 326.144791 302.036199 
L 326.181069 301.892746 
L 326.22944 302.09358 
L 326.241533 302.09358 
L 327.511277 302.064889 
L 327.52337 301.950127 
L 327.608019 299.79834 
L 327.620112 302.09358 
L 327.632205 302.09358 
L 329.204269 302.09358 
L 329.264733 301.892746 
L 329.313104 302.09358 
L 329.361476 302.064889 
L 329.42194 302.09358 
L 331.199581 302.064889 
L 331.284231 299.339292 
L 331.296324 302.09358 
L 331.308416 302.09358 
L 332.05817 302.09358 
L 332.118634 301.749294 
L 332.167005 302.064889 
L 335.577175 302.007508 
L 335.649732 301.720603 
L 335.661825 302.09358 
L 335.673918 302.09358 
L 335.879495 302.036199 
L 335.903681 297.990838 
L 335.98833 302.007508 
L 336.109258 302.09358 
L 338.721303 302.064889 
L 338.745489 301.978818 
L 338.79386 302.09358 
L 338.818046 302.09358 
L 341.659854 302.036199 
L 341.708225 301.950127 
L 341.720318 302.09358 
L 341.756596 302.09358 
L 342.361236 302.007508 
L 342.409608 301.950127 
L 342.4217 302.064889 
L 342.445886 302.036199 
L 342.470072 302.09358 
L 342.518443 301.921437 
L 342.542628 301.864056 
L 342.578907 302.064889 
L 342.591 302.064889 
L 342.711928 302.09358 
L 343.377032 302.09358 
L 343.425403 301.978818 
L 343.485867 302.09358 
L 343.679352 302.09358 
L 343.739816 298.162981 
L 343.788187 302.064889 
L 343.909115 302.09358 
L 345.469086 302.09358 
L 345.52955 301.749294 
L 345.577921 302.09358 
L 347.476491 302.007508 
L 347.549048 302.09358 
L 347.609512 301.691913 
L 347.633697 301.691913 
L 347.754625 302.09358 
L 349.217854 302.09358 
L 349.278318 301.864056 
L 349.32669 302.09358 
L 359.230693 302.09358 
L 359.291157 301.950127 
L 359.339529 302.09358 
L 361.697625 302.007508 
L 361.758089 301.864056 
L 361.770182 302.09358 
L 361.794367 302.09358 
L 362.32645 302.007508 
L 362.374822 301.921437 
L 362.386914 302.09358 
L 362.399007 302.09358 
L 364.091999 302.09358 
L 364.176649 301.892746 
L 364.200834 302.064889 
L 368.372851 302.09358 
L 368.445408 301.663222 
L 368.481686 302.09358 
L 368.917027 302.09358 
L 368.989584 301.577151 
L 369.025862 302.09358 
L 369.36446 302.007508 
L 369.437017 301.663222 
L 369.461203 302.09358 
L 370.05375 302.007508 
L 370.077936 301.950127 
L 370.114214 302.09358 
L 370.1384 302.09358 
L 370.972803 302.064889 
L 370.996988 301.950127 
L 371.069545 302.064889 
L 371.190473 302.09358 
L 372.16999 302.09358 
L 372.194176 301.950127 
L 372.278825 302.064889 
L 378.760567 302.007508 
L 378.808938 301.892746 
L 378.845216 302.007508 
L 378.966144 302.09358 
L 380.683322 302.036199 
L 380.7196 301.950127 
L 380.80425 299.970483 
L 380.816343 302.09358 
L 380.828435 302.09358 
L 384.528832 302.007508 
L 384.589296 301.978818 
L 384.601389 302.09358 
L 385.181844 302.007508 
L 385.218122 301.835365 
L 385.254401 302.064889 
L 385.278586 302.064889 
L 385.302772 302.064889 
L 385.314865 301.921437 
L 385.399514 302.09358 
L 385.411607 302.09358 
L 386.366938 302.007508 
L 386.391124 301.978818 
L 386.439495 302.09358 
L 388.495271 302.09358 
L 388.53155 301.950127 
L 388.604106 302.09358 
L 389.208746 302.09358 
L 389.305489 301.921437 
L 389.317582 302.036199 
L 389.35386 302.09358 
L 389.365953 302.064889 
L 389.414324 300.142626 
L 389.474788 302.007508 
L 391.796606 302.064889 
L 391.869163 299.654887 
L 391.905441 301.835365 
L 392.062647 302.09358 
L 395.545374 302.007508 
L 395.617931 301.749294 
L 395.630024 302.09358 
L 395.642116 302.09358 
L 401.591774 302.036199 
L 401.61596 301.892746 
L 401.664331 302.064889 
L 401.70061 302.064889 
L 403.393602 302.064889 
L 403.478251 298.1056 
L 403.502437 301.950127 
L 403.671736 302.09358 
L 404.107077 302.036199 
L 404.167541 301.663222 
L 404.215912 302.036199 
L 406.84005 302.09358 
L 406.960978 301.806675 
L 407.081906 302.09358 
L 407.565618 302.007508 
L 407.613989 301.921437 
L 407.626082 302.09358 
L 407.638175 302.09358 
L 408.448392 302.064889 
L 408.496764 301.978818 
L 408.557228 302.007508 
L 408.65397 302.09358 
L 408.666063 302.036199 
L 414.09573 301.978818 
L 414.119916 301.921437 
L 414.156194 302.007508 
L 414.192473 302.007508 
L 416.272434 301.950127 
L 416.29662 301.634532 
L 416.320806 297.876076 
L 416.405455 301.950127 
L 416.526383 302.09358 
L 417.094745 302.09358 
L 417.167302 301.405008 
L 417.20358 302.09358 
L 417.409158 302.09358 
L 417.530086 301.892746 
L 417.626828 302.09358 
L 417.651014 302.064889 
L 417.72357 302.007508 
L 417.747756 302.036199 
L 417.868684 302.09358 
L 418.618438 302.09358 
L 418.678902 301.806675 
L 418.727273 302.09358 
L 419.307727 302.036199 
L 419.368191 301.892746 
L 419.380284 302.09358 
L 419.40447 302.09358 
L 420.952348 302.09358 
L 421.000719 301.978818 
L 421.061183 302.09358 
L 421.399782 302.09358 
L 421.460246 301.777984 
L 421.508617 302.09358 
L 421.629545 301.978818 
L 421.641638 302.007508 
L 421.786752 302.09358 
L 423.528115 302.007508 
L 423.576486 301.950127 
L 423.63695 302.007508 
L 423.757878 302.09358 
L 424.277868 302.007508 
L 424.32624 301.892746 
L 424.362518 301.950127 
L 424.447168 302.09358 
L 424.471353 302.036199 
L 425.692726 301.950127 
L 425.741097 301.921437 
L 425.862025 302.09358 
L 426.672243 302.09358 
L 426.732707 301.921437 
L 426.781078 302.09358 
L 427.095491 302.09358 
L 427.155955 301.921437 
L 427.204326 302.064889 
L 431.448899 302.09358 
L 431.485178 301.892746 
L 431.557735 302.09358 
L 435.100925 302.064889 
L 435.149296 301.835365 
L 435.185575 302.09358 
L 435.20976 302.09358 
L 435.620916 302.09358 
L 435.68138 301.921437 
L 435.729751 302.09358 
L 437.41065 302.09358 
L 437.459021 301.864056 
L 437.519485 302.09358 
L 442.296142 302.007508 
L 442.356606 301.806675 
L 442.380791 302.09358 
L 442.392884 302.09358 
L 442.840318 302.064889 
L 442.900782 301.806675 
L 442.93706 301.978818 
L 443.057988 302.09358 
L 447.350932 302.036199 
L 447.399303 301.835365 
L 447.459767 302.007508 
L 449.056017 302.064889 
L 449.104388 301.864056 
L 449.164852 302.09358 
L 449.273688 302.09358 
L 449.394616 302.036199 
L 449.45508 295.466074 
L 449.491358 302.064889 
L 449.503451 302.064889 
L 449.551822 302.064889 
L 449.624379 301.54846 
L 449.636472 302.09358 
L 449.660657 302.09358 
L 454.098715 302.09358 
L 454.147086 301.950127 
L 454.20755 302.09358 
L 455.041954 302.09358 
L 455.090325 301.691913 
L 455.150789 302.09358 
L 455.259624 302.09358 
L 457.593535 302.09358 
L 457.653999 301.978818 
L 457.70237 302.09358 
L 459.758146 302.064889 
L 459.782331 301.864056 
L 459.830703 302.09358 
L 459.866981 302.09358 
L 461.039983 302.09358 
L 461.148818 301.864056 
L 461.160911 301.892746 
L 461.281839 302.09358 
L 461.451138 302.09358 
L 461.511602 301.835365 
L 461.559973 302.064889 
L 462.62414 301.978818 
L 462.684604 301.950127 
L 462.805532 302.09358 
L 465.091071 302.09358 
L 465.211999 301.605841 
L 465.332927 302.09358 
L 469.226809 302.09358 
L 469.299366 301.405008 
L 469.335644 302.09358 
L 469.722614 302.09358 
L 469.722614 302.09358 
" clip-path="url(#p7b081837fc)" style="fill: none; stroke: #40e0d0; stroke-width: 1.5; stroke-linecap: round"/>
   </g>
   <g id="line2d_2">
    <path d="M 307.654898 313.97575 
L 307.654898 52.568 
" clip-path="url(#p7b081837fc)" style="fill: none; stroke-dasharray: 7.4,3.2; stroke-dashoffset: 0; stroke: #ff0000; stroke-opacity: 0.8; stroke-width: 2"/>
   </g>
   <g id="line2d_3">
    <path d="M 311.947843 313.97575 
L 311.947843 52.568 
" clip-path="url(#p7b081837fc)" style="fill: none; stroke-dasharray: 7.4,3.2; stroke-dashoffset: 0; stroke: #ff0000; stroke-opacity: 0.8; stroke-width: 2"/>
   </g>
   <g id="patch_3">
    <path d="M 51.418125 313.97575 
L 51.418125 52.568 
" style="fill: none; stroke: #262626; stroke-width: 0.8; stroke-linejoin: miter; stroke-linecap: square"/>
   </g>
   <g id="patch_4">
    <path d="M 51.418125 313.97575 
L 489.641875 313.97575 
" style="fill: none; stroke: #262626; stroke-width: 0.8; stroke-linejoin: miter; stroke-linecap: square"/>
   </g>
   <g id="text_15">
    <!-- RNA-seq Coverage across Caudorviricetes sp. isolate ctJ1L4 genome -->
    <g style="fill: #262626" transform="translate(53.440312 17.391562) scale(0.14 -0.14)">
     <defs>
      <path id="ArialMT-43" d="M 3763 1606 
L 4369 1453 
Q 4178 706 3683 314 
Q 3188 -78 2472 -78 
Q 1731 -78 1267 223 
Q 803 525 561 1097 
Q 319 1669 319 2325 
Q 319 3041 592 3573 
Q 866 4106 1370 4382 
Q 1875 4659 2481 4659 
Q 3169 4659 3637 4309 
Q 4106 3959 4291 3325 
L 3694 3184 
Q 3534 3684 3231 3912 
Q 2928 4141 2469 4141 
Q 1941 4141 1586 3887 
Q 1231 3634 1087 3207 
Q 944 2781 944 2328 
Q 944 1744 1114 1308 
Q 1284 872 1643 656 
Q 2003 441 2422 441 
Q 2931 441 3284 734 
Q 3638 1028 3763 1606 
z
" transform="scale(0.015625)"/>
      <path id="ArialMT-76" d="M 1344 0 
L 81 3319 
L 675 3319 
L 1388 1331 
Q 1503 1009 1600 663 
Q 1675 925 1809 1294 
L 2547 3319 
L 3125 3319 
L 1869 0 
L 1344 0 
z
" transform="scale(0.015625)"/>
      <path id="ArialMT-72" d="M 416 0 
L 416 3319 
L 922 3319 
L 922 2816 
Q 1116 3169 1280 3281 
Q 1444 3394 1641 3394 
Q 1925 3394 2219 3213 
L 2025 2691 
Q 1819 2813 1613 2813 
Q 1428 2813 1281 2702 
Q 1134 2591 1072 2394 
Q 978 2094 978 1738 
L 978 0 
L 416 0 
z
" transform="scale(0.015625)"/>
      <path id="ArialMT-61" d="M 2588 409 
Q 2275 144 1986 34 
Q 1697 -75 1366 -75 
Q 819 -75 525 192 
Q 231 459 231 875 
Q 231 1119 342 1320 
Q 453 1522 633 1644 
Q 813 1766 1038 1828 
Q 1203 1872 1538 1913 
Q 2219 1994 2541 2106 
Q 2544 2222 2544 2253 
Q 2544 2597 2384 2738 
Q 2169 2928 1744 2928 
Q 1347 2928 1158 2789 
Q 969 2650 878 2297 
L 328 2372 
Q 403 2725 575 2942 
Q 747 3159 1072 3276 
Q 1397 3394 1825 3394 
Q 2250 3394 2515 3294 
Q 2781 3194 2906 3042 
Q 3031 2891 3081 2659 
Q 3109 2516 3109 2141 
L 3109 1391 
Q 3109 606 3145 398 
Q 3181 191 3288 0 
L 2700 0 
Q 2613 175 2588 409 
z
M 2541 1666 
Q 2234 1541 1622 1453 
Q 1275 1403 1131 1340 
Q 988 1278 909 1158 
Q 831 1038 831 891 
Q 831 666 1001 516 
Q 1172 366 1500 366 
Q 1825 366 2078 508 
Q 2331 650 2450 897 
Q 2541 1088 2541 1459 
L 2541 1666 
z
" transform="scale(0.015625)"/>
      <path id="ArialMT-67" d="M 319 -275 
L 866 -356 
Q 900 -609 1056 -725 
Q 1266 -881 1628 -881 
Q 2019 -881 2231 -725 
Q 2444 -569 2519 -288 
Q 2563 -116 2559 434 
Q 2191 0 1641 0 
Q 956 0 581 494 
Q 206 988 206 1678 
Q 206 2153 378 2554 
Q 550 2956 876 3175 
Q 1203 3394 1644 3394 
Q 2231 3394 2613 2919 
L 2613 3319 
L 3131 3319 
L 3131 450 
Q 3131 -325 2973 -648 
Q 2816 -972 2473 -1159 
Q 2131 -1347 1631 -1347 
Q 1038 -1347 672 -1080 
Q 306 -813 319 -275 
z
M 784 1719 
Q 784 1066 1043 766 
Q 1303 466 1694 466 
Q 2081 466 2343 764 
Q 2606 1063 2606 1700 
Q 2606 2309 2336 2618 
Q 2066 2928 1684 2928 
Q 1309 2928 1046 2623 
Q 784 2319 784 1719 
z
" transform="scale(0.015625)"/>
      <path id="ArialMT-63" d="M 2588 1216 
L 3141 1144 
Q 3050 572 2676 248 
Q 2303 -75 1759 -75 
Q 1078 -75 664 370 
Q 250 816 250 1647 
Q 250 2184 428 2587 
Q 606 2991 970 3192 
Q 1334 3394 1763 3394 
Q 2303 3394 2647 3120 
Q 2991 2847 3088 2344 
L 2541 2259 
Q 2463 2594 2264 2762 
Q 2066 2931 1784 2931 
Q 1359 2931 1093 2626 
Q 828 2322 828 1663 
Q 828 994 1084 691 
Q 1341 388 1753 388 
Q 2084 388 2306 591 
Q 2528 794 2588 1216 
z
" transform="scale(0.015625)"/>
      <path id="ArialMT-75" d="M 2597 0 
L 2597 488 
Q 2209 -75 1544 -75 
Q 1250 -75 995 37 
Q 741 150 617 320 
Q 494 491 444 738 
Q 409 903 409 1263 
L 409 3319 
L 972 3319 
L 972 1478 
Q 972 1038 1006 884 
Q 1059 663 1231 536 
Q 1403 409 1656 409 
Q 1909 409 2131 539 
Q 2353 669 2445 892 
Q 2538 1116 2538 1541 
L 2538 3319 
L 3100 3319 
L 3100 0 
L 2597 0 
z
" transform="scale(0.015625)"/>
      <path id="ArialMT-2e" d="M 581 0 
L 581 641 
L 1222 641 
L 1222 0 
L 581 0 
z
" transform="scale(0.015625)"/>
      <path id="ArialMT-6c" d="M 409 0 
L 409 4581 
L 972 4581 
L 972 0 
L 409 0 
z
" transform="scale(0.015625)"/>
      <path id="ArialMT-4a" d="M 184 1300 
L 731 1375 
Q 753 850 928 656 
Q 1103 463 1413 463 
Q 1641 463 1806 567 
Q 1972 672 2034 851 
Q 2097 1031 2097 1425 
L 2097 4581 
L 2703 4581 
L 2703 1459 
Q 2703 884 2564 568 
Q 2425 253 2123 87 
Q 1822 -78 1416 -78 
Q 813 -78 492 269 
Q 172 616 184 1300 
z
" transform="scale(0.015625)"/>
      <path id="ArialMT-4c" d="M 469 0 
L 469 4581 
L 1075 4581 
L 1075 541 
L 3331 541 
L 3331 0 
L 469 0 
z
" transform="scale(0.015625)"/>
     </defs>
     <use xlink:href="#ArialMT-52"/>
     <use xlink:href="#ArialMT-4e" transform="translate(72.216797 0)"/>
     <use xlink:href="#ArialMT-41" transform="translate(144.433594 0)"/>
     <use xlink:href="#ArialMT-2d" transform="translate(211.132812 0)"/>
     <use xlink:href="#ArialMT-73" transform="translate(244.433594 0)"/>
     <use xlink:href="#ArialMT-65" transform="translate(294.433594 0)"/>
     <use xlink:href="#ArialMT-71" transform="translate(350.048828 0)"/>
     <use xlink:href="#ArialMT-20" transform="translate(405.664062 0)"/>
     <use xlink:href="#ArialMT-43" transform="translate(433.447266 0)"/>
     <use xlink:href="#ArialMT-6f" transform="translate(505.664062 0)"/>
     <use xlink:href="#ArialMT-76" transform="translate(561.279297 0)"/>
     <use xlink:href="#ArialMT-65" transform="translate(611.279297 0)"/>
     <use xlink:href="#ArialMT-72" transform="translate(666.894531 0)"/>
     <use xlink:href="#ArialMT-61" transform="translate(700.195312 0)"/>
     <use xlink:href="#ArialMT-67" transform="translate(755.810547 0)"/>
     <use xlink:href="#ArialMT-65" transform="translate(811.425781 0)"/>
     <use xlink:href="#ArialMT-20" transform="translate(867.041016 0)"/>
     <use xlink:href="#ArialMT-61" transform="translate(894.824219 0)"/>
     <use xlink:href="#ArialMT-63" transform="translate(950.439453 0)"/>
     <use xlink:href="#ArialMT-72" transform="translate(1000.439453 0)"/>
     <use xlink:href="#ArialMT-6f" transform="translate(1033.740234 0)"/>
     <use xlink:href="#ArialMT-73" transform="translate(1089.355469 0)"/>
     <use xlink:href="#ArialMT-73" transform="translate(1139.355469 0)"/>
     <use xlink:href="#ArialMT-20" transform="translate(1189.355469 0)"/>
     <use xlink:href="#ArialMT-43" transform="translate(1217.138672 0)"/>
     <use xlink:href="#ArialMT-61" transform="translate(1289.355469 0)"/>
     <use xlink:href="#ArialMT-75" transform="translate(1344.970703 0)"/>
     <use xlink:href="#ArialMT-64" transform="translate(1400.585938 0)"/>
     <use xlink:href="#ArialMT-6f" transform="translate(1456.201172 0)"/>
     <use xlink:href="#ArialMT-72" transform="translate(1511.816406 0)"/>
     <use xlink:href="#ArialMT-76" transform="translate(1545.117188 0)"/>
     <use xlink:href="#ArialMT-69" transform="translate(1595.117188 0)"/>
     <use xlink:href="#ArialMT-72" transform="translate(1617.333984 0)"/>
     <use xlink:href="#ArialMT-69" transform="translate(1650.634766 0)"/>
     <use xlink:href="#ArialMT-63" transform="translate(1672.851562 0)"/>
     <use xlink:href="#ArialMT-65" transform="translate(1722.851562 0)"/>
     <use xlink:href="#ArialMT-74" transform="translate(1778.466797 0)"/>
     <use xlink:href="#ArialMT-65" transform="translate(1806.25 0)"/>
     <use xlink:href="#ArialMT-73" transform="translate(1861.865234 0)"/>
     <use xlink:href="#ArialMT-20" transform="translate(1911.865234 0)"/>
     <use xlink:href="#ArialMT-73" transform="translate(1939.648438 0)"/>
     <use xlink:href="#ArialMT-70" transform="translate(1989.648438 0)"/>
     <use xlink:href="#ArialMT-2e" transform="translate(2045.263672 0)"/>
     <use xlink:href="#ArialMT-20" transform="translate(2073.046875 0)"/>
     <use xlink:href="#ArialMT-69" transform="translate(2100.830078 0)"/>
     <use xlink:href="#ArialMT-73" transform="translate(2123.046875 0)"/>
     <use xlink:href="#ArialMT-6f" transform="translate(2173.046875 0)"/>
     <use xlink:href="#ArialMT-6c" transform="translate(2228.662109 0)"/>
     <use xlink:href="#ArialMT-61" transform="translate(2250.878906 0)"/>
     <use xlink:href="#ArialMT-74" transform="translate(2306.494141 0)"/>
     <use xlink:href="#ArialMT-65" transform="translate(2334.277344 0)"/>
     <use xlink:href="#ArialMT-20" transform="translate(2389.892578 0)"/>
     <use xlink:href="#ArialMT-63" transform="translate(2417.675781 0)"/>
     <use xlink:href="#ArialMT-74" transform="translate(2467.675781 0)"/>
     <use xlink:href="#ArialMT-4a" transform="translate(2495.458984 0)"/>
     <use xlink:href="#ArialMT-31" transform="translate(2545.458984 0)"/>
     <use xlink:href="#ArialMT-4c" transform="translate(2601.074219 0)"/>
     <use xlink:href="#ArialMT-34" transform="translate(2656.689453 0)"/>
     <use xlink:href="#ArialMT-20" transform="translate(2712.304688 0)"/>
     <use xlink:href="#ArialMT-67" transform="translate(2740.087891 0)"/>
     <use xlink:href="#ArialMT-65" transform="translate(2795.703125 0)"/>
     <use xlink:href="#ArialMT-6e" transform="translate(2851.318359 0)"/>
     <use xlink:href="#ArialMT-6f" transform="translate(2906.933594 0)"/>
     <use xlink:href="#ArialMT-6d" transform="translate(2962.548828 0)"/>
     <use xlink:href="#ArialMT-65" transform="translate(3045.849609 0)"/>
    </g>
    <!-- Total coverage 14.06% -->
    <g style="fill: #262626" transform="translate(199.324687 32.568) scale(0.14 -0.14)">
     <defs>
      <path id="ArialMT-54" d="M 1659 0 
L 1659 4041 
L 150 4041 
L 150 4581 
L 3781 4581 
L 3781 4041 
L 2266 4041 
L 2266 0 
L 1659 0 
z
" transform="scale(0.015625)"/>
      <path id="ArialMT-25" d="M 372 3481 
Q 372 3972 619 4315 
Q 866 4659 1334 4659 
Q 1766 4659 2048 4351 
Q 2331 4044 2331 3447 
Q 2331 2866 2045 2552 
Q 1759 2238 1341 2238 
Q 925 2238 648 2547 
Q 372 2856 372 3481 
z
M 1350 4272 
Q 1141 4272 1002 4090 
Q 863 3909 863 3425 
Q 863 2984 1003 2804 
Q 1144 2625 1350 2625 
Q 1563 2625 1702 2806 
Q 1841 2988 1841 3469 
Q 1841 3913 1700 4092 
Q 1559 4272 1350 4272 
z
M 1353 -169 
L 3859 4659 
L 4316 4659 
L 1819 -169 
L 1353 -169 
z
M 3334 1075 
Q 3334 1569 3581 1911 
Q 3828 2253 4300 2253 
Q 4731 2253 5014 1945 
Q 5297 1638 5297 1041 
Q 5297 459 5011 145 
Q 4725 -169 4303 -169 
Q 3888 -169 3611 142 
Q 3334 453 3334 1075 
z
M 4316 1866 
Q 4103 1866 3964 1684 
Q 3825 1503 3825 1019 
Q 3825 581 3965 400 
Q 4106 219 4313 219 
Q 4528 219 4667 400 
Q 4806 581 4806 1063 
Q 4806 1506 4665 1686 
Q 4525 1866 4316 1866 
z
" transform="scale(0.015625)"/>
     </defs>
     <use xlink:href="#ArialMT-54"/>
     <use xlink:href="#ArialMT-6f" transform="translate(49.958984 0)"/>
     <use xlink:href="#ArialMT-74" transform="translate(105.574219 0)"/>
     <use xlink:href="#ArialMT-61" transform="translate(133.357422 0)"/>
     <use xlink:href="#ArialMT-6c" transform="translate(188.972656 0)"/>
     <use xlink:href="#ArialMT-20" transform="translate(211.189453 0)"/>
     <use xlink:href="#ArialMT-63" transform="translate(238.972656 0)"/>
     <use xlink:href="#ArialMT-6f" transform="translate(288.972656 0)"/>
     <use xlink:href="#ArialMT-76" transform="translate(344.587891 0)"/>
     <use xlink:href="#ArialMT-65" transform="translate(394.587891 0)"/>
     <use xlink:href="#ArialMT-72" transform="translate(450.203125 0)"/>
     <use xlink:href="#ArialMT-61" transform="translate(483.503906 0)"/>
     <use xlink:href="#ArialMT-67" transform="translate(539.119141 0)"/>
     <use xlink:href="#ArialMT-65" transform="translate(594.734375 0)"/>
     <use xlink:href="#ArialMT-20" transform="translate(650.349609 0)"/>
     <use xlink:href="#ArialMT-31" transform="translate(678.132812 0)"/>
     <use xlink:href="#ArialMT-34" transform="translate(733.748047 0)"/>
     <use xlink:href="#ArialMT-2e" transform="translate(789.363281 0)"/>
     <use xlink:href="#ArialMT-30" transform="translate(817.146484 0)"/>
     <use xlink:href="#ArialMT-36" transform="translate(872.761719 0)"/>
     <use xlink:href="#ArialMT-25" transform="translate(928.376953 0)"/>
    </g>
   </g>
  </g>
 </g>
 <defs>
  <clipPath id="p7b081837fc">
   <rect x="51.418125" y="52.568" width="438.22375" height="261.40775"/>
  </clipPath>
 </defs>
</svg>
